<svg xmlns="http://www.w3.org/2000/svg" width="1327" height="747" xmlns:v="https://vecta.io/nano"><path d="M360.555 43.88l3.578-.004 3.945.011h4.139l11.255.013 11.755.008 22.269.021 25.349.022L495 44v3l1.898-.07 2.477-.055 2.461-.07C504 47 504 47 506 49v6l2.438.375L511 56c1.442 2.884 1.094 5.417 1.063 8.625l-.027 3.602L512 71h5v9l5 2 1 7 1.938.438C527 90 527 90 528 91v7l5 1 2 13 4 1v9l5 1c1.283 3.85 1.066 6.947 1 11h5v9h5c1.262 2.525 1.099 4.312 1.063 7.125l-.027 2.758L556 155l5 1v11h5c1 1 1 1 1.098 2.848L567 176l5 1v8l5 1c1.283 3.85 1.066 6.947 1 11l1.938.438C582 198 582 198 583 199c.072 1.686.084 3.375.063 5.063l-.027 2.785L583 209h5c1.478 2.957 1.06 5.742 1 9l5 1v8l1.875.313C598 228 598 228 600 231c.195 2.699.195 2.699.125 5.688l-.055 3.012L600 242l5 1v11h5c1 1 1 1 1.098 2.848L611 263l5 1v8h5c1.262 2.525 1.099 4.312 1.063 7.125l-.027 2.758L622 284l5 1v11h5c1.478 2.957 1.06 5.742 1 9l5 1v8l2.438.375L643 315c1.478 2.957 1.06 5.742 1 9l5 2v9l2.438.375L654 336c1.148 2.297 1.116 3.583 1.098 6.133l-.01 2.441-.025 2.551-.014 2.574L655 356h-6v6h-5l-1 3h-5v3h-5l-1 3h-5v3h-5v3h-6v3h-5v3h-6v3h-5v3h-6v3h-5v3h-6v3h-6v3l-3.437.938c-3.35.692-3.35.692-4.562 2.063-2.671.141-5.324.042-8 0v3l-2.437.375L556 408l-1 2h-21l-1-3-2.437-.375L528 406c-1.203-2.405-1.101-3.95-1.062-6.625l.027-2.477L527 395l-5-1v-11h-5c-1.283-3.85-1.066-6.947-1-11l-5-1-.043-2.082c-.144-2.724-.341-5.258-.957-7.918a113.16 113.16 0 0 0-5-3c-.471-2.787-.233-5.152 0-8l-1.937-.437C501 349 501 349 500 348c-.072-1.686-.084-3.375-.062-5.062l.027-2.785L500 338l-2.437-.375L495 337c-1.203-2.405-1.101-3.95-1.062-6.625l.027-2.477L494 326l-5-1v-11h-5c-1-1-1-1-1.098-2.848L483 305l-1.937-.937C479 303 479 303 478 302c-.072-1.519-.084-3.042-.062-4.562l.027-2.504L478 293l-2.437-.375L473 292c-1.203-2.405-1.101-3.95-1.062-6.625l.027-2.477L472 281l-5-1-.043-1.863c-.146-2.471-.344-4.736-.957-7.137l-5-3c-.47-2.787-.234-5.151 0-8l-1.937-.937C457 258 457 258 456 257c-.072-1.519-.084-3.042-.062-4.562l.027-2.504L456 248l-1.875-.875C452 246 452 246 450 244c-.125-2.625-.125-2.625 0-5l-1.937-.937C446 237 446 237 445 236c-.072-1.519-.084-3.042-.062-4.562l.027-2.504L445 227l-1.875-.312C441 226 441 226 439 223c-.195-2.262-.195-2.262-.125-4.687l.055-2.449L439 214h-2v-2l-3-1-.078-1.898-.172-2.477-.141-2.461c-.402-2.352-.402-2.352-2.656-3.453L429 200v-2c-2.537.547-2.537.547-5 2-.898 3.053-.898 3.053-1 6h-5l.07 2.773.055 3.602.07 3.586C418 219 418 219 416 221h-3l.035 2.117.027 2.758.035 2.742C413 231 413 231 412 233h-5v11l-5 1 .105 1.863.082 2.449.105 2.426C402 254 402 254 400.676 255.793 399 257 399 257 396 257l.07 2.117.055 2.758.07 2.742C396 267 396 267 394 269h-3l.035 2.117.027 2.758.035 2.742C391 279 391 279 390 281h-5v11l-5 1 .035 2.117.027 2.758.035 2.742C380 303 380 303 379 305h-5v12h-5l.07 2.52.055 3.293.07 3.27C369 329 369 329 367 332h-4v9l-5 2 .105 2.082.082 2.73.105 2.707C358 353 358 353 356.676 354.824 355 356 355 356 352 356v11l-5 1 .176 2.266c.136 2.979.187 5.772-.176 8.734-2.437 2.125-2.437 2.125-5 4-.453 2.362-.562 4.574-.566 6.977L341 392l-1.996.996L337 394c-.552 2.093-.552 2.093-.5 4.438-.286 4.334-.286 4.334-2.437 6.625C332 406 332 406 330 406l.105 2.082.082 2.73.105 2.707c-.293 2.48-.293 2.48-1.68 4.305C327 419 327 419 325 419l.035 2.117.027 2.758.035 2.742C325 429 325 429 324 431h-5v12h-5v15l52.259-.288 24.264-.134 21.145-.121 11.199-.061 12.492-.078 3.764-.007 3.429-.034 2.986-.017c2.716-.096 2.716-.096 5.462-2.262 2.36-.227 2.36-.227 5.105-.195l2.979.02 3.104.051 3.139.027L473 455l1-3h17v-2c2.593-.864 4.34-1.176 7.012-1.316l2.295-.127 2.381-.119 2.416-.131L511 448v-2h11v-3h7v-2c2.957-1.478 5.742-1.06 9-1l1-3h10l1-3 10-1v-2h6v-3h6l1-3 9-1v-2h6v-3h5l1-3h5v-3l2.438-.375L604 412l1-2h5l1-3h5l1-3c3.233-1.617 6.45-2.391 10-3l1-3h4l1-3h4l1-3h5v-3h5l1-3h5l1-5 5-1 1-3h4v-3h5l1-3h5v-5l5-1 1-3h5l1-5 1.938-.312L692 356l1-3h5v-5l5-1 1-3h5v-3h5l1-5 5-1v-3h5l1-5 5-1v-3h5l-.062-2.437C736 318 736 318 737 317c1.666-.041 3.334-.043 5 0v-3h5l1-3 5-1v-2h16l1 5 2.438.438C775 314 775 314 776 315c.041 1.666.043 3.334 0 5h5v6h5l1 6h5v6l2.188-.312c4.009.445 5.311 2.255 7.813 5.313.813 2.313.813 2.313 1 4l1.875.375C807 348 807 348 809 350v3l5 1v5l2.438-.062C819 359 819 359 820 360c.041 1.666.043 3.334 0 5h5v3l2.438.375L830 369c1.533 3.065 1.103 6.268 1.063 9.625l-.014 2.141L831 386l-6 2v4h-5l-.187 1.875C819 396 819 396 816.437 397.25L814 398v3h-5v3l-5 3-1 3h-5l-1 6h-5v3l-2.437.75c-2.734.972-2.734.972-3.375 3.375L786 425h-5l-.25 1.875C780 429 780 429 778 430.063l-2 .938-1 3h-5v3l-2.437.75c-2.734.972-2.734.972-3.375 3.375L764 443h-5v3l-5 1-1 5h-5v3h-5l-1 6h-5v3h-5v3h-6l-1 5-1.937.313L721 473l-1 3h-5v3h-5v3h-6l-.25 2.375C703 487 703 487 701 488.188l-2 .813-1 2h-5v3h-5l-1 3h-5v3h-5l-1 3h-5v3h-5v3h-6v3h-5v3h-6v3h-5l-1 3h-5l-1 3h-10v3h-5v3h-6v3l-3.375.375c-3.656.272-3.656.272-5.625 2.625-3.625.125-3.625.125-7 0v3l-3.375.375c-3.656.272-3.656.272-5.625 2.625-2.688.27-5.291.087-8 0v3l-3.312.375c-3.761.38-3.761.38-6.687 2.625l-3.125.5-2.875.5-1 2h-10l-1 3-2.152.148-2.785.227-2.777.211L545 555l-1 2h-16v3l-2.555.148-3.32.227-3.305.211c-2.951.147-2.951.147-4.82 2.414a105.89 105.89 0 0 1-7.437.5c-5.566.12-5.566.12-10.562 2.5-2.664.287-2.664.287-5.84.344l-3.471.09-3.627.066-7.09.156-3.179.057c-2.715.079-2.715.079-4.458 1.29-3.433 1.467-6.819 1.268-10.489 1.242l-2.512.007c-2.781.005-5.562-.004-8.344-.012l-5.977.006a5473.4 5473.4 0 0 1-12.878-.002 6345.8 6345.8 0 0 0-20.357.017l-57.89.044a9126.99 9126.99 0 0 0-31.967.036c-6.748.019-13.495.015-20.242-.004a1973.12 1973.12 0 0 0-12.587.027 641.82 641.82 0 0 1-5.842-.011 552.96 552.96 0 0 0-7.968.021l-2.341-.036c-4.049.069-5.642.383-8.645 3.201L258 575h-5v15h-5l.035 2.117.027 2.758.035 2.742C248 600 248 600 247 602h-5v12h-5l.07 2.52.055 3.293.07 3.27C237 626 237 626 235 629h-4v9h-5l.141 2.266c.297 8.107.297 8.107-2.016 11.422C222 653 222 653 220 653l.105 1.863.082 2.449.105 2.426C220 662 220 662 218.613 663.793 217 665 217 665 215 665l.035 2.117.027 2.758.035 2.742C215 675 215 675 214 677h-5v11l-5 1 .035 1.863.027 2.449.035 2.426C204 698 204 698 203 701h-5v12l-5 1v8h-6v3l-57.839.052-26.854.024-23.397.019-12.396.012-11.654.007-4.29.006-5.832.001-3.304.003C39 725 39 725 38 724c-.152-2.288-.222-4.582-.25-6.875l-.078-3.805C38 710 38 710 39.391 708.055 41 707 41 707 43 707l-.25-2.312c.25-2.687.25-2.687 2.125-4.5C47 699 47 699 49 699l-.141-2.082-.109-2.73-.141-2.707C49 689 49 689 50.945 687.492L53 686c.834-2.419.834-2.419 1.125-5.062.683-4.745.683-4.745 2.875-6.937h3l-.07-2.117-.055-2.758-.07-2.742C60 664 60 664 62 662h3l-.25-3.812c-.014-3.906-.014-3.906 2.125-6.187C69 651 69 651 71 651l-.105-2.082-.082-2.73-.105-2.707C71 641 71 641 72.387 639.176 74 638 74 638 76 638l-.062-3.937A59.19 59.19 0 0 1 76 630l1-1h5v-11l5-1-.07-1.863-.055-2.449-.07-2.426C87 608 87 608 89 605h4v-11l5-1-.07-1.863-.055-2.449-.07-2.426C98 584 98 584 100 581h4v-9l4-1 .148-1.898.227-2.477.211-2.461C109 562 109 562 111 560h4l-.141-2.52-.109-3.293-.141-3.27C115 548 115 548 116.977 546.395L119 545c.62-2.165.62-2.165.625-4.5.153-3.529.311-4.404 2.375-7.5h4v-8l5-1-.07-1.863-.055-2.449-.07-2.426C131 515 131 515 133 512h4v-11l5-1-.105-2.266-.082-2.984-.105-2.953c.336-3.211.999-4.551 3.293-6.797h3v-8l5-1-.035-2.117-.027-2.758-.035-2.742C153 466 153 466 154 464h5v-11l5-1-.035-2.371-.027-3.066-.035-3.059C164 441 164 441 165 440h5v-11l5-1-.07-1.863-.055-2.449-.07-2.426C175 419 175 419 177 416h4v-11l5-1-.035-2.117-.027-2.758-.035-2.742C186 394 186 394 187 392h5v-11l5-1-.187-3.75c0-2.897.122-4.125 1.5-6.75C200 368 200 368 203 368l-.07-1.863-.055-2.449-.07-2.426C203 359 203 359 205 356h3l-.07-1.863-.055-2.449-.07-2.426C208 347 208 347 210 344h4l-.105-1.863-.082-2.449-.105-2.426c.293-2.262.293-2.262 1.68-4.055C217 332 217 332 219 332l-.062-3.375C219 325 219 325 220 323h5v-12l5-1v-10l6-2v-10l5-1-.125-3.75c-.012-3.266.268-5.465 2.125-8.25h4v-11l5-1-.07-2.117-.055-2.758-.07-2.742C252 253 252 253 254 251h4v-11l5-1-.125-3.75c-.012-3.266.268-5.465 2.125-8.25h4l-.07-2.117-.055-2.758-.07-2.742C269 217 269 217 271 215h3l-.312-3.75c-.016-2.242-.016-2.242.313-4.25l2.438-1.875c2.765-1.841 2.765-1.841 3.047-4.516.133-1.787.227-3.576.277-5.367C280 193 280 193 282 191h3l-.25-3.812c-.014-3.906-.014-3.906 2.125-6.187 2.125-1 2.125-1 4.125-1l-.141-2.082-.109-2.73-.141-2.707c.391-2.48.391-2.48 2.367-4.082L295 167c.407-2.322.744-4.657 1-7l2-2h4v-11l5-1-.07-1.863-.055-2.449-.07-2.426C307 137 307 137 309 134h4l-.07-2.117-.055-2.758-.07-2.742C313 124 313 124 315 122h3l-.07-1.863-.055-2.449-.07-2.426C318 113 318 113 320 110h4l-.105-1.863-.082-2.449-.105-2.426C324 101 324 101 325.387 99.207 327 98 327 98 329 98l-.062-3.937A59.19 59.19 0 0 1 329 90l1-1h5V78l5-1-.141-2.301-.109-3.012-.141-2.988C340 66 340 66 341.891 64.145 344 63 344 63 346 63V50l5-1c1.225-1.95 1.225-1.95 2-4 2.639-1.319 4.599-1.123 7.555-1.12z" fill="#0e1010"/><path d="M568.487 43.871l2.088-.005h7.015l5.045-.007 13.931-.005 14.998-.01 29.41-.012 23.894-.006 67.67-.013h3.689 3.693l59.279-.023 60.794-.02 34.16-.013 29.083-.004 14.85-.005 13.579.002 4.928-.006 6.668.007 3.751-.001C970 44 970 44 973 46a116.54 116.54 0 0 0 8.316.344l2.461.044 10.428.144 7.611.125 2.393.016c5.565.102 5.565.102 7.791 2.328l8.125.625 2.285.117L1028 50l1 3 2.773-.035 3.602-.027 3.586-.035C1042 53 1042 53 1044 54v2l1.898-.035 2.477-.027 2.461-.035C1053 56 1053 56 1055 57v2l5.957-.195C1063 59 1063 59 1066 61l7 2v2h9l1 3h6v3h6l1 2c1.895.465 1.895.465 4.063.625L1104 74l1 3h6v3h5l1 3h5v3h5l1 3 5 1v2l5 1 1 5h5v3h5l1 3h5v6h6v3h5v6l2.438-.062C1171 119 1171 119 1172 120v5h5v6l2.438-.062C1182 131 1182 131 1183 132v5h5v6l2.438-.062C1193 143 1193 143 1194 144v5l5 1v8l5 1c1.158 3.473 1.069 6.361 1 10l5 1v6l2.438.875C1215 178 1215 178 1216 180c.134 2.672.043 5.323 0 8l5 1v14l5 1c1.187 3.56 1.097 6.438 1.063 10.188l-.027 3.855L1227 221l1.938.375L1231 222c1.357 2.714 1.112 4.848 1.098 7.883l-.01 3.535-.025 3.707-.014 3.73L1232 250l2.438.75c2.563 1.25 2.563 1.25 3.215 2.908.452 3.045.475 5.988.477 9.067l.005 2.022-.002 6.597.003 4.595-.005 9.623.004 12.327v9.486l.002 4.545-.007 6.355-.002 3.651c-.212 5.135-.212 5.135-1.127 7.074l-5 2v27l-5 2 .07 3.613.055 4.699.051 2.381.02 2.295.032 2.111C1227 377 1227 377 1225 380h-4v11l-5 1 .035 2.371.027 3.066.035 3.059C1216 403 1216 403 1215 404a99.22 99.22 0 0 1-5 0v9h-5l.063 3.938A59.19 59.19 0 0 1 1205 421c-1 1-1 1-3.562 1.063L1199 422v9h-5l.063 2.438C1194 436 1194 436 1193 437a99.22 99.22 0 0 1-5 0v6h-5l.063 3.375C1183 450 1183 450 1182 452h-5v5l-5 1v3h-6v6h-5l-1 6h-5v3h-5v3h-6l-1 6h-4l-1 3h-5v3h-5v3h-6v3h-5v3h-6v3h-5l-.375 2.375C1105 508 1105 508 1103 510l1.5 1c2.382 3.176 1.692 6.102 1.5 10l5 1v8l2.438.375L1116 531c1.354 2.709 1.065 5.009 1 8h5v6l2.438.438C1127 546 1127 546 1128 547c.041 2.333.042 4.667 0 7l5 1v8l2.438-.062C1138 563 1138 563 1139 564a99.22 99.22 0 0 1 0 5l1.938.438C1143 570 1143 570 1144 571c.041 2.333.042 4.667 0 7l2.438-.062C1149 578 1149 578 1150 579c.141 2.671.042 5.324 0 8h5v9h5l.75 3.375c.86 3.671.86 3.671 3.375 5.063L1166 605v6l2.438.375L1171 612c1.354 2.709 1.065 5.009 1 8l5 1v8h5l1 6 5 1v6l2.438.938C1193 644 1193 644 1194 645a99.22 99.22 0 0 1 0 5l5 1v8h5c1.478 2.957 1.06 5.742 1 9h5v6l5 2 .25 3.375c.324 3.672.324 3.672 2.75 5l2 .625c1 1 1 1 1.063 4.063L1221 692l2.438.375L1226 693c1.354 2.709 1.065 5.009 1 8h5v7l1.875.375C1236 709 1236 709 1238 711c.125 2.625.125 2.625 0 5l4 1v4l-4 1v3h-154l-1-3h-5l-1-6-5-1v-8l-2.437-.375L1067 706c-1.354-2.709-1.065-5.009-1-8l-5-1v-8l-2.437.063C1056 689 1056 689 1055 688a99.22 99.22 0 0 1 0-5l-1.937-.375L1051 682c-1.354-2.709-1.065-5.009-1-8h-5l-1-9-5-1v-8h-5l-1-9h-5v-6l-2.437-.375L1023 640c-1.354-2.709-1.065-5.009-1-8l-5-1v-8l-2.437-.375L1012 622c-1.354-2.709-1.065-5.009-1-8l-5-1v-8l-2.437.063C1001 605 1001 605 1000 604a99.22 99.22 0 0 1 0-5l-5-1v-8h-5c-1.478-2.957-1.06-5.742-1-9h-5v-6l-1.875-.375C980 574 980 574 978 572c-.125-3.125-.125-3.125 0-6l-5-1v-8h-5c-1.478-2.957-1.06-5.742-1-9l-4-1-1-5-5-1v-2h-5l-1-3-5.375.375-3.023.211c-2.757.178-2.757.178-4.602 2.414-2.167.246-2.167.246-4.91.241l-3.145.008-3.463-.022-3.636.001-9.886-.025-10.326-.016-19.56-.043-22.266-.043L815 539l-1-3h-6v-3h-5l-.078-1.898-.172-2.477-.141-2.461c-.396-2.341-.396-2.341-2.594-3.391L798 522c-1-1-1-1-1.098-3.066l.035-2.496.027-2.504L797 512l-1.875-.312C793 511 793 511 791 508c-.258-2.695-.089-5.285 0-8l-5-1v-11h-5c-1-1-1-1-1.098-2.848L780 479l-5-1v-13l5-1-.062-2.437C780 459 780 459 781 458a99.22 99.22 0 0 1 5 0v-3h5l1-5 5-1v-3h5l1-5 5-1v-3h5l1-6h5v-3h6l1-3h137v-2c3.003-1.502 5.791-1.093 9.125-1.062l3.883.027L979 422l1-3 2.117-.148 2.758-.227 2.742-.211c2.562-.21 2.562-.21 4.383-2.414 2.688-.27 5.291-.087 8 0l1-3h10l1-3h5v-3h5l1-3h5v-3h5l1-3h5l1-5 1.938-.312L1044 392l1-3h5v-5l5-1 1-3 5-1 1-7 4-1-.062-2.437C1066 366 1066 366 1067 365a99.22 99.22 0 0 1 5 0v-8l5-1-.25-3.75c-.012-3.272.077-4.02 2.125-6.75C1081 344 1081 344 1083 344l-.07-2.773-.055-3.602-.07-3.586C1083 331 1083 331 1085 329h3l-.032-1.94-.093-8.747-.051-3.053-.02-2.959-.032-2.714c.258-2.94.793-5.002 2.227-7.587l4-1v-23l-4-2c-2.893-4.613-2.221-10.064-2.125-15.312l.027-2.822L1088 251l-5-1v-14h-5c-1-1-1-1-1.098-3.066l.035-2.496.027-2.504L1077 226l-5-2v-9h-5l-1-6-1.937-.375L1062 208c-1.354-2.709-1.065-5.009-1-8l-2.437.063C1056 200 1056 200 1055 199a99.22 99.22 0 0 1 0-5h-5v-3l-2.187.313c-4.009-.445-5.311-2.255-7.812-5.312-.812-2.312-.812-2.312-1-4h-5l-1-3h-5v-3h-5l-1-3h-5v-3h-5l-1-3h-9l-1-3h-10l-1-3h-16l-1-3-2.874.032-10.578.078-4.574.041-6.583.044-3.999.032C941 158 941 158 939.273 157.001c-3.292-1.449-6.508-1.271-10.04-1.244l-2.357-.006c-2.566-.004-5.132.007-7.698.018l-5.349.001-11.202.023-14.379.02-11.041.013-5.304.006-7.398.022-2.226-.001c-3.766-.035-3.766-.035-7.281 1.147a65.44 65.44 0 0 1-4.043.316l-2.484.128-2.661.118-2.715.124c-21.605.929-21.605.929-29.097-1.687-2.376-.309-2.376-.309-4.625-.25l-2.227-.016c-2.18.138-2.18.138-4.007 1.266-2.376 1.11-3.94 1.258-6.547 1.266l-2.504.008-2.59-.023-2.59.023-2.504-.008-2.271-.007c-2.415-.293-4.011-1.105-6.135-2.259-2.664-.515-5.295-.729-8-1v3h-5v3c-3.333 3-3.333 3-6 3v5l1.875.313C763 170 763 170 765 173c.21 2.721.304 5.341.306 8.064l.025 2.489.039 8.158.027 5.668.027 11.888.089 15.229.038 11.71.038 5.614.01 7.856.045 2.34c-.055 4.051-.406 5.714-3.131 8.796L760 263c-.88 3.182-.88 3.182-1 6h-5v3l-5 3-1 3h-5l.063 2.438C743 283 743 283 742 284a99.22 99.22 0 0 1-5 0v5l-5 1v3h-6v6h-5v6h-6v6h-5v3h-17l-1-3h-5v-9l-5-1c-1.283-3.85-1.066-6.947-1-11l-5-1v-8l-2.437-.375L671 280c-1.203-2.405-1.101-3.95-1.062-6.625l.027-2.477L670 269l-5-1-.586-6.152L664 260l-2-1v-2l-3-1v-8l-5-1v-11h-5c-1-1-1-1-1.098-2.848L648 227l-5-1v-11h-5c-1.478-2.957-1.06-5.742-1-9l-5-1v-11h-5c-1.262-2.525-1.099-4.312-1.062-7.125l.027-2.758L626 182h-5l-.043-1.828c-.148-2.48-.359-4.758-.957-7.172l-5-4c-.456-2.795-.238-5.146 0-8l-5-1v-8l-1.875-.375C606 151 606 151 604 149c-.125-3.125-.125-3.125 0-6l-1.937-.437C600 142 600 142 599 141a90.89 90.89 0 0 1-.062-5.062l.027-2.785L599 131l-2.437-.375L594 130c-1.203-2.405-1.101-3.95-1.062-6.625l.027-2.477L593 119l-5-1v-11l-5-1c-1.478-2.957-1.06-5.742-1-9l-5-2v-9l-5-1c-1.283-3.85-1.066-6.947-1-11l-5-1v-8l-2.437-.375L561 64c-1.354-2.709-1.065-5.009-1-8l-5-1v-7l2.938-1.437c4.36-2.224 5.384-2.688 10.549-2.691zM720 503l10.375-.187 2.984-.076 2.852-.029 2.634-.048L741 503c2.29 3.435 2.178 4.985 2 9l1.938.438C747 513 747 513 748 514l.063 5.063-.027 2.785L748 524h5c1.262 2.525 1.099 4.312 1.063 7.125l-.027 2.758L754 536l5 1v12l4 1c2.762 2.762 2.579 5.207 3 9l4 1v8l2.438.438C775 569 775 569 776 570c.141 2.671.042 5.324 0 8l5 1v11l5 1c1.203 2.405 1.101 3.95 1.063 6.625l-.027 2.477L787 602l5 1v8l2.438.875C797 613 797 613 798 615c.134 2.672.043 5.323 0 8l5 1v9l2.438.938C808 635 808 635 809 636c.141 2.671.042 5.324 0 8h5v9h5c1.262 2.525 1.099 4.312 1.063 7.125l-.027 2.758L820 665l5 1v11l5 1c1.354 2.709 1.065 5.009 1 8l1.938.938C835 688 835 688 836 689l.063 4.563-.027 2.504L836 698l2.438-.062C841 698 841 698 842 699c.141 2.671.042 5.324 0 8l5 1v17H693l-1-3-5-1v-8h-5c-.961-2.882-1.106-4.699-1.062-7.687l.027-2.449L681 701l-5-1v-8l-5-1c-1.283-3.85-1.066-6.947-1-11l-5-1v-11h-5c-1-1-1-1-1.098-2.848L659 659l-5-1v-11l-5-1-.297-1.898-.453-2.477-.422-2.461c-.749-2.687-.749-2.687-4.828-4.164v-9l-4-1c-2.679-4.019-2.156-6.242-2-11l-1.937-.437C633 613 633 613 632 612a90.89 90.89 0 0 1-.062-5.062l.027-2.785L632 602h-5c-1.478-2.957-1.06-5.742-1-9l-4-1-.367-1.715-.508-2.223-.492-2.215c-.462-2.055-.462-2.055-2.633-2.848v-2l-3-1-.062-9.437-.025-2.721-.01-2.588-.016-2.396C615 561 615 561 616 560a99.22 99.22 0 0 1 5 0v-3h5l1-3h5v-3h6l1-3h9v-3h6v-3h5l1-3h5v-3h5l1-3h5v-3h5l1-3h5v-3h5v-3l2.875-.25L698 520c1.15-1.967 1.15-1.967 2-4 1.326-.362 2.659-.697 4-1l1-3h4v-3h5l1-3h5v-3z" fill="#0f1011"/><path d="M1000.188 202.875l3.293.055 2.52.07 1 2 5 2v8h-5l.035 1.863.027 2.449.035 2.426C1007 224 1007 224 1006 227h-5v9h-5l.035 2.773.027 3.602.035 3.586C996 249 996 249 995 251h-5l.141 2.52.109 3.293.141 3.27C990 263 990 263 988.027 264.57L986 266c-.659 2.428-.659 2.428-.687 5.063-.247 4.807-.247 4.807-1.312 6.938h-5v12l-5 2 .035 2.082.027 2.73.035 2.707C974 302 974 302 973 305h-5l.141 2.52.109 3.293.141 3.27C968 317 968 317 966.027 318.57L964 320c-.659 2.428-.659 2.428-.687 5.063-.247 4.807-.247 4.807-1.312 6.938h-5l.105 2.52.082 3.293.105 3.27C957 344 957 344 955.613 345.887 954 347 954 347 952 347l.035 2.52.027 3.293.035 3.27C952 359 952 359 951 362h-5v14l-5 1 .035 1.863.027 2.449.035 2.426C941 386 941 386 940 389l-7.375.188-2.117.076c-2.031.029-2.031.029-5.508-.264-2.136-3.204-2.231-4.019-2.125-7.687l.055-2.449L923 377l-5-1v-15l-5-2c-1.141-3.422-1.098-6.087-1.062-9.687l.027-3.574L912 343h-2v-2l-3-1v-14l-4-1c-2.351-3.527-2.214-5.029-2.125-9.187l.055-3.293.07-2.52-5-2v-3h-5l-1-3h-9l-1-3h-6v-3l-3.875.125c-2.18.07-2.18.07-4.125-.125l-2-2-6-2v-2h-6v-3l-1.898.07-2.477.055-2.461.07C843 287 843 287 841 285c-1.907-.384-1.907-.384-4-.5-3.778-.278-3.778-.278-6-2.5l-7-2v-2l-5-1v-7l5-1 1-3h5l1-3h10v-3l2.938-.937c2.903-.758 2.903-.758 4.063-2.062l4.563-.062 2.504.027L857 257l1-3h5l1-3h10v-3h5l1-3h10l1-3h5v-3h6l1-3h9l1-3h5l1-3h10v-3l2.938-.937c2.903-.758 2.903-.758 4.063-2.062l4.563-.062 2.504.027L945 224l1-3h5l1-3h10v-3h5l1-3 6-2 1-1 4.563-.062 2.504.027L984 209v-3l3.313-.375c4.987-.845 7.602-2.863 12.875-2.75z" fill="#111212"/><path d="M980 47l12.708-.11 4.324-.041 6.21-.044 3.777-.032C1010 47 1010 47 1012 49l8.125.625 2.285.117L1028 50l1 3 2.773-.035 3.602-.027 3.586-.035C1042 53 1042 53 1044 54v2l1.898-.035 2.477-.027 2.461-.035C1053 56 1053 56 1055 57v2l5.957-.195C1063 59 1063 59 1066 61l7 2v2h9l1 3h6v3h6l1 2c1.895.465 1.895.465 4.063.625L1104 74l1 3h6v3h5l1 3h5v3h5l1 3 5 1v2l5 1 1 5h5v3h5l1 3h5v6h6v3h5v6l2.438-.062C1171 119 1171 119 1172 120v5h5v6l2.438-.062C1182 131 1182 131 1183 132v5h5v6l2.438-.062C1193 143 1193 143 1194 144v5l5 1v8l5 1c1.158 3.473 1.069 6.361 1 10l5 1v6l2.438.875C1215 178 1215 178 1216 180c.134 2.672.043 5.323 0 8l5 1v14l5 1c1.187 3.56 1.097 6.438 1.063 10.188l-.027 3.855L1227 221l1.938.375L1231 222c1.357 2.714 1.112 4.848 1.098 7.883l-.01 3.535-.025 3.707-.014 3.73L1232 250l2.438.75c2.563 1.25 2.563 1.25 3.215 2.908.452 3.045.475 5.988.477 9.067l.005 2.022-.002 6.597.003 4.595-.005 9.623.004 12.327v9.486l.002 4.545-.007 6.355-.002 3.651c-.212 5.135-.212 5.135-1.127 7.074l-5 2v27l-5 2 .07 3.613.055 4.699.051 2.381.02 2.295.032 2.111C1227 377 1227 377 1225 380h-4v11l-5 1 .035 2.371.027 3.066.035 3.059C1216 403 1216 403 1215 404c-1.666.041-3.334.043-5 0v9h-5l.063 3.938A59.19 59.19 0 0 1 1205 421c-1 1-1 1-3.562 1.063L1199 422v9h-5l.063 2.438C1194 436 1194 436 1193 437c-1.666.041-3.334.043-5 0v6h-5l.063 3.375C1183 450 1183 450 1182 452h-5v5l-5 1v3h-6v6h-5l-1 6h-5v3h-5v3h-6l-1 6h-4l-1 3h-5v3h-5v3h-6v3h-5v3h-6v3h-5l-.375 2.375C1105 508 1105 508 1103 510l1.5 1c2.382 3.176 1.692 6.102 1.5 10l5 1v8l2.438.375L1116 531c1.354 2.709 1.065 5.009 1 8h5v6l2.438.438C1127 546 1127 546 1128 547c.041 2.333.042 4.667 0 7l5 1v8l2.438-.062C1138 563 1138 563 1139 564c.041 1.666.043 3.334 0 5l1.938.438C1143 570 1143 570 1144 571c.041 2.333.042 4.667 0 7l2.438-.062C1149 578 1149 578 1150 579c.141 2.671.042 5.324 0 8h5v9h5l.75 3.375c.86 3.671.86 3.671 3.375 5.063L1166 605v6l2.438.375L1171 612c1.354 2.709 1.065 5.009 1 8l5 1v8h5l1 6 5 1v6l2.438.938C1193 644 1193 644 1194 645c.041 1.666.043 3.334 0 5l5 1v8h5c1.478 2.957 1.06 5.742 1 9h5v6l5 2 .25 3.375c.324 3.672.324 3.672 2.75 5l2 .625c1 1 1 1 1.063 4.063L1221 692l2.438.375L1226 693c1.354 2.709 1.065 5.009 1 8h5v7l1.875.375C1236 709 1236 709 1238 711c.125 2.625.125 2.625 0 5l4 1v4l-4 1v3h-154l-1-3h-5l-1-6-5-1v-8l-2.437-.375L1067 706c-1.354-2.709-1.065-5.009-1-8l-5-1v-8l-2.437.063C1056 689 1056 689 1055 688c-.041-1.666-.043-3.334 0-5l-1.937-.375L1051 682c-1.354-2.709-1.065-5.009-1-8h-5l-1-9-5-1v-8h-5l-1-9h-5v-6l-2.437-.375L1023 640c-1.354-2.709-1.065-5.009-1-8l-5-1v-8l-2.437-.375L1012 622c-1.354-2.709-1.065-5.009-1-8l-5-1v-8l-2.437.063C1001 605 1001 605 1000 604c-.041-1.666-.043-3.334 0-5l-5-1v-8h-5c-1.478-2.957-1.06-5.742-1-9h-5v-6l-1.875-.375C980 574 980 574 978 572c-.125-3.125-.125-3.125 0-6l-5-1v-8h-5c-1.478-2.957-1.06-5.742-1-9l-4-1-1-5-5-1v-2h-5l-1-3-5.375.375-3.023.211c-2.757.178-2.757.178-4.602 2.414-2.167.246-2.167.246-4.91.241l-3.145.008-3.463-.022-3.636.001-9.886-.025-10.326-.016-19.56-.043-22.266-.043L815 539l-1-3h-6v-3h-5l-.078-1.898-.172-2.477-.141-2.461c-.396-2.341-.396-2.341-2.594-3.391L798 522c-1-1-1-1-1.098-3.066l.035-2.496.027-2.504L797 512l-1.875-.312C793 511 793 511 791 508c-.258-2.695-.089-5.285 0-8l-5-1v-11h-5c-1-1-1-1-1.098-2.848L780 479l-5-1v-13l5-1-.75 2c-.319 3.825.844 5.672 2.645 8.973 1.243 2.28 2.248 4.632 3.246 7.027 1.541 3.585 3.218 7.11 4.871 10.645C791 495 791 495 791 497h2l4.438 8.625 1.275 2.449c2.194 4.318 3.851 8.023 4.287 12.926h2l6 12 5.583-.063 52.129-.323 26.799-.173 23.369-.122 12.364-.091c27.083-.508 27.083-.508 33.137 4.995 2.55 3.035 4.301 6.217 5.804 9.873 1.297 3.023 3.09 5.647 4.879 8.403l1.926 3.207c3.372 5.519 7.01 10.858 10.622 16.222l4.449 6.673 14.256 20.955c1.7 2.464 3.307 4.968 4.901 7.502 3.751 5.92 7.631 11.747 11.535 17.566l15.448 23.495L1050 669l7.909 11.837 2.312 3.457 13.294 20.382c1.698 2.658 3.469 5.254 5.298 7.824L1084 720c2.738.465 2.738.465 6.011.399l3.884.038 4.285-.004 4.493.031 12.222.043 12.764.06 24.182.095 27.526.116L1236 721l-1.922-3.377-1.081-1.899c-1.72-2.975-3.663-5.778-5.622-8.599l-1.195-1.758c-2.115-3.194-2.115-3.194-5.18-5.367l-2-5c-.995-1.552-2.04-3.072-3.125-4.562-4.812-6.724-9.348-13.623-13.914-20.516l-2.023-3.047-1.785-2.695-5.332-7.715-12.883-18.777-1.251-1.844-18.04-26.884-11.236-16.456c-6.38-9.217-12.506-18.614-18.699-27.957l-12.074-17.767-8.653-12.823-2.121-3.2-4.117-6.244c-3.615-5.464-7.341-10.661-11.585-15.657L1091 507l1-3c2.355-1.087 4.627-2.01 7.063-2.875 5.835-2.091 10.756-4.734 15.938-8.125l5.031-3.129c28.06-17.557 53.526-38.009 71.969-65.871l1.395-2.088c10.306-15.236 10.306-15.236 17.839-31.931.851-2.201 1.939-4.164 3.078-6.23 8.206-16.115 11.354-35.492 14.375-53.187l.362-2.112c2.06-12.661 2.191-25.279 2.2-38.076l.003-2.896c-.014-19.477-1.159-38.301-6.347-57.167-.797-2.912-1.426-5.783-1.969-8.75-.729-3.81-1.762-7.39-3.062-11.042a185.82 185.82 0 0 1-1.707-5.159c-2.403-7.578-5.435-14.658-8.918-21.798l-1.617-3.33c-3.802-7.736-7.779-15.097-12.633-22.232l-1.246-1.9c-20.071-30.571-48.641-53.637-80.578-70.921l-4.539-2.478c-12.564-6.93-12.564-6.93-25.996-11.884-2.629-.813-5.071-1.88-7.588-2.985-4.216-1.708-8.586-2.983-12.928-4.332l-5.68-1.781-2.774-.867-7.522-2.508c-3.205-1.075-6.294-1.859-9.648-2.344l-14.937-2.5c-13.821-2.443-27.59-4.191-41.562-5.5v-1z" fill="#ebebea"/><path d="M498 47h6c2 2 2 2 2.125 5.125L506 55l2.438.375L511 56c1.442 2.884 1.094 5.417 1.063 8.625l-.027 3.602L512 71h5v9l5 2 1 7 1.938.438C527 90 527 90 528 91v7l5 1 2 13 4 1v9l5 1c1.283 3.85 1.066 6.947 1 11h5v9h5c1.262 2.525 1.099 4.312 1.063 7.125l-.027 2.758L556 155l5 1v11h5c1 1 1 1 1.098 2.848L567 176l5 1v8l5 1c1.283 3.85 1.066 6.947 1 11l1.938.438C582 198 582 198 583 199c.072 1.686.084 3.375.063 5.063l-.027 2.785L583 209h5c1.478 2.957 1.06 5.742 1 9l5 1v8l1.875.313C598 228 598 228 600 231c.195 2.699.195 2.699.125 5.688l-.055 3.012L600 242l5 1v11h5c1 1 1 1 1.098 2.848L611 263l5 1v8h5c1.262 2.525 1.099 4.312 1.063 7.125l-.027 2.758L622 284l5 1v11h5c1.478 2.957 1.06 5.742 1 9l5 1v8l2.438.375L643 315c1.478 2.957 1.06 5.742 1 9l5 2v9l2.438.375L654 336c1.148 2.297 1.116 3.583 1.098 6.133l-.01 2.441-.025 2.551-.014 2.574L655 356h-6v6h-5l-1 3h-5v3h-5l-1 3h-5v3h-5v3h-6v3h-5v3h-6v3h-5v3h-6v3h-5v3h-6v3h-6v3l-3.437.938c-3.35.692-3.35.692-4.562 2.063-2.671.141-5.324.042-8 0v3l-2.437.375L556 408l-1 2h-21l-1-3-2.437-.375L528 406c-1.203-2.405-1.101-3.95-1.062-6.625l.027-2.477L527 395l-5-1v-11h-5c-1.283-3.85-1.066-6.947-1-11l-5-1-.043-2.082c-.144-2.724-.341-5.258-.957-7.918a113.16 113.16 0 0 0-5-3c-.471-2.787-.233-5.152 0-8l-1.937-.437C501 349 501 349 500 348c-.072-1.686-.084-3.375-.062-5.062l.027-2.785L500 338l-2.437-.375L495 337c-1.203-2.405-1.101-3.95-1.062-6.625l.027-2.477L494 326l-5-1v-11h-5c-1-1-1-1-1.098-2.848L483 305l-1.937-.937C479 303 479 303 478 302c-.072-1.519-.084-3.042-.062-4.562l.027-2.504L478 293l-2.437-.375L473 292c-1.203-2.405-1.101-3.95-1.062-6.625l.027-2.477L472 281l-5-1-.043-1.863c-.146-2.471-.344-4.736-.957-7.137l-5-3c-.47-2.787-.234-5.151 0-8l-1.937-.937C457 258 457 258 456 257c-.072-1.519-.084-3.042-.062-4.562l.027-2.504L456 248l-1.875-.875C452 246 452 246 450 244c-.125-2.625-.125-2.625 0-5l-1.937-.937C446 237 446 237 445 236c-.072-1.519-.084-3.042-.062-4.562l.027-2.504L445 227l-1.875-.312C441 226 441 226 439 223c-.195-2.262-.195-2.262-.125-4.687l.055-2.449L439 214h-2v-2l-3-1-.078-1.898-.172-2.477-.141-2.461c-.402-2.352-.402-2.352-2.656-3.453L429 200v-2c-2.537.547-2.537.547-5 2-.898 3.053-.898 3.053-1 6h-5l.07 2.773.055 3.602.07 3.586C418 219 418 219 416 221h-3l.035 2.117.027 2.758.035 2.742C413 231 413 231 412 233h-5v11l-5 1 .105 1.863.082 2.449.105 2.426C402 254 402 254 400.676 255.793 399 257 399 257 396 257l.07 2.117.055 2.758.07 2.742C396 267 396 267 394 269h-3l.035 2.117.027 2.758.035 2.742C391 279 391 279 390 281h-5v11l-5 1 .035 2.117.027 2.758.035 2.742C380 303 380 303 379 305h-5v12h-5l.07 2.52.055 3.293.07 3.27C369 329 369 329 367 332h-4v9l-5 2 .105 2.082.082 2.73.105 2.707C358 353 358 353 356.676 354.824 355 356 355 356 352 356v11l-5 1 .176 2.266c.136 2.979.187 5.772-.176 8.734-2.437 2.125-2.437 2.125-5 4-.453 2.362-.562 4.574-.566 6.977L341 392l-1.996.996L337 394c-.552 2.093-.552 2.093-.5 4.438-.286 4.334-.286 4.334-2.437 6.625C332 406 332 406 330 406l.105 2.082.082 2.73.105 2.707c-.293 2.48-.293 2.48-1.68 4.305C327 419 327 419 325 419l.035 2.117.027 2.758.035 2.742C325 429 325 429 324 431h-5v12h-5v15h115v1c-7.655.827-15.2 1.14-22.897 1.114h-3.433l-11.119-.016-7.755-.004-18.252-.021-20.801-.022L302 460c.732-4.065 1.944-7.147 3.875-10.812 2.073-4.037 3.908-7.992 5.418-12.266 1.37-3.724 3.072-7.308 4.707-10.922l1.75-4c1.621-3.655 3.317-7.27 5.029-10.882 5.793-12.224 11.274-24.487 16.033-37.153 1.478-3.689 3.242-7.178 5.07-10.703 1.02-2.064 1.847-4.095 2.617-6.262 1.415-3.979 3.275-7.666 5.219-11.41 1.557-3.147 2.915-6.356 4.281-9.59l1.5-3.465c3.17-7.262 3.17-7.262 6-14.66 1.133-3.114 2.545-5.992 4.063-8.937 4.533-8.884 8.344-18.098 12.277-27.259l3.305-7.448c2.134-4.776 3.869-9.675 5.609-14.605L390 257l3-1-.312-2.375c.378-4.382 1.905-7.141 3.949-10.98 1.713-3.324 3.049-6.737 4.402-10.219 1.193-3.012 2.516-5.954 3.848-8.906l3.39-8.004 8.348-19.391 1.445-3.297c2.202-5.003 4.411-9.976 6.93-14.828 3 1 3 1 4.236 3.148l1.225 2.872 1.409 3.246 1.505 3.547 3.23 7.43.841 1.937c2.963 6.808 6.094 13.534 9.241 20.258l11.125 24.313c2.814 6.311 5.778 12.511 8.914 18.667 3.168 6.267 6.091 12.64 9.023 19.02L493 318.5l18.03 37.825c7.694 16.698 15.875 33.169 23.97 49.675 5.152.09 8.907-.374 13.75-2.187l3.676-1.371c3.227-1.302 6.367-2.704 9.512-4.191 4.117-1.943 7.529-2.948 12.063-3.25v-2l2.055-.664c6.124-2.087 11.365-4.577 16.754-8.164C595 383 595 383 599 383v-2h4v-2l1.471-.772c15.759-8.327 31.335-17.4 45.529-28.228-1.403-7.322-4.491-13.275-8-19.812l-1.778-3.366L635 317l-4.875-9.187-1.174-2.214c-4.287-8.141-8.343-16.397-12.432-24.638-4.191-8.434-8.513-16.762-13.159-24.956-3.711-6.558-7.075-13.268-10.392-20.032L588 225.938l-1-2.008c-2.559-5.11-5.235-10.152-7.944-15.184a464.95 464.95 0 0 1-6.626-12.847l-1.021-2.048-7.34-14.766-5.534-11.126-2.851-5.742-4.176-8.396-1.285-2.601-1.195-2.391-1.044-2.101c-.983-1.903-.983-1.903-2.984-3.727-.856-2.632-1.389-5.295-2-8h-2l-1.277-3.051c-1.623-3.783-3.425-7.465-5.285-11.137l-1.02-2.03-4.765-9.44-4.153-8.217-1.35-2.649-1.244-2.468-1.115-2.199C520 92 520 92 520 90h-2l-1.5-3.875-.844-2.18C515 82 515 82 515 80h-2l-1.219-2.977c-2.151-5.022-4.816-9.758-7.465-14.531C501.598 57.476 499.634 52.465 498 47z" fill="#ececeb"/><path d="M760 308h9l1 5 2.438.438C775 314 775 314 776 315v5h5v6h5l1 6h5v6l2.188-.312c4.009.445 5.311 2.255 7.813 5.313.813 2.313.813 2.313 1 4l1.875.375C807 348 807 348 809 350v3l5 1v5l2.438-.062C819 359 819 359 820 360v5h5v3l2.438.375L830 369c1.533 3.065 1.103 6.268 1.063 9.625l-.014 2.141L831 386l-6 2v4h-5l-.187 1.875C819 396 819 396 816.438 397.25L814 398v3h-5v3l-5 3-1 3h-5l-1 6h-5v3l-2.437.75c-2.734.972-2.734.972-3.375 3.375L786 425h-5l-.25 1.875C780 429 780 429 778 430.063l-2 .938-1 3h-5v3l-2.437.75c-2.734.972-2.734.972-3.375 3.375L764 443h-5v3l-5 1-1 5h-5v3h-5l-1 6h-5v3h-5v3h-6l-1 5-1.937.313L721 473l-1 3h-5v3h-5v3h-6l-.25 2.375C703 487 703 487 701 488.188l-2 .813-1 2h-5v3h-5l-1 3h-5v3h-5l-1 3h-5v3h-5v3h-6v3h-5v3h-6v3h-5l-1 3h-5l-1 3h-10v3h-5v3h-6v3l-3.375.375c-3.656.272-3.656.272-5.625 2.625h-7v3l-3.375.375c-3.656.272-3.656.272-5.625 2.625-2.688.27-5.291.087-8 0v3l-3.312.375c-3.761.38-3.761.38-6.687 2.625l-3.125.5-2.875.5-1 2h-10l-1 3-2.152.148-2.785.227-2.777.211L545 555l-1 2h-16v3l-2.555.148-3.32.227-3.305.211c-2.951.147-2.951.147-4.82 2.414a105.89 105.89 0 0 1-7.437.5c-5.566.12-5.566.12-10.562 2.5-2.664.287-2.664.287-5.84.344l-3.471.09-3.627.066-7.09.156-3.179.057c-2.715.079-2.715.079-4.458 1.29-3.433 1.467-6.819 1.268-10.489 1.242l-2.512.007c-2.781.005-5.562-.004-8.344-.012l-5.977.006a5473.4 5473.4 0 0 1-12.878-.002c-6.786-.008-13.571.003-20.357.017l-57.89.044a9126.99 9126.99 0 0 0-31.967.036c-6.748.019-13.495.015-20.242-.004a1973.12 1973.12 0 0 0-12.587.027 641.82 641.82 0 0 1-5.842-.011 552.96 552.96 0 0 0-7.968.021l-2.341-.036c-4.049.069-5.642.383-8.645 3.201L258 575h-5v15h-5l.035 2.117.027 2.758.035 2.742C248 600 248 600 247 602h-5v12h-5l.07 2.52.055 3.293.07 3.27C237 626 237 626 235 629h-4v9h-5l.141 2.266c.297 8.107.297 8.107-2.016 11.422C222 653 222 653 220 653l.105 1.863.082 2.449.105 2.426C220 662 220 662 218.613 663.793 217 665 217 665 215 665l.035 2.117.027 2.758.035 2.742C215 675 215 675 214 677h-5v11l-5 1 .035 1.863.027 2.449.035 2.426C204 698 204 698 203 701h-5v12l-5 1v8h-6v3l-57.839.052-26.854.024-23.397.019-12.396.012-11.654.007-4.29.006-5.832.001-3.304.003C39 725 39 725 38 724c-.152-2.288-.222-4.582-.25-6.875l-.078-3.805C38 710 38 710 39.391 708.055 41 707 41 707 43 707l-.25-2.312c.25-2.687.25-2.687 2.125-4.5C47 699 47 699 49 699c-1 5-1 5-10 22h146v-4h2l.625-2.75c1.33-4.702 3.639-8.872 5.863-13.203 1.709-3.445 3.125-6.94 4.504-10.527 1.504-3.76 3.232-7.411 4.957-11.074A33.14 33.14 0 0 0 205 673h2l.258-2.543c.867-4.04 2.586-7.227 4.617-10.77 2.629-4.747 4.885-9.257 6.438-14.477 2.647-8.514 6.767-16.437 10.811-24.349 2.343-4.641 4.212-9.293 5.888-14.218 2.213-5.922 5.31-11.488 8.273-17.062 2.697-5.178 4.854-10.441 6.871-15.91l.833-2.241L253 566l3.087-.013 74.258-.327 35.91-.158 31.289-.14 16.576-.072 15.587-.071 5.735-.023 7.801-.038 2.317-.003c3.847.039 3.847.039 7.44-1.155 2.053-.177 4.11-.299 6.168-.395l3.863-.201 2.055-.106c13.359-.708 26.294-2.197 39.431-4.814 3.058-.597 6.126-1.117 9.199-1.631 14.451-2.439 28.458-5.717 42.391-10.272 5.979-1.953 12.01-3.726 18.046-5.49 5.041-1.491 9.949-3.188 14.848-5.092l3.484-1.316 3.266-1.246 3.297-1.254c2.862-1.083 2.862-1.083 5.094-2.336C606 529 606 529 610 529v-2l2.809-.805 3.629-1.07 3.621-1.055c3.058-.731 3.058-.731 3.941-3.07a131.62 131.62 0 0 1 7.313-3.062l2.053-.814c3.173-1.244 6.293-2.427 9.635-3.123v-2l2.161-1.095C660.458 503.132 675.436 495.097 690 486l2.934-1.809L701 479l2.236-1.459c11.223-7.339 22.186-14.894 32.822-23.06l6.098-4.579c6.771-5.03 13.459-10.113 19.949-15.504l8.645-7.045c12.373-9.996 24.32-20.313 35.898-31.221a241.98 241.98 0 0 1 7.852-7.07l7.563-6.75 1.785-1.637c1.347-1.582 1.347-1.582 1.012-3.449-1.219-3.155-3.158-5.058-5.469-7.523l-1.465-1.567c-6.56-6.956-13.38-13.662-20.175-20.387-15.029-14.875-15.029-14.875-20.179-20.957-3.146-3.592-6.603-6.888-10.008-10.231l-4.309-4.246-1.896-1.861C760 309 760 309 760 308z" fill="#e6e7e5"/><path d="M757 153l69.051-.098 42.273-.053 30.795-.037 16.283-.023 15.375-.015 5.596-.012c16.535-.065 33.089.75 49.252 4.488l2.895.655c19.957 4.665 37.793 12.077 54.48 24.095l2.246 1.566c22.947 16.8 38.281 41.25 45.754 68.434l.637 2.241c3.051 11.138 3.728 22.127 3.738 33.634l.005 3.887c-.142 12.081-1.722 23.782-4.693 35.488l-.654 2.599c-1.403 5.339-3.111 10.144-5.834 14.971-1.791 3.256-3.066 6.687-4.402 10.148C1079 357 1079 357 1078 359h-2l-.785 2.184c-7.643 17.718-27.932 35.52-45.215 43.816h-2v2l-4.812 2-2.707 1.125C1018 411 1018 411 1015 411l-1 3c-2.246.92-2.246.92-5.223 1.684l-3.297.866-3.542.887-3.597.928-7.117 1.815-9.731 2.586c-17.761 4.576-35.339 4.51-53.567 4.436l-10.886-.016-20.536-.043-23.413-.043L825 427l1-2h137v-2c3.003-1.502 5.791-1.093 9.125-1.062l3.883.027L979 422l1-3 2.117-.148 2.758-.227 2.742-.211c2.562-.21 2.562-.21 4.383-2.414 2.688-.27 5.291-.087 8 0l1-3h10l1-3h5v-3h5l1-3h5v-3h5l1-3h5l1-5 1.938-.312L1044 392l1-3h5v-5l5-1 1-3 5-1 1-7 4-1-.062-2.437C1066 366 1066 366 1067 365c1.666-.041 3.334-.043 5 0v-8l5-1-.25-3.75c-.012-3.272.077-4.02 2.125-6.75C1081 344 1081 344 1083 344l-.07-2.773-.055-3.602-.07-3.586C1083 331 1083 331 1085 329h3l-.032-1.94-.093-8.747-.051-3.053-.02-2.959-.032-2.714c.258-2.94.793-5.002 2.227-7.587l4-1v-23l-4-2c-2.893-4.613-2.221-10.064-2.125-15.312l.027-2.822L1088 251l-5-1v-14h-5c-1-1-1-1-1.098-3.066l.035-2.496.027-2.504L1077 226l-5-2v-9h-5l-1-6-1.937-.375L1062 208c-1.354-2.709-1.065-5.009-1-8l-2.437.063C1056 200 1056 200 1055 199c-.041-1.666-.043-3.334 0-5h-5v-3l-2.187.313c-4.009-.445-5.311-2.255-7.812-5.312-.812-2.312-.812-2.312-1-4h-5l-1-3h-5v-3h-5l-1-3h-5v-3h-5l-1-3h-9l-1-3h-10l-1-3h-16l-1-3-2.874.032-10.578.078-4.574.041-6.583.044-3.999.032C941 158 941 158 939.273 157.001c-3.292-1.449-6.508-1.271-10.04-1.244l-2.357-.006c-2.566-.004-5.132.007-7.698.018l-5.349.001-11.202.023-14.379.02-11.041.013-5.304.006-7.398.022-2.226-.001c-3.766-.035-3.766-.035-7.281 1.147a65.44 65.44 0 0 1-4.043.316l-2.484.128-2.661.118-2.715.124c-21.605.929-21.605.929-29.097-1.687-2.376-.309-2.376-.309-4.625-.25l-2.227-.016c-2.18.138-2.18.138-4.007 1.266-2.376 1.11-3.94 1.258-6.547 1.266l-2.504.008-2.59-.023-2.59.023-2.504-.008-2.271-.007c-2.415-.293-4.011-1.105-6.135-2.259-2.664-.515-5.295-.729-8-1v3h-5v3c-3.333 3-3.333 3-6 3v5l1.875.313C763 170 763 170 765 173c.21 2.721.304 5.341.306 8.064l.025 2.489.039 8.158.027 5.668.027 11.888.089 15.229.038 11.71.038 5.614.01 7.856.045 2.34c-.055 4.051-.406 5.714-3.131 8.796L760 263c-.88 3.182-.88 3.182-1 6h-5v3l-5 3-1 3h-5l.063 2.438C743 283 743 283 742 284c-1.666.041-3.334.043-5 0v5l-5 1v3h-6v6h-5v6h-6v6h-5v3h-13c3.837-3.946 7.879-7.552 12.063-11.125a643.55 643.55 0 0 0 18.335-16.386l5.329-4.935 3.898-3.617 1.923-1.785c4.654-4.346 9.124-8.828 13.499-13.457C754 261 754 261 757 261V153z" fill="#ebecea"/><path d="M733 503l3.875-.187 2.18-.105L741 503c2.29 3.435 2.178 4.985 2 9l1.938.438C747 513 747 513 748 514l.063 5.063-.027 2.785L748 524h5c1.262 2.525 1.099 4.312 1.063 7.125l-.027 2.758L754 536l5 1v12l4 1c2.762 2.762 2.579 5.207 3 9l4 1v8l2.438.438C775 569 775 569 776 570c.141 2.671.042 5.324 0 8l5 1v11l5 1c1.203 2.405 1.101 3.95 1.063 6.625l-.027 2.477L787 602l5 1v8l2.438.875C797 613 797 613 798 615c.134 2.672.043 5.323 0 8l5 1v9l2.438.938C808 635 808 635 809 636c.141 2.671.042 5.324 0 8h5v9h5c1.262 2.525 1.099 4.312 1.063 7.125l-.027 2.758L820 665l5 1v11l5 1c1.354 2.709 1.065 5.009 1 8l1.938.938C835 688 835 688 836 689l.063 4.563-.027 2.504L836 698l2.438-.062C841 698 841 698 842 699c.141 2.671.042 5.324 0 8l5 1v17H693l-1-3-5-1v-8h-5c-.961-2.882-1.106-4.699-1.062-7.687l.027-2.449L681 701l-5-1v-8l-5-1c-1.283-3.85-1.066-6.947-1-11l-5-1v-11h-5c-1-1-1-1-1.098-2.848L659 659l-5-1v-11l-5-1-.297-1.898-.453-2.477-.422-2.461c-.749-2.687-.749-2.687-4.828-4.164v-9l-4-1c-2.679-4.019-2.156-6.242-2-11l-1.937-.437C633 613 633 613 632 612c-.072-1.686-.084-3.375-.062-5.062l.027-2.785L632 602h-5c-1.478-2.957-1.06-5.742-1-9l-4-1-.367-1.715-.508-2.223-.492-2.215c-.462-2.055-.462-2.055-2.633-2.848v-2l-3-1v-15c5 6.667 5 6.667 5 12h2c8.598 16.945 8.598 16.945 11 26h2l.808 1.708 22.879 46.73 3.26 6.506 6.281 12.529L679 692l14 28 151 1c-1.94-4.526-3.882-8.892-6.074-13.281l-1.763-3.532-1.85-3.687-.943-1.885c-4.228-8.453-8.544-16.847-13.112-25.123C819 671 819 671 819 669h-2l-.672-1.852c-3.284-8.449-7.537-16.242-11.962-24.141-2.707-4.856-5.183-9.701-7.384-14.805-1.783-3.997-3.87-7.836-5.92-11.702l-19.017-36.855-14.296-27.61c-4.352-8.233-8.527-16.539-12.621-24.904-2.452-4.959-4.98-9.587-8.129-14.131-1.622-3.224-2.859-6.576-4-10z" fill="#f2f2f0"/><path d="M470 565v2c-3.823 2.526-7.742 2.275-12.154 2.245l-2.512.007c-2.781.005-5.562-.004-8.344-.012l-5.977.006a5473.4 5473.4 0 0 1-12.878-.002c-6.786-.008-13.571.003-20.357.017l-57.89.044a9126.99 9126.99 0 0 0-31.967.036c-6.748.019-13.495.015-20.242-.004a1973.12 1973.12 0 0 0-12.587.027 641.82 641.82 0 0 1-5.842-.011 552.96 552.96 0 0 0-7.968.021l-2.341-.036c-4.049.069-5.642.383-8.645 3.201L258 575h-5v15h-5l.035 2.117.027 2.758.035 2.742C248 600 248 600 247 602h-5v12h-5l.07 2.52.055 3.293.07 3.27C237 626 237 626 235 629h-4v9h-5l.141 2.266c.297 8.107.297 8.107-2.016 11.422C222 653 222 653 220 653l.105 1.863.082 2.449.105 2.426C220 662 220 662 218.613 663.793 217 665 217 665 215 665l.035 2.117.027 2.758.035 2.742C215 675 215 675 214 677h-5v11l-5 1 .035 1.863.027 2.449.035 2.426C204 698 204 698 203 701h-5v12l-5 1v8h-6v3l-57.839.052-26.854.024-23.397.019-12.396.012-11.654.007-4.29.006-5.832.001-3.304.003C39 725 39 725 38 724c-.152-2.288-.222-4.582-.25-6.875l-.078-3.805C38 710 38 710 39.391 708.055 41 707 41 707 43 707l-.25-2.312c.25-2.687.25-2.687 2.125-4.5C47 699 47 699 49 699c-1 5-1 5-10 22h146v-4h2l.625-2.75c1.33-4.702 3.639-8.872 5.863-13.203 1.709-3.445 3.125-6.94 4.504-10.527 1.504-3.76 3.232-7.411 4.957-11.074A33.14 33.14 0 0 0 205 673h2l.258-2.543c.867-4.04 2.586-7.227 4.617-10.77 2.629-4.747 4.885-9.257 6.438-14.477 2.647-8.514 6.767-16.437 10.811-24.349 2.343-4.641 4.212-9.293 5.888-14.218 2.213-5.922 5.31-11.488 8.273-17.062 2.697-5.178 4.854-10.441 6.871-15.91l.833-2.241L253 566l76.464-.391 35.508-.182 30.972-.158 16.379-.084 15.461-.079 5.631-.029L470 565z" fill="#eaebea"/><path d="M1005 203l2 2 5 2v8h-5l.035 1.863.027 2.449.035 2.426C1007 224 1007 224 1006 227h-5v9h-5l.035 2.773.027 3.602.035 3.586C996 249 996 249 995 251h-5l.141 2.52.109 3.293.141 3.27C990 263 990 263 988.027 264.57L986 266c-.659 2.428-.659 2.428-.687 5.063-.247 4.807-.247 4.807-1.312 6.938h-5v12l-5 2 .035 2.082.027 2.73.035 2.707C974 302 974 302 973 305h-5l.141 2.52.109 3.293.141 3.27C968 317 968 317 966.027 318.57L964 320c-.659 2.428-.659 2.428-.687 5.063-.247 4.807-.247 4.807-1.312 6.938h-5l.105 2.52.082 3.293.105 3.27C957 344 957 344 955.613 345.887 954 347 954 347 952 347l.035 2.52.027 3.293.035 3.27C952 359 952 359 951 362h-5v14l-5 1 .035 1.863.027 2.449.035 2.426C941 386 941 386 940 389l-7.375.188-2.117.076c-2.031.029-2.031.029-5.508-.264-2.136-3.204-2.231-4.019-2.125-7.687l.055-2.449L923 377l-5-1v-15l-5-2c-1.141-3.422-1.098-6.087-1.062-9.687l.027-3.574L912 343h-2v-2l-3-1v-14l-4-1c-2.351-3.527-2.214-5.029-2.125-9.187l.055-3.293.07-2.52-5-2v-3h-5l-1-3h-9l-1-3h-6v-3l-3.875.125c-2.18.07-2.18.07-4.125-.125l-2-2-6-2v-2h-6v-3l-1.898.07-2.477.055-2.461.07C843 287 843 287 841 285c-1.907-.384-1.907-.384-4-.5-3.778-.278-3.778-.278-6-2.5l-7-2v-2l-5-1v-4c3.784.591 7.173 1.783 10.744 3.142l6.807 2.542 2.369.873 2.393.881 2.357.869 2.381.877 2.441.9 5.094 1.837c8.526 3.045 16.862 6.515 25.211 10.013l3.414 1.41 3.386 1.426c3.372 1.327 3.372 1.327 6.935 1.862 3.697.69 6.277 1.359 9.468 3.368 3.162 5.413 4.603 11.083 6.125 17.125l1.336 4.75 3.035 11.217c1.741 6.587 3.842 12.852 6.433 19.15 2.611 6.725 4.65 13.679 6.803 20.561l1.146 3.545 1.018 3.219L929 385l3 1 .383-2.129c.649-3.021 1.519-5.876 2.492-8.809l.992-3.027c1.174-3.145 2.625-6.038 4.133-9.035l2.375-6.25c1.514-4.016 3.111-7.837 5.125-11.625 2.454-4.717 4.081-9.619 5.695-14.665 1.348-4.187 2.916-8.128 4.781-12.104 1.297-2.984 2.336-6.03 3.398-9.105 2.083-5.96 4.58-11.597 7.285-17.297 1.436-3.164 2.53-6.322 3.563-9.633 1.994-5.952 4.488-11.793 7.34-17.383 1.742-3.56 3-7.213 4.277-10.961.928-2.381 1.932-4.536 3.102-6.797 2.096-4.111 3.609-8.306 5.059-12.68 1.677-5.058 3.56-9.778 6.01-14.514 1.619-3.247 2.924-6.608 4.24-9.986l.813-2.059L1005 203z" fill="#ebebe9"/><path d="M498 47h6c2 2 2 2 2.125 5.125L506 55l2.438.375L511 56c1.442 2.884 1.094 5.417 1.063 8.625l-.027 3.602L512 71h5v9l5 2 1 7 1.938.438C527 90 527 90 528 91v7l5 1 2 13 4 1v9l5 1c1.283 3.85 1.066 6.947 1 11h5v9h5c1.262 2.525 1.099 4.312 1.063 7.125l-.027 2.758L556 155l5 1v11h5c1 1 1 1 1.098 2.848L567 176l5 1v8l5 1c1.283 3.85 1.066 6.947 1 11l1.938.438C582 198 582 198 583 199c.072 1.686.084 3.375.063 5.063l-.027 2.785L583 209h5c1.478 2.957 1.06 5.742 1 9l5 1v8l1.875.313C598 228 598 228 600 231c.195 2.699.195 2.699.125 5.688l-.055 3.012L600 242l5 1v11h5c1 1 1 1 1.098 2.848L611 263l5 1v8h5c1.262 2.525 1.099 4.312 1.063 7.125l-.027 2.758L622 284l5 1v11h5c1.478 2.957 1.06 5.742 1 9l5 1v8l2.438.375L643 315c1.478 2.957 1.06 5.742 1 9l5 2v9l2.438.375L654 336c1.148 2.297 1.116 3.583 1.098 6.133l-.01 2.441-.025 2.551-.014 2.574L655 356h-6v6h-5l-1 3h-5v3h-5l-1 3h-5v3l-3-1c.488-3.925.963-6.083 3.976-8.748 2.585-1.763 5.212-3.4 7.899-5.002l5.43-3.359 2.437-1.468c2.179-1.373 4.221-2.848 6.258-4.423-1.403-7.322-4.491-13.275-8-19.812l-1.778-3.366L635 317l-4.875-9.187-1.174-2.214c-4.287-8.141-8.343-16.397-12.432-24.638-4.191-8.434-8.513-16.762-13.159-24.956-3.711-6.558-7.075-13.268-10.392-20.032L588 225.938l-1-2.008c-2.559-5.11-5.235-10.152-7.944-15.184a464.95 464.95 0 0 1-6.626-12.847l-1.021-2.048-7.34-14.766-5.534-11.126-2.851-5.742-4.176-8.396-1.285-2.601-1.195-2.391-1.044-2.101c-.983-1.903-.983-1.903-2.984-3.727-.856-2.632-1.389-5.295-2-8h-2l-1.277-3.051c-1.623-3.783-3.425-7.465-5.285-11.137l-1.02-2.03-4.765-9.44-4.153-8.217-1.35-2.649-1.244-2.468-1.115-2.199C520 92 520 92 520 90h-2l-1.5-3.875-.844-2.18C515 82 515 82 515 80h-2l-1.219-2.977c-2.151-5.022-4.816-9.758-7.465-14.531C501.598 57.476 499.634 52.465 498 47z" fill="#f0f0ef"/><path d="M980 47l12.708-.11 4.324-.041 6.21-.044 3.777-.032C1010 47 1010 47 1012 49l8.125.625 2.285.117L1028 50l1 3 2.773-.035 3.602-.027 3.586-.035C1042 53 1042 53 1044 54v2l1.898-.035 2.477-.027 2.461-.035C1053 56 1053 56 1055 57v2l5.957-.195C1063 59 1063 59 1066 61l7 2v2h9l1 3h6v3h6l1 2c1.895.465 1.895.465 4.063.625L1104 74l1 3h6v3h5l1 3h5v3h5l1 3 5 1v2l5 1 1 5h5v3h5l1 3h5v6h6v3h5v6l2.438-.062C1171 119 1171 119 1172 120v5h5v6l2.438-.062C1182 131 1182 131 1183 132v5h5v6l2.438-.062C1193 143 1193 143 1194 144v5l5 1v8l5 1c1.158 3.473 1.069 6.361 1 10l5 1v6l2.438.875C1215 178 1215 178 1216 180c.134 2.672.043 5.323 0 8l5 1v14l5 1c1.187 3.56 1.097 6.438 1.063 10.188l-.027 3.855L1227 221l1.938.375L1231 222c2.105 4.21 1.449 9.627 1.613 14.266l.257 6.083.143 3.889.139 3.564c-.151 3.201-.772 5.33-2.151 8.198h-1l-.228-1.769-1.085-8.106-.357-2.781c-.761-5.543-1.895-10.733-3.635-16.053-.738-2.435-1.237-4.852-1.695-7.353-.748-3.942-1.779-7.638-3.124-11.416-.595-1.712-1.163-3.433-1.708-5.161-2.403-7.578-5.435-14.658-8.918-21.798l-1.617-3.33c-3.802-7.736-7.779-15.097-12.633-22.232l-1.246-1.9c-20.071-30.571-48.641-53.637-80.578-70.921l-4.539-2.478c-12.564-6.93-12.564-6.93-25.996-11.884-2.629-.813-5.071-1.88-7.588-2.985-4.216-1.708-8.586-2.983-12.928-4.332l-5.68-1.781-2.774-.867-7.522-2.508c-3.205-1.075-6.294-1.859-9.648-2.344l-14.937-2.5c-13.821-2.443-27.59-4.191-41.562-5.5v-1z" fill="#ededec"/><path d="M556 47h4l1.421 2.858 5.25 10.539 2.267 4.554 3.269 6.561 1.014 2.043c1.789 3.579 3.715 7.02 5.779 10.445.864 2.647 1.399 5.273 2 8h2l1.035 2.085 16.59 32.665c5.989 11.222 11.597 22.64 17.249 34.034l11.802 23.071c6.574 12.392 12.791 24.965 19.046 37.52l4.843 9.705 7.137 14.308L664 252l.927 1.86 2.826 5.662 1.694 3.395L676 275.5l10.391 20.336c2.058 4.045 4.318 7.961 6.641 11.859 1.104 2.626.98 3.692-.031 6.305l-1-3h-5v-9l-5-1c-1.283-3.85-1.066-6.947-1-11l-5-1v-8l-2.437-.375L671 280c-1.203-2.405-1.101-3.95-1.062-6.625l.027-2.477L670 269l-5-1-.586-6.152L664 260l-2-1v-2l-3-1v-8l-5-1v-11h-5c-1-1-1-1-1.098-2.848L648 227l-5-1v-11h-5c-1.478-2.957-1.06-5.742-1-9l-5-1v-11h-5c-1.262-2.525-1.099-4.312-1.062-7.125l.027-2.758L626 182h-5l-.043-1.828c-.148-2.48-.359-4.758-.957-7.172l-5-4c-.456-2.795-.238-5.146 0-8l-5-1v-8l-1.875-.375C606 151 606 151 604 149c-.125-3.125-.125-3.125 0-6l-1.937-.437C600 142 600 142 599 141c-.072-1.686-.084-3.375-.062-5.062l.027-2.785L599 131l-2.437-.375L594 130c-1.203-2.405-1.101-3.95-1.062-6.625l.027-2.477L593 119l-5-1v-11l-5-1c-1.478-2.957-1.06-5.742-1-9l-5-2v-9l-5-1c-1.283-3.85-1.066-6.947-1-11l-5-1v-8l-2.437-.375L561 64c-1.354-2.709-1.065-5.009-1-8l-5-1c-.042-2.333-.041-4.667 0-7l1-1z" fill="#dfdfdf"/><path d="M457 245c2.716 3.313 4.433 6.788 6.23 10.668l.931 1.997 1.987 4.279 5.382 11.544 1.122 2.4 11.534 23.987L498.25 329.5c6.299 13.7 12.922 27.237 19.553 40.779l2.537 5.182 1.236 2.524L535 406c5.133.228 8.947-.389 13.75-2.187l3.676-1.371c3.227-1.302 6.367-2.704 9.512-4.191 4.117-1.943 7.529-2.948 12.063-3.25v-2l2.055-.664c6.124-2.087 11.365-4.577 16.754-8.164C595 383 595 383 599 383v-2h4v-2l9.813-5.437 2.814-1.564 2.705-1.494 2.491-1.381C623 368 623 368 626 367l-2 7h-2v3h-6v3h-5v3h-6v3h-5v3h-6v3h-5v3h-6v3h-6v3l-3.437.938c-3.35.692-3.35.692-4.562 2.063-2.671.141-5.324.042-8 0v3l-2.437.375L556 408l-1 2h-21l-1-3-2.437-.375L528 406c-1.203-2.405-1.101-3.95-1.062-6.625l.027-2.477L527 395l-5-1v-11h-5c-1.283-3.85-1.066-6.947-1-11l-5-1-.043-2.082c-.144-2.724-.341-5.258-.957-7.918a113.16 113.16 0 0 0-5-3c-.471-2.787-.233-5.152 0-8l-1.937-.437C501 349 501 349 500 348c-.072-1.686-.084-3.375-.062-5.062l.027-2.785L500 338l-2.437-.375L495 337c-1.203-2.405-1.101-3.95-1.062-6.625l.027-2.477L494 326l-5-1v-11h-5c-1-1-1-1-1.098-2.848L483 305l-1.937-.937C479 303 479 303 478 302c-.072-1.519-.084-3.042-.062-4.562l.027-2.504L478 293l-2.437-.375L473 292c-1.203-2.405-1.101-3.95-1.062-6.625l.027-2.477L472 281l-5-1-.043-1.863c-.146-2.471-.344-4.736-.957-7.137l-5-3c-.47-2.787-.234-5.151 0-8l-1.937-.937C457 258 457 258 456 257c-.099-1.456-.13-2.916-.125-4.375l-.008-2.398C456 248 456 248 457 245z" fill="#d9d8d7"/><path d="M701 480l-2 4 2 1c0 3 0 3-1.187 4.688-2.37 1.716-3.953 1.544-6.812 1.313v3h-5l-1 3h-5v3h-5l-1 3h-5v3h-5v3h-6v3h-5v3h-6v3h-5l-1 3h-5l-1 3h-10v3h-5v3h-6v3l-3.375.375c-3.656.272-3.656.272-5.625 2.625h-7v3l-3.375.375c-3.656.272-3.656.272-5.625 2.625-2.688.27-5.291.087-8 0v3l-3.312.375c-3.761.38-3.761.38-6.687 2.625l-3.125.5-2.875.5-1 2h-10l-1 3-2.152.148-2.785.227-2.777.211L545 555l-1 2h-16v3l-2.555.148-3.32.227-3.305.211c-2.951.147-2.951.147-4.82 2.414a105.89 105.89 0 0 1-7.437.5c-5.566.12-5.566.12-10.562 2.5-2.458.243-2.458.243-5.383.23l-3.266-.004-3.476-.039-3.527-.02c-9.14-.081-18.236-.457-27.348-1.168v-1l2.481-.12c16.587-.84 32.715-2.144 49.035-5.395 3.058-.597 6.126-1.117 9.199-1.631 14.451-2.439 28.458-5.717 42.391-10.272 5.979-1.953 12.01-3.726 18.046-5.49 5.041-1.491 9.949-3.188 14.848-5.092l3.484-1.316 3.266-1.246 3.297-1.254c2.862-1.083 2.862-1.083 5.094-2.336C606 529 606 529 610 529v-2l2.809-.805 3.629-1.07 3.621-1.055c3.058-.731 3.058-.731 3.941-3.07a131.62 131.62 0 0 1 7.313-3.062l2.053-.814c3.173-1.244 6.293-2.427 9.635-3.123v-2l2.161-1.095c17.86-9.076 35.49-18.355 51.987-29.786C699 480 699 480 701 480z" fill="#e3e3e2"/><path d="M368 318h1l.125 5.313.07 2.988C369 329 369 329 367 332h-4v9l-5 2 .105 2.082.082 2.73.105 2.707C358 353 358 353 356.676 354.824 355 356 355 356 352 356v11l-5 1 .176 2.266c.136 2.979.187 5.772-.176 8.734l-5 4c-.453 2.362-.562 4.574-.566 6.977L341 392l-1.996.996L337 394c-.552 2.093-.552 2.093-.5 4.438-.286 4.334-.286 4.334-2.437 6.625C332 406 332 406 330 406l.105 2.082.082 2.73.105 2.707c-.293 2.48-.293 2.48-1.68 4.305C327 419 327 419 325 419l.035 2.117.027 2.758.035 2.742C325 429 325 429 324 431h-5v12h-5v15h115v1c-7.655.827-15.2 1.14-22.897 1.114h-3.433l-11.119-.016-7.755-.004-18.252-.021-20.801-.022L302 460c.732-4.065 1.944-7.147 3.875-10.812 2.073-4.037 3.908-7.992 5.418-12.266 1.37-3.724 3.072-7.308 4.707-10.922l1.75-4c1.621-3.655 3.317-7.27 5.029-10.882 5.793-12.224 11.274-24.487 16.033-37.153 1.478-3.689 3.242-7.178 5.07-10.703 1.02-2.064 1.847-4.095 2.617-6.262 1.415-3.979 3.275-7.666 5.219-11.41 1.882-3.805 3.504-7.712 5.127-11.632l2.654-6.333.895-2.191c.787-1.848 1.689-3.646 2.605-5.434l3-1v2h2v-3z" fill="#f0f0ef"/><path d="M1072 213c10.542 9.301 15.386 25.853 19 39l.637 2.241c3.051 11.138 3.728 22.127 3.738 33.634l.005 3.887c-.142 12.081-1.722 23.782-4.693 35.488l-.654 2.599c-1.403 5.339-3.111 10.144-5.834 14.971-1.791 3.256-3.066 6.687-4.402 10.148C1079 357 1079 357 1078 359h-2l-.785 2.184c-7.643 17.718-27.932 35.52-45.215 43.816h-2v2l-4.812 2-2.707 1.125C1018 411 1018 411 1015 411l-1 3c-2.246.92-2.246.92-5.223 1.684l-3.297.866-3.542.887-3.597.928-7.117 1.815-9.731 2.586c-17.761 4.576-35.339 4.51-53.567 4.436l-10.886-.016-20.536-.043-23.413-.043L825 427l1-2h137v-2c3.003-1.502 5.791-1.093 9.125-1.062l3.883.027L979 422l1-3 2.117-.148 2.758-.227 2.742-.211c2.562-.21 2.562-.21 4.383-2.414 2.688-.27 5.291-.087 8 0l1-3h10l1-3h5v-3h5l1-3h5v-3h5l1-3h5l1-5 1.938-.312L1044 392l1-3h5v-5l5-1 1-3 5-1 1-7 4-1-.062-2.437C1066 366 1066 366 1067 365c1.666-.041 3.334-.043 5 0v-8l5-1-.25-3.75c-.012-3.272.077-4.02 2.125-6.75C1081 344 1081 344 1083 344l-.07-2.773-.055-3.602-.07-3.586C1083 331 1083 331 1085 329h3l-.032-1.94-.093-8.747-.051-3.053-.02-2.959-.032-2.714c.258-2.94.793-5.002 2.227-7.587l4-1v-23l-4-2c-2.893-4.613-2.221-10.064-2.125-15.312l.027-2.822L1088 251l-5-1v-14h-5c-1-1-1-1-1.098-3.066l.035-2.496.027-2.504L1077 226l-5-2v-11z" fill="#dcdbda"/><path d="M470 565v2c-3.823 2.526-7.742 2.275-12.154 2.245l-2.512.007c-2.781.005-5.562-.004-8.344-.012l-5.977.006a5473.4 5473.4 0 0 1-12.878-.002c-6.786-.008-13.571.003-20.357.017l-57.89.044a9126.99 9126.99 0 0 0-31.967.036c-6.748.019-13.495.015-20.242-.004a1973.12 1973.12 0 0 0-12.587.027 641.82 641.82 0 0 1-5.842-.011 552.96 552.96 0 0 0-7.968.021l-2.341-.036c-4.049.069-5.642.383-8.645 3.201L258 575h-5v15h-5l.035 2.117.027 2.758.035 2.742C248 600 248 600 247 602h-5v12h-5l.07 2.52.055 3.293.07 3.27C237 626 237 626 235 629h-4l-.625 1.875c-1.923 2.972-4.041 3.255-7.375 4.125 2.117-5.474 4.575-10.796 6.99-16.143 1.638-3.655 3.207-7.303 4.584-11.064 1.226-3.344 2.675-6.495 4.301-9.668l1.586-3.133 2.828-5.422c2.699-5.172 4.851-10.433 6.867-15.898l.833-2.241L253 566l76.464-.391 35.508-.182 30.972-.158 16.379-.084 15.461-.079 5.631-.029L470 565z" fill="#efefed"/><path d="M615 565c5 6.667 5 6.667 5 12h2c8.598 16.945 8.598 16.945 11 26h2l.808 1.708 22.879 46.73 3.26 6.506 6.281 12.529L679 692l14 28 151 1 1-2v3l-61.359.052-28.488.024-24.821.019-13.151.012-12.363.007-4.551.006-6.187.001-3.506.003C688 722 688 722 687 721c-.141-2.671-.042-5.324 0-8h-5c-.961-2.882-1.106-4.699-1.062-7.687l.027-2.449L681 701l-5-1v-8l-5-1c-1.283-3.85-1.066-6.947-1-11l-5-1v-11h-5c-1-1-1-1-1.098-2.848L659 659l-5-1v-11l-5-1-.297-1.898-.453-2.477-.422-2.461c-.749-2.687-.749-2.687-4.828-4.164v-9l-4-1c-2.679-4.019-2.156-6.242-2-11l-1.937-.437C633 613 633 613 632 612c-.072-1.686-.084-3.375-.062-5.062l.027-2.785L632 602h-5c-1.478-2.957-1.06-5.742-1-9l-4-1-.367-1.715-.508-2.223-.492-2.215c-.462-2.055-.462-2.055-2.633-2.848v-2l-3-1v-15z" fill="#c5c5c5"/><path d="M769 154l69.112-.052 32.098-.024 28.012-.019 14.8-.012 50.346.475 2.826.088c27.323 1.18 54.749 11.658 76.806 27.543l2.246 1.566c9.942 7.279 20.172 16.98 26.754 27.434v4h-5l-1-6-1.937-.375L1062 208c-1.354-2.709-1.065-5.009-1-8l-2.437.063C1056 200 1056 200 1055 199c-.041-1.666-.043-3.334 0-5h-5v-3l-2.187.313c-4.009-.445-5.311-2.255-7.812-5.312-.812-2.312-.812-2.312-1-4h-5l-1-3h-5v-3h-5l-1-3h-5v-3h-5l-1-3h-9l-1-3h-10l-1-3h-16l-1-3-2.874.032-10.578.078-4.574.041-6.583.044-3.999.032C941 158 941 158 939.273 157.001c-3.292-1.449-6.508-1.271-10.04-1.244l-2.357-.006c-2.566-.004-5.132.007-7.698.018l-5.349.001-11.202.023-14.379.02-11.041.013-5.304.006-7.398.022-2.226-.001c-3.766-.035-3.766-.035-7.281 1.147a65.44 65.44 0 0 1-4.043.316l-2.484.128-2.661.118-2.715.124c-21.605.929-21.605.929-29.097-1.687-2.376-.309-2.376-.309-4.625-.25l-2.227-.016c-2.18.138-2.18.138-4.007 1.266-2.376 1.11-3.94 1.258-6.547 1.266l-2.504.008-2.59-.023-2.59.023-2.504-.008-2.271-.007c-2.415-.293-4.007-1.112-6.135-2.259-2.356-.448-2.356-.448-4.75-.625l-2.422-.227L769 155v-1z" fill="#f8f8f5"/><path d="M760 308h9l1 5 2.438.438C775 314 775 314 776 315v5h5v6h5l1 6h5v6l2.188-.312c4.009.445 5.311 2.255 7.813 5.313.813 2.313.813 2.313 1 4l1.875.375C807 348 807 348 809 350v3l5 1v5l2.438-.062C819 359 819 359 820 360v5h5v3l2.438.375L830 369c1.533 3.065 1.103 6.268 1.063 9.625l-.014 2.141L831 386l-6 2v4h-5l-.187 1.875C819 396 819 396 816.438 397.25L814 398v3h-5v3l-4 1c.152-5.014 2.927-7.334 6.309-10.645C813 393 813 393 815 393l.75-1.625c2.075-3.942 4.27-7.474 7.563-10.5L825 379c-.246-4.124-2.894-6.401-5.609-9.297l-1.465-1.567c-6.56-6.956-13.38-13.662-20.175-20.387-15.029-14.875-15.029-14.875-20.179-20.957-3.146-3.592-6.603-6.888-10.008-10.231l-4.309-4.246-1.896-1.861C760 309 760 309 760 308z" fill="#ededeb"/><path d="M330 89h4c-.386 5.023-2.194 8.334-4.672 12.578-1.762 3.212-3.049 6.537-4.367 9.949-2.139 5.504-4.522 10.786-7.461 15.91-2.663 4.679-4.595 9.538-6.5 14.563l-2 5h-2l-.551 1.941c-1.512 5.203-3.199 10.13-5.449 15.059h-2l-.445 1.766c-2.228 8.145-5.703 15.591-10.121 22.785-1.406 2.401-2.402 4.72-3.371 7.324-1.175 3.028-2.383 5.845-4.062 8.625-2.13 3.528-3.518 7.248-4.996 11.086-.891 2.143-1.874 4.053-3.066 6.039-1.731 3.016-2.891 5.935-4.083 9.186-1.417 3.632-3.159 7.088-4.917 10.564l-1.064 2.152c-1.418 2.825-2.623 5.222-4.873 7.473v-11l5-1-.125-3.75c-.012-3.266.268-5.465 2.125-8.25h4l-.07-2.117-.055-2.758-.07-2.742C269 217 269 217 271 215h3l-.312-3.75c-.016-2.242-.016-2.242.313-4.25l2.438-1.875c2.765-1.841 2.765-1.841 3.047-4.516.133-1.787.227-3.576.277-5.367C280 193 280 193 282 191h3l-.25-3.812c-.014-3.906-.014-3.906 2.125-6.187 2.125-1 2.125-1 4.125-1l-.141-2.082-.109-2.73-.141-2.707c.391-2.48.391-2.48 2.367-4.082L295 167c.407-2.322.744-4.657 1-7l2-2h4v-11l5-1-.07-1.863-.055-2.449-.07-2.426C307 137 307 137 309 134h4l-.07-2.117-.055-2.758-.07-2.742C313 124 313 124 315 122h3l-.07-1.863-.055-2.449-.07-2.426C318 113 318 113 320 110h4l-.105-1.863-.082-2.449-.105-2.426C324 101 324 101 325.387 99.207 327 98 327 98 329 98l-.062-3.937A59.19 59.19 0 0 1 329 90l1-1z" fill="#ddd"/><path d="M624 367h2l-2 7h-2v3h-6v3h-5v3h-6v3h-5v3h-6v3h-5v3h-6v3h-6v3l-3.437.938c-3.35.692-3.35.692-4.562 2.063-2.671.141-5.324.042-8 0v3l-2.437.375L556 408l-1 2h-21c3.03-2.02 5.561-2.965 9-4.125 7.016-2.439 13.811-5.278 20.602-8.284l2.344-1.017 2.079-.919C570 395 570 395 574 395v-2l2.055-.664c6.124-2.087 11.365-4.577 16.754-8.164C595 383 595 383 599 383v-2h4v-2l1.82-.994 8.117-4.444 2.865-1.564 2.725-1.494 2.523-1.381c1.889-.976 1.889-.976 2.949-2.123z" fill="#e6e6e4"/><path d="M1206 668h4v6l5 2 .25 3.375c.324 3.672.324 3.672 2.75 5l2 .625c1 1 1 1 1.063 4.063L1221 692l2.438.375L1226 693c1.354 2.709 1.065 5.009 1 8h5v7l1.875.375C1236 709 1236 709 1238 711v5l4 1v4c-1 1-1 1-3.559 1.123l-3.483-.003-3.982.004-4.409-.011a8353.02 8353.02 0 0 0-4.611 0c-4.186 0-8.372-.006-12.557-.013l-13.109-.008-24.841-.021-28.273-.022L1085 722v-1h151c-2.759-4.828-5.477-9.341-8.625-13.875l-1.195-1.758c-2.115-3.194-2.115-3.194-5.18-5.367l-2-5a98.6 98.6 0 0 0-3.187-4.625l-1.855-2.617-4.008-5.641-1.949-2.867-1.812-2.609c-1.484-3.301-1.075-5.192-.187-8.641z" fill="#cececd"/><path d="M1082 720l3 1 6.169.158 3.914.03 4.303.017 4.523.03 12.29.068 12.84.076 24.32.138 27.685.16L1238 722v3h-154l-2-5z" fill="#f5f6f5"/><path d="M980 47l12.708-.11 4.324-.041 6.21-.044 3.777-.032C1010 47 1010 47 1012 49l8.125.625 2.285.117L1028 50l1 3 2.773-.035 3.602-.027 3.586-.035C1042 53 1042 53 1044 54v2l1.898-.035 2.477-.027 2.461-.035C1053 56 1053 56 1055 57v2l5.957-.195C1063 59 1063 59 1066 61l7 2v2h9l1 3h6v3h6l1 2c1.895.465 1.895.465 4.063.625L1104 74l1 3h6v3h5l1 3h5v3l4 1h-2v3c-3.754-1.438-7.312-3.111-10.895-4.934l-3.396-1.717-7.008-3.562c-5.826-2.942-11.546-5.621-17.701-7.787l-5.125-2.25c-8.543-3.601-17.436-6.192-26.285-8.931l-7.422-2.468c-3.212-1.078-6.306-1.866-9.668-2.352l-14.937-2.5c-13.821-2.443-27.59-4.191-41.562-5.5v-1z" fill="#e0e0df"/><path d="M966 155c6.583-.263 12.46.685 18.875 2.125l3.059.682c20.193 4.649 38.189 12.038 55.066 24.193l2.246 1.566c9.942 7.279 20.172 16.98 26.754 27.434v4h-5l-1-6-1.937-.375L1062 208c-1.354-2.709-1.065-5.009-1-8l-2.437.063C1056 200 1056 200 1055 199c-.041-1.666-.043-3.334 0-5h-5v-3l-2.187.313c-4.009-.445-5.311-2.255-7.812-5.312-.812-2.312-.812-2.312-1-4h-5l-1-3h-5v-3h-5l-1-3h-5v-3h-5l-1-3h-9l-1-3h-10l-1-3h-16l-2-4c-3.059-.816-3.059-.816-6-1v-1z" fill="#eeeeed"/><path d="M1163 605h3v6l2.438.375L1171 612c1.354 2.709 1.065 5.009 1 8l5 1v8h5l1 6 5 1v6l2.438.938C1193 644 1193 644 1194 645v5l5 1v8h5l3 12-3 2-1.504-2.273-2.059-3.102-2.004-3.023-5.625-8.156-11.96-17.394-3.646-5.356-5.974-8.873-3.905-5.692-2.55-3.771-1.239-1.755c-1.1-1.652-1.1-1.652-2.535-4.605.764-2.397.764-2.397 2-4z" fill="#f0f1f0"/><path d="M360.555 43.88l3.578-.004 3.945.011h4.139l11.255.013 11.755.008 22.269.021 25.349.022L495 44v2l-140 1c-4.183 8.366-7.826 15.692-10.859 24.355-1.096 2.54-2.042 3.89-4.141 5.645l-.25-5.312-.141-2.988C340 66 340 66 341.891 64.145 344 63 344 63 346 63V50l5-1c1.225-1.95 1.225-1.95 2-4 2.639-1.319 4.599-1.123 7.555-1.12z" fill="#d9d9d6"/><path d="M819 273c3.784.591 7.173 1.783 10.744 3.142l6.807 2.542 2.369.873 2.393.881 2.357.869 2.381.877 2.441.9 5.094 1.837c8.526 3.045 16.862 6.515 25.211 10.013 7.621 3.148 15.28 5.783 23.203 8.066l1 9h-2v-2l-5-2v-3h-5l-1-3h-9l-1-3h-6v-3l-3.875.125c-2.18.07-2.18.07-4.125-.125l-2-2c-1.984-.714-3.983-1.386-6-2v-2h-6v-3l-1.898.07-2.477.055-2.461.07C843 287 843 287 841 285c-1.907-.384-1.907-.384-4-.5-3.778-.278-3.778-.278-6-2.5-2.318-.719-4.651-1.391-7-2v-2l-5-1v-4z" fill="#efefef"/><path d="M903 309c1.978 2.966 2.815 5.242 3.84 8.629l1.033 3.389 1.064 3.545 1.053 3.463 3.792 12.693c1.442 4.984 3.171 9.727 5.143 14.523 2.624 6.732 4.697 13.681 6.896 20.561l1.156 3.545 1.034 3.219c.739 2.583.739 2.583 2.99 3.433v3c-2.875.188-2.875.188-6 0-2.136-3.204-2.231-4.019-2.125-7.687l.055-2.449L923 377l-5-1v-15l-5-2c-1.141-3.422-1.098-6.087-1.062-9.687l.027-3.574L912 343h-2v-2l-3-1v-14l-4-1c-2.209-3.314-2.225-4.345-2.125-8.187l.055-2.73L901 312h2v-3z" fill="#ececea"/><path d="M776 464l4 1-.609 1.762c-.478 2.742.013 3.656 1.359 6.051 1.623 3.014 3.072 6.023 4.391 9.188 1.541 3.585 3.218 7.11 4.871 10.645C791 495 791 495 791 497h2l4.438 8.625 1.275 2.449c2.194 4.318 3.851 8.023 4.287 12.926h2l2.563 4.875 1.441 2.742L810 531l-1 2h-6l-.078-1.898-.172-2.477-.141-2.461c-.396-2.341-.396-2.341-2.594-3.391L798 522c-1-1-1-1-1.098-3.066l.035-2.496.027-2.504L797 512l-1.875-.312C793 511 793 511 791 508c-.258-2.695-.089-5.285 0-8l-5-1v-11h-5c-1-1-1-1-1.098-2.848L780 479l-5-1-.062-6.437-.035-3.621C775 465 775 465 776 464z" fill="#e3e3e2"/><path d="M1085 329h3c-1.182 10.876-5.258 20.209-10 30h-2l-.785 2.184c-7.643 17.718-27.932 35.52-45.215 43.816h-2v-4h5l1-3h5l1-5 1.938-.312L1044 392l1-3h5v-5l5-1 1-3 5-1 1-7 4-1-.062-2.437C1066 366 1066 366 1067 365c1.666-.041 3.334-.043 5 0v-8l5-1-.25-3.75c-.012-3.272.077-4.02 2.125-6.75C1081 344 1081 344 1083 344l-.07-2.773-.055-3.602-.07-3.586C1083 331 1083 331 1085 329z" fill="#e0e1de"/><path d="M748 311l2 1c-5.724 6.855-11.17 12.503-19.074 16.762-3.388 2.179-6.195 5.034-9.145 7.762-3.38 3.009-6.931 5.735-10.542 8.461-4.507 3.416-8.876 6.981-13.24 10.578C679.197 371 679.197 371 676 371v-5l5-1 1-3h5l1-5 1.938-.312L692 356l1-3h5v-5l5-1 1-3h5v-3h5l1-5 5-1v-3h5l1-5 5-1v-3h5l-.062-2.437C736 318 736 318 737 317c1.666-.041 3.334-.043 5 0v-3h5l1-3z" fill="#e3e2df"/><path d="M461.688 564.938l2.486.014L470 565v2c-3.141 1.836-5.416 2.248-9.037 2.241l-3.076.008-3.357-.022-3.549.001-11.622-.033-8.054-.009-19.039-.043-21.678-.043L346 569v-2l3.137-.031 29.518-.308 15.169-.158 14.686-.156 5.555-.056c10.994-.104 21.943-.425 32.919-1.074 4.903-.284 9.794-.335 14.704-.28z" fill="#f7f7f5"/><path d="M187 392h5c-1.046 4.967-2.226 8.653-4.926 13.008-1.786 3.313-2.871 6.875-4.047 10.441C182 418 182 418 180.566 419.895c-2.088 2.806-3.262 5.889-4.566 9.105l-3.5 8.125-.895 2.09c-1.641 3.781-3.454 7.261-5.605 10.785-.519 1.255-1.002 2.526-1.437 3.813-1.533 4.25-3.493 8.178-5.562 12.188l-2.75 5.5L154 476h-1l-.062-4.875-.035-2.742C153 466 153 466 154 464h5v-11l5-1-.035-2.371-.027-3.066-.035-3.059C164 441 164 441 165 440h5v-11l5-1-.07-1.863-.055-2.449-.07-2.426C175 419 175 419 177 416h4v-11l5-1-.035-2.117-.027-2.758-.035-2.742C186 394 186 394 187 392z" fill="#cdcdcc"/><path d="M615 565c5 6.667 5 6.667 5 12h2c8.598 16.945 8.598 16.945 11 26h2l5.063 10.313 1.471 2.959 1.377 2.842 1.285 2.618C645 624 645 624 644 627c-3.653-1.25-4.781-1.671-7-5-.258-2.695-.089-5.285 0-8l-1.937-.437C633 613 633 613 632 612c-.072-1.686-.084-3.375-.062-5.062l.027-2.785L632 602h-5c-1.478-2.957-1.06-5.742-1-9l-4-1-.367-1.715-.508-2.223-.492-2.215c-.462-2.055-.462-2.055-2.633-2.848v-2l-3-1v-15z" fill="#e0e1e0"/><path d="M220 323h5c-1.475 4.897-3.534 9.231-5.875 13.75-3.047 5.981-5.721 11.981-8.125 18.25-2.183 5.337-4.724 10.382-7.5 15.438-2.588 4.728-4.75 9.427-6.66 14.461-1.022 2.557-2.261 4.846-3.84 7.102h-1v-11l5-1-.187-3.75c0-2.897.122-4.125 1.5-6.75C200 368 200 368 203 368l-.07-1.863-.055-2.449-.07-2.426C203 359 203 359 205 356h3l-.07-1.863-.055-2.449-.07-2.426C208 347 208 347 210 344h4l-.105-1.863-.082-2.449-.105-2.426c.293-2.262.293-2.262 1.68-4.055C217 332 217 332 219 332l-.062-3.375C219 325 219 325 220 323z" fill="#dcdcdb"/><path d="M529 555l-1 5-2.555.148-3.32.227-3.305.211c-2.951.147-2.951.147-4.82 2.414l-7.437.5c-5.566.12-5.566.12-10.562 2.5-2.458.243-2.458.243-5.383.23l-3.266-.004-3.476-.039-3.527-.02c-9.14-.081-18.236-.457-27.348-1.168v-1l2.481-.12c16.565-.838 32.679-2.135 48.978-5.377l12.166-2.252 2.064-.386c3.482-.633 6.771-.999 10.311-.864z" fill="#e3e3e2"/><path d="M79.563 628.938L82 629c-.661 3.409-2.006 5.949-3.75 8.938-2.897 5.178-4.984 10.438-7.031 15.996-1.394 3.507-3.13 6.644-5.035 9.891-1.272 2.339-2.233 4.69-3.184 7.176-1.611 4.207-3.595 8.007-5.84 11.906-1.633 2.946-2.869 5.983-4.16 9.094l-3 6h-1c-.108-1.436-.186-2.874-.25-4.312l-.141-2.426c.529-3.063 1.956-3.457 4.391-5.262.834-2.419.834-2.419 1.125-5.062.683-4.745.683-4.745 2.875-6.937h3l-.07-2.117-.055-2.758-.07-2.742C60 664 60 664 62 662h3l-.25-3.812c-.014-3.906-.014-3.906 2.125-6.187C69 651 69 651 71 651l-.105-2.082-.082-2.73-.105-2.707C71 641 71 641 72.387 639.176 74 638 74 638 76 638l-.062-3.937A59.19 59.19 0 0 1 76 630c1-1 1-1 3.563-1.062z" fill="#d3d3d2"/><path d="M303 455l1 3h125v1c-7.655.827-15.2 1.14-22.897 1.114h-3.433l-11.119-.016-7.755-.004-18.252-.021-20.801-.022L302 460l1-5z" fill="#b5b6b2"/><path d="M1005 203l2 2 5 2v8h-5l.035 1.863.027 2.449.035 2.426C1007 224 1007 224 1006 227h-5v9h-5l-1 2c-1.471-5.521-.352-8.995 1.625-14.125l.829-2.244A375.2 375.2 0 0 1 1005 203z" fill="#f2f2f1"/><path d="M457 245c2.958 3.547 4.801 7.527 6.723 11.688l1.049 2.241 3.291 7.072 3.302 7.072 2.047 4.394a157.07 157.07 0 0 0 3.806 7.812c1.166 2.564.909 4.951.783 7.723-2.437-.375-2.437-.375-5-1-1.203-2.405-1.101-3.95-1.062-6.625l.027-2.477L472 281l-5-1-.043-1.863c-.146-2.471-.344-4.736-.957-7.137l-5-3c-.47-2.787-.234-5.151 0-8l-1.937-.937C457 258 457 258 456 257c-.099-1.456-.13-2.916-.125-4.375l-.008-2.398C456 248 456 248 457 245z" fill="#dbdcda"/><path d="M1126 86l2 1v2l5 1v2l5 1 1 5h5v3h5l1 3h5v6h6v3h5v3l-2 1-1 3-2.465-2.203c-9.598-8.463-19.701-16.708-30.821-23.114l-2.222-1.281-2.028-1.114L1124 91v-4l2-1z" fill="#e9e9e9"/><path d="M649 386h5c-2.102 2.244-4.195 3.873-6.824 5.461l-2.332 1.409-2.531 1.505-2.647 1.581c-9.858 5.832-19.938 11.246-30.043 16.635l-6.822 3.75-3.426 1.91-2.789 1.578c-2.866 1.299-5.474 1.789-8.586 2.172v-3h5l1-3h5v-3l2.438-.375L604 412l1-2h5l1-3h5l1-3c3.233-1.617 6.45-2.391 10-3l1-3h4l1-3h4l1-3h5v-3h5l1-3z" fill="#e9e9e6"/><path d="M717 339l2 1-1.312 1.242-1.687 1.633-1.687 1.617c-1.531 1.426-1.531 1.426-1.312 3.508l2 2c-2.076.553-3.844 1-6 1l-.75 1.75c-2.076 3.736-4.182 5.894-8.25 7.25l-2 3c-2.312 1.563-2.312 1.563-5 3l-2.562 1.375L688 368c-2.152-1.461-2.152-1.461-4-3l2.238-1.652c6.148-4.57 12.164-9.246 18.07-14.129L717 339z" fill="#1b1c1b"/><path d="M1093 266h1c1.205 6.326 1.186 12.507 1.185 18.928l.039 6.115c.056 12.512-1.578 24.473-4.725 36.582l-.645 2.598c-.978 3.847-1.98 7.26-3.855 10.777l-1-2 .916-2.744c1.103-3.312 1.364-5.88 1.428-9.354l.09-3.428.133-7.086.09-3.424.057-3.106c.305-3.038.791-5.193 2.287-7.859l4-1-1-35z" fill="#cbcbcb"/><path d="M254 251c2.125.375 2.125.375 4 1-3.783 9.499-7.754 18.741-12.437 27.836-1.419 2.873-2.619 5.732-3.75 8.727-1.411 3.708-3.074 6.503-5.812 9.438v-10l5-1-.125-3.75c-.012-3.266.268-5.465 2.125-8.25h4v-11l5-1-.07-2.117-.055-2.758-.07-2.742C252 253 252 253 254 251z" fill="#d9dad9"/><path d="M919 230h10c-2.455 2.455-4.377 2.87-7.687 3.875-3.497 1.12-6.702 2.165-9.812 4.125-3.926 2.448-8.204 3.67-12.59 5.066-2.338.75-4.621 1.55-6.91 2.434-14.403 5.5-14.403 5.5-18 5.5v-3h5l1-3h10l1-3h5v-3h6l1-3h9l1-3h5l1-3z" fill="#b1b2b1"/><path d="M1224 694c1.5 1.25 1.5 1.25 3 3v4h5v7l1.875.375C1236 709 1236 709 1238 711v5l4 1v4l-5 1-1.285-2.055c-6.007-11.339-6.007-11.339-14.715-19.945v-2h2l1-4z" fill="#eeefed"/><path d="M1020 625c3.364 3.099 5.788 6.517 8.188 10.375l2.348 3.727 1.215 1.935 3.871 5.925 1.271 1.924 2.453 3.671c.946 1.443 1.81 2.94 2.656 4.444l-1 2-2-1v-2h-5l-1-9h-5v-6l-2.437-.375L1023 640c-1.354-2.709-1.065-5.009-1-8h-2v-7z" fill="#d8d9d9"/><path d="M916 349c2.231 3.347 3.324 6.685 4.531 10.477l1.457 4.469 2.271 7.045 2.209 6.799.679 2.143c.561 1.709 1.2 3.392 1.852 5.068l2 1v3c-2.875.188-2.875.188-6 0-2.136-3.204-2.231-4.019-2.125-7.687l.055-2.449L923 377l-5-1v-17l-1-3c-1-3-1-3-1-7z" fill="#c2c2c0"/><path d="M704 344h5c-1.557 4.081-4.469 6.422-7.75 9.125l-1.722 1.437C683.899 367.427 683.899 367.427 676 371v-5l5-1 1-3h5l1-5 1.938-.312L692 356l1-3h5v-5l5-1 1-3z" fill="#e9eae7"/><path d="M582 422h6l-2 2h-3v2l-5.664 2.051c-2.41.933-2.41.933-4.883 2.305-4.883 2.326-9.946 3.953-15.078 5.645l-3.082 1.039C536.342 443 536.342 443 529 443v-2c2.957-1.478 5.742-1.06 9-1l1-3h10l1-3 10-1v-2h6v-3h6l1-3 9-1v-2z" fill="#e3e3e1"/><path d="M555.188 547.938L559 548l-1 3h-2l-1 3-2.152.148-2.785.227-2.777.211L545 555l-1 2h-16l1-3c1.81-.784 1.81-.784 4.148-1.352l2.547-.641 2.68-.633 5.211-1.289 2.345-.561c6.439-1.634 6.439-1.634 9.256-1.587z" fill="#ebebeb"/><path d="M795 507l1 2h3l2 4.875 1.125 2.742C803 519 803 519 803 521h2l2.563 4.875 1.441 2.742L810 531l-1 2h-6l-.078-1.898-.172-2.477-.141-2.461c-.396-2.341-.396-2.341-2.594-3.391L798 522c-1-1-1-1-1.098-3.066l.035-2.496.027-2.504L797 512l-4-1 2-4z" fill="#ebebea"/><path d="M330 89h4c-.386 5.023-2.194 8.334-4.672 12.578-1.758 3.206-3.044 6.522-4.355 9.93-2.061 5.281-4.411 10.436-6.973 15.492-1.392-2.785-.938-4.849-.687-7.937l.238-3.215C318 113 318 113 320 110h4l-.105-1.863-.082-2.449-.105-2.426C324 101 324 101 325.387 99.207 327 98 327 98 329 98l-.062-3.937A59.19 59.19 0 0 1 329 90l1-1z" fill="#d4d4d4"/><path d="M980 47l12.708-.11 4.324-.041 6.21-.044 3.777-.032C1010 47 1010 47 1012 49l8.125.625 2.285.117L1028 50l1 3c1.874.802 1.874.802 4.063 1.188l2.223.48L1037 55c-2.607 1.003-3.806 1.065-6.488.16-5.132-1.696-10.343-2.119-15.699-2.723l-6.48-.754-2.884-.326C1003 51 1003 51 1000 50a116.26 116.26 0 0 0-4.668-.535l-2.705-.264-2.814-.264-2.85-.275L980 48v-1z" fill="#afb0ae"/><path d="M149 476h4c-1.237 6.874-4.147 12.588-7.344 18.73-1.382 2.729-2.534 5.43-3.656 8.27-1.262 2.381-2.633 4.676-4 7h-1v-9l5-1-.105-2.266-.082-2.984-.105-2.953c.336-3.211.999-4.551 3.293-6.797h3l-.062-3.937A59.19 59.19 0 0 1 148 477l1-1z" fill="#dedddc"/><path d="M271 215h3c.376 4.384-.698 6.334-3 10l-2.137 5.787c-1.42 3.64-3.164 7.104-4.926 10.588l-1.064 2.152c-1.418 2.825-2.623 5.222-4.873 7.473v-11l5-1-.125-3.75c-.012-3.266.268-5.465 2.125-8.25h4l-.07-2.117-.055-2.758-.07-2.742C269 217 269 217 271 215z" fill="#e4e4e3"/><path d="M1072 213c4.092 3.53 6.24 7.717 8.688 12.438l1.221 2.275c1.96 3.733 3.593 7.038 4.092 11.287l-2-1v-2l-2.937.063C1078 236 1078 236 1077 235c-.072-1.519-.084-3.042-.062-4.562l.027-2.504L1077 226l-5-2v-11z" fill="#dddddc"/><path d="M1163 458c0 3 0 3-1.574 4.867l-2.113 2.008-2.207 2.137-4.98 4.676c-2.266 2.174-2.266 2.174-3.125 5-1 2.313-1 2.313-3.437 3.438L1143 481l-1.5 1.563c-2.007 1.923-3.797 2.072-6.5 2.438l-2-3 1.57-1.126c9.947-7.164 19.642-14.303 28.43-22.874z" fill="#dddddb"/><path d="M127 524l4 1c-8.145 19.727-8.145 19.727-12.852 27.957-1.116 1.986-2.146 3.998-3.148 6.043l-.25-5.312-.141-2.988C115 548 115 548 116.977 546.426L119 545c.62-2.165.62-2.165.625-4.5.153-3.529.311-4.404 2.375-7.5h4l-.062-3.937A59.19 59.19 0 0 1 126 525l1-1z" fill="#dfe0df"/><path d="M924 365l1 2 2.875-.625L931 366l2 2-1 1 .063 5.063c.059 5.032-.613 9.135-2.062 13.938-2.208-3.312-3.422-6.641-4.687-10.375l-.721-2c-1.331-3.919-1.859-6.645-.592-10.625z" fill="#0f0f10"/><path d="M819 428h6l-1.312 1.609L822 431.75l-1.687 2.109c-1.661 2.29-1.661 2.29-1.312 6.141l-4 1-1-2c-3.822 2.091-6.992 3.833-10 7h-2l1-5 5-1v-3h5l1-6h5v-3z" fill="#2d2c2a"/><path d="M1126 86l2 1v2l5 1v2l5 1 1 5h5l2 7c-2.657-1.279-5.12-2.667-7.566-4.312l-1.971-1.32-2.025-1.367-2.037-1.367-3.746-2.52L1124 91v-4l2-1z" fill="#dfdfde"/><path d="M352 46h1c.239 3.88-.306 6.119-2.187 9.5-2.699 5.084-4.677 10.296-6.602 15.715-1.134 2.607-2.051 3.993-4.211 5.785l-.25-5.312-.141-2.988C340 66 340 66 341.891 64.145 344 63 344 63 346 63V50l5-1 1-3z" fill="#e8e8e7"/><path d="M665 670h3l4 7.625 1.156 2.16c2.186 4.254 3.339 7.307 2.844 12.215l-5-1c-1.283-3.85-1.066-6.947-1-11l-5-1v-9z" fill="#dbdcdd"/><path d="M467 272c1.766.082 1.766.082 4 1a55.02 55.02 0 0 1 3.75 6.688l.957 1.857c1.948 3.977 2.645 7.046 2.293 11.455-2.437-.375-2.437-.375-5-1-1.203-2.405-1.101-3.95-1.062-6.625l.027-2.477L472 281l-5-1v-8z" fill="#e7e7e6"/><path d="M786 486c2.904 3.872 3.851 6.403 5 11h2l2.5 4.875 1.406 2.742C798 507 798 507 798 509l-6 1c-1.607-3.215-1.057-6.436-1-10l-5-1v-13z" fill="#dddddb"/><path d="M998.188 202.875L1002 203c-2.542 1.695-4.313 2.564-7.141 3.516l-2.475.845-2.634.889c-7.768 2.66-15.394 5.534-22.977 8.684C964 218 964 218 962 218v-3h5l1-3c3-1.125 3-1.125 6-2l1-1c1.519-.072 3.042-.084 4.563-.062l2.504.027L984 209v-3l3.313-.375c4.225-.716 6.555-2.892 10.875-2.75z" fill="#dddddc"/><path d="M577 86h2l2 6h2l3.563 6.875 1.037 1.973L590 106l-1 2-6-2c-1.478-2.957-1.06-5.742-1-9l-5-2v-9z" fill="#e8e8e7"/><path d="M567 65h2l5 9.375 1.445 2.695 1.367 2.578 1.27 2.38C579 84 579 84 579 86h-6c-2.6-3.9-2.151-7.474-2-12l-5-1c-.042-2.333-.041-4.667 0-7l1-1z" fill="#dddddc"/><path d="M511 446h7c-7.803 5.202-18.237 6.362-27.375 7.75l-2.519.386c-5.087.725-9.968.982-15.106.864l1-3h17v-2c2.593-.864 4.34-1.176 7.012-1.316l2.295-.127 2.381-.119 2.416-.131L511 448v-2z" fill="#b0b1ad"/><path d="M649 386h5c-2.244 2.428-4.555 4.082-7.387 5.777l-2.596 1.557-2.705 1.604-2.646 1.592c-5.125 3.058-10.292 5.874-15.666 8.471l-2-2 2-2h4l1-3h4l1-3h4l1-3h5v-3h5l1-3z" fill="#ebebe8"/><path d="M720 503h5c-2.9 3.103-5.866 5.355-9.465 7.602l-3.174 1.984-3.299 2.039-3.287 2.063c-8.829 5.492-8.829 5.492-13.775 7.313v-3l2.875-.25L698 520c1.15-1.967 1.15-1.967 2-4 1.326-.362 2.659-.697 4-1l1-3h4v-3h5l1-3h5v-3z" fill="#e8e7e5"/><path d="M187 392h5c-1.045 4.962-2.219 8.649-4.922 12.996-1.833 3.406-2.94 7.081-4.148 10.746C182 418 182 418 180 419l1-14 5-1-.035-2.117-.027-2.758-.035-2.742C186 394 186 394 187 392z" fill="#dadad7"/><path d="M1005 203c-1.662 5.857-3.47 11.459-6 17l-1-4h-2l1-4-2-1v-3h-5c4.622-2.504 9.7-5 15-5z" fill="#232423"/><path d="M49 699c-.602 4.798-2.639 8.459-4.937 12.625l-1.092 2.023c-1.558 2.869-3.159 5.634-4.971 8.352l-.187-5.812-.105-3.27C38 710 38 710 39.387 708.113 41 707 41 707 43 707l-.25-2.312c.25-2.687.25-2.687 2.125-4.5C47 699 47 699 49 699z" fill="#e4e4e2"/><path d="M500 339h3c6.704 13.449 6.704 13.449 7 21l-5-2v-8l-1.937-.437C501 349 501 349 500 348c-.072-1.519-.084-3.042-.062-4.562l.027-2.504L500 339z" fill="#dededd"/><path d="M60 670h1c.685 5.345-1.059 8.333-3.699 12.766-1.134 1.949-2.065 3.842-2.926 5.922-1.323 3.187-2.803 6.242-4.375 9.313h-1c-.108-1.436-.186-2.874-.25-4.312l-.141-2.426c.529-3.063 1.956-3.457 4.391-5.262.834-2.419.834-2.419 1.125-5.062.683-4.745.683-4.745 2.875-6.937h3v-4z" fill="#e2e2e0"/><path d="M903 309c2.337 3.505 3.452 7.081 4.688 11.063l.721 2.221c1.714 5.473 1.714 5.473.592 7.717l-1-4-2.375-.312C903 325 903 325 901 322c-.195-2.48-.195-2.48-.125-5.187l.055-2.73L901 312h2v-3z" fill="#d1d0ce"/><path d="M236 298c-1.385 7.846-5.135 14.108-9 21l-2 4v-12l5-1v-10c4-2 4-2 6-2z" fill="#dcdcda"/><path d="M1080 69l2.438.438c3.568.563 7.108.9 10.707 1.184L1095 71l1 2 3.875.313c2.188.207 2.188.207 4.125.688 1.875 2.5 1.875 2.5 3 5l2 1v2c-4.553-1.389-8.596-3.237-12.812-5.437-5.287-2.716-10.48-4.89-16.187-6.562v-1z" fill="#c5c4c3"/><path d="M1045 389h5c-1.359 3.193-2.699 4.81-5.555 6.762l-2.113 1.451-2.207 1.475-2.184 1.51c-3.312 2.248-5.971 4.009-9.941 4.803v-4h5l1-3h5l1-5 1.938-.312L1044 392l1-3z" fill="#e9e9e7"/><path d="M100 581h4c-1.439 4.495-3.105 8.838-4.937 13.188l-1.527 3.668C96 601 96 601 93 604v-10l5-1-.07-1.863-.055-2.449-.07-2.426C98 584 98 584 100 581z" fill="#dadad9"/><path d="M797 446h5c-3.173 4.355-6.771 7.436-11 10.688l-1.867 1.471c-2.926 2.276-5.699 4.374-9.133 5.842-.043-1.666-.041-3.334 0-5 1-1 1-1 3.563-1.062L786 458v-3h5l1-5 5-1v-3z" fill="#e0e0dd"/><path d="M639 548h9c-3.589 3.033-7.538 4.727-11.812 6.563l-2.08.92c-4.309 1.871-8.564 3.324-13.107 4.518v-3h5l1-3h5v-3h6l1-3z" fill="#e2e1e0"/><path d="M966 155c6.302-.233 11.865.605 18 2l2.637.578L993 159c-3.792 2.528-6.809 2.224-11.187 2.125l-2.271-.027L974 161l-.805-1.953L972 157c-3.059-.816-3.059-.816-6-1v-1z" fill="#e1e1e0"/><path d="M993.945 415.805L1000 416c-2.141 2.141-3.082 2.478-5.922 3.254l-2.359.65-2.469.658-2.422.67c-6.273 1.708-12.167 2.91-18.703 2.83l-2.93-.027L963 424c2-2 2-2 5.258-2.195l3.867.07 3.883.055L979 422l1-3 2.117-.148 2.758-.227 2.742-.211c2.886-.501 3.512-2.327 6.328-2.609z" fill="#e2e2e0"/><path d="M567 185c3.05 3.66 7 9.079 7 14l-7 1 2-4-5-1v-4h2l-1-4h2v-2z" fill="#191a19"/><path d="M79.563 628.938L82 629c-.871 4.619-3.319 8.308-5.625 12.344-1.18 2.28-1.903 4.153-2.375 6.656l-3-1c-.367-5.5-.367-5.5 1.375-7.875C74 638 74 638 76 638l-.062-3.937A59.19 59.19 0 0 1 76 630c1-1 1-1 3.563-1.062z" fill="#ececeb"/><path d="M671 371h5c-3.974 4.35-8.284 7.279-13.312 10.313l-2.244 1.377L655 386l-1-3c1.313-1.5 1.313-1.5 3-3h3l1-3h4v-3h5l1-3z" fill="#eff0ee"/><path d="M1229 329l1 4h2v14l-6 2c.664-6.746 1.719-13.344 3-20z" fill="#e6e5e5"/><path d="M177 416l4 1c-2.621 6.881-5.608 13.465-9 20-2-2-2-2-2.125-5.125L170 429l5-1-.07-1.863-.055-2.449-.07-2.426C175 419 175 419 177 416z" fill="#e7e7e6"/><path d="M982 568c3.678 3.34 6.144 7.074 8.75 11.25l1.246 1.969L995 586l-4 2c-2-3-2-3-2-7h-5l-.586-6.152L983 573l-2-1 1-4z" fill="#dedede"/><path d="M539 130l2 1v4h2c1.765 3.088 2 4.233 2 8h-2l-.375 1.75c-.631 2.273-1.514 4.175-2.625 6.25h-2c-.322-8.205-.322-8.205 1.063-11.625 1.317-3.337.615-5.919-.062-9.375z" fill="#262626"/><path d="M509 354c3.228 3.228 4.748 7.405 6.688 11.5l1.299 2.668 1.213 2.551 1.12 2.342L520 375l-1 2-3-2v-3l-5-1-2-17z" fill="#cccccb"/><path d="M487 563l-2 3c-2.879.328-2.879.328-6.562.25l-1.975-.033c-7.83-.17-15.65-.681-23.463-1.217v-1c11.352-.866 22.616-1.119 34-1z" fill="#cececb"/><path d="M951 535l4.813-.25 2.707-.141c2.48.391 2.48.391 4.324 2.266C964 539 964 539 963.688 541.25L963 543l-6-2v-2h-5l-1-4z" fill="#eeeeec"/><path d="M626 182c3.936 1.312 4.287 2.828 6.188 6.438l1.605 2.996C635 194 635 194 635 196h-2v-2h-6c-1.262-2.525-1.099-4.312-1.062-7.125l.027-2.758L626 182z" fill="#d9d9d9"/><path d="M653 232c2.52 3.359 4.367 6.405 6.25 10.125l1.641 3.195L662 248l-1 2-7-3-1-15z" fill="#d6d6d6"/><path d="M919 230h10c-2.455 2.455-4.377 2.87-7.687 3.875-3.632 1.157-6.894 2.284-10.125 4.313-3.652 2.077-6.057 2.475-10.187 2.813 3-2 3-2 6-3l1-2h4l1-3h5l1-3z" fill="#c7c7c6"/><path d="M330 89h4c-.539 4.598-1.766 7.868-4.062 11.875l-1.66 2.93L327 106c-1.52-1.363-1.52-1.363-3-3 .313-2.187.313-2.187 1-4l4-1-.062-3.937A59.19 59.19 0 0 1 329 90l1-1z" fill="#d7d7d6"/><path d="M748 311l2 1c-4.329 5.184-8.766 9.727-14 14l-2-1 3-8h5v-3h5l1-3z" fill="#484945"/><path d="M528 397c3 1 3 1 3.992 2.813l.883 2.188c.946 2.168.946 2.168 2.125 4 2.615 1.128 2.615 1.128 5 1-3 2-3 2-7 2v-2l-2.437-.375L528 406c-1.366-2.732-1.128-4.982-1-8l1-1z" fill="#e2e1df"/><path d="M248 567h2c2.129 7.206-.893 12.453-4 19-2.222-4.444-1.357-10.334-.062-15 1.063-3 1.063-3 2.063-4z" fill="#363635"/><path d="M298 166c-1.347 6.61-3.815 12.068-7 18-2.081-4.163-.899-9.571 0-14 3.545-4 3.545-4 7-4zm-89 185h3l-4.625 11.313-1.352 3.238L205 368c-2.309-3.984-1.865-6.501-1-11l4-1 1-5z" fill="#d4d4d3"/><path d="M1083 236c3.006 3.39 4.533 5.833 5.25 10.313l.453 2.676L1089 251c-1.666.043-3.334.041-5 0-1-1-1-1-1.098-4.16l.035-3.902.027-3.91L1083 236z" fill="#ebedeb"/><path d="M980 47l12.708-.165 4.324-.062 6.21-.067 3.777-.048L1010 47l2 3-11.5-.437-3.266-.119c-5.802-.23-11.487-.613-17.234-1.443v-1z" fill="#cccccb"/><path d="M733 503l1 3h-2l-1 3-4-1-1 3h-3v-4l-2-1c3.761-3.761 6.973-3.251 12-3z" fill="#222221"/><path d="M494 327h3l2.5 4.875 1.406 2.742C502 337 502 337 502 339l-7-2c-1.607-3.215-1.057-6.436-1-10z" fill="#d5d4d2"/><path d="M676 688c2.317 3.09 3.994 5.717 5.688 9.125l1.324 2.633C684 702 684 702 684 704h-2l-1-2-5-2v-12z" fill="#cccecf"/><path d="M697 355l2 1-2.437 2.75c-1.664 1.966-2.498 2.958-3.062 5.5-.5 1.75-.5 1.75-2.812 3.188L688 368l-4-3 2.59-1.934 3.348-2.504 1.709-1.275L697 355z" fill="#242522"/><path d="M746 529c2.292 2.898 4.079 5.831 5.75 9.125l1.359 2.633L754 543l-1 2-3-1-1 2 1-8-1.937.563L746 539l-1-1a67.88 67.88 0 0 1 .438-4.562l.309-2.504L746 529z" fill="#393735"/><path d="M1161 110v3h5v3l-2 1-1 3-9-8c3-2 3-2 7-2z" fill="#e2e1e0"/><path d="M170 435c1.211 1.578 1.211 1.578 2 4-1.014 2.455-2.027 4.495-3.375 6.75l-1.039 1.824L165 452h-1l-.062-5.437-.035-3.059C164 441 164 441 165 440h5v-5z" fill="#e0e0df"/><path d="M659 249c1.855.258 1.855.258 4 1 1.301 1.742 1.301 1.742 2.313 3.875l1.051 2.117C667 258 667 258 666 261l-4-2v-2l-3-1v-7z" fill="#e7e7e6"/><path d="M556 47h4l2 9h-6c-1-1-1-1-1.125-4.5C555 48 555 48 556 47z" fill="#ededec"/><path d="M582 422h6l-2 2h-3v2l-7.375 2.5-2.117.723C568.227 431 568.227 431 566 431v-3h6l1-3 9-1v-2z" fill="#d9d9d5"/><path d="M1062 380l-4.312 4.438-2.426 2.496C1053 389 1053 389 1050 390v-6l5-1 1-3c3-1 3-1 6 0z" fill="#dbdbd6"/><path d="M1020 625c4.202 3.718 6.998 8.317 10 13l-1 2-5-1-2-7h-2v-7z" fill="#d0d0d0"/><path d="M717 339l2 1-1.312 1.242-1.687 1.633-1.687 1.617c-1.531 1.426-1.531 1.426-1.312 3.508l2 2c-3.576 1.238-6.337.749-10 0 3.804-3.919 7.816-7.491 12-11z" fill="#2a2a27"/><path d="M752 263c0 3 0 3-1.744 5.085l-2.412 2.365-2.598 2.568-2.746 2.67-2.746 2.705L733 285l-3-1 2.527-2.309c6.644-6.089 13.172-12.244 19.473-18.691z" fill="#d0d0cf"/><path d="M831 263h9c-3.182 2.121-6.451 3.658-9.937 5.188l-1.881.865c-2.713 1.187-4.646 2.018-7.623 1.623L819 270l5-1 1-3h5l1-3z" fill="#e4e4e3"/><path d="M687 524h5l-2 6-7-1v2l-7 2v-3h5l1-3h5v-3z" fill="#888784"/><path d="M203 364h1c.555 5.691-1.054 8.321-4 13l-2 4c-1.437-8.104-1.437-8.104.25-11.562C200 368 200 368 203 368v-4z" fill="#e2e1df"/><path d="M666 260h2l2.5 4.375 1.406 2.461C673 269 673 269 673 271h-2v-2l-2.437.063C666 269 666 269 665 268v-7l1-1z" fill="#dbdbdb"/><path d="M182 404h4c-1.029 5.446-2.246 10.118-5 15-1.408-2.817-.9-4.945-.625-8.062l.273-3.285C181 405 181 405 182 404z" fill="#d3d3d0"/><path d="M643 352l2 3-13 8-2-4c3.858-2.153 6.551-3.393 11-3l2-4z" fill="#1e1e1e"/><path d="M1022 634c2 1 2 1 4 4 2.552 1.205 2.552 1.205 5 2l1 7h-4v-6l-5-1-1-6z" fill="#eaeae9"/><path d="M1085 329h3c-.642 5.135-1.683 9.994-3 15-1.723-2.994-2.273-5.177-2.25-8.625l-.016-2.352C1083 331 1083 331 1085 329z" fill="#ececeb"/><path d="M566 545l-1 3 1 3h-8v-2l-3-2c3.823-1.423 6.913-2.24 11-2z" fill="#dcdbda"/><path d="M359 327l1 2c-.891 2.102-.891 2.102-2.25 4.625-2.287 4.382-4.111 8.715-5.75 13.375-1-2-1-2-1-6 .875-1.937.875-1.937 2-4l2-5h2l-1-3 3-2z" fill="#484745"/><path d="M1201 669c3.588 3.389 6.457 6.761 9 11v2h-5l-2-5.375-1.125-3.023C1201 671 1201 671 1201 669z" fill="#434341"/><path d="M217 647l1 2-2.937 6.625-1.715 3.602L212 662c-2.679-4.019-2.156-6.242-2-11h6l1-4z" fill="#252624"/><path d="M336 382c-2.891 9.595-2.891 9.595-6 13-.592-3.013-1.042-5.924-1-9 2.233-3.27 3.01-4 7-4z" fill="#383837"/><path d="M676 281h3l2.063 3.875 1.16 2.18L683 289l-1 2-6-2v-8z" fill="#e6e7e4"/><path d="M120 542h1c.555 5.691-1.054 8.321-4 13l-2 4-.25-5.312-.141-2.988C115 548 115 548 116.953 546.332L119 545l1-3z" fill="#e1e1e0"/><path d="M387 263c1 2 1 2 .223 4.383l-1.16 2.742-1.152 2.758L384 275l-2-2-2 1c.14-3.017.294-5.238 2.402-7.512L387 263z" fill="#2f2f2e"/><path d="M850.066 256.902l2.496.035 2.504.027L857 257c-4.257 3.887-10.275 6-16 6v-3l2.938-.937c2.585-.897 3.586-2.04 6.129-2.16z" fill="#d7d8d7"/><path d="M998.188 202.875L1002 203c-2.832 1.888-5.26 2.961-8.437 4.125l-2.871 1.07C988 209 988 209 984 209v-3l3.313-.375c4.225-.716 6.555-2.892 10.875-2.75z" fill="#e5e6e5"/><path d="M665 670h3l2 10-5-1v-9z" fill="#ececeb"/><path d="M62 662h3c-.67 8.036-.67 8.036-4 12l-.625-4.875-.352-2.742L60 664l2-2z" fill="#dbdbd9"/><path d="M977 564l5 2-1 6 3 1v2c-2.867-.573-3.861-.861-6-3-.565-2.655-.738-5.291-1-8z" fill="#ebebe9"/><path d="M149 476h4c-1.145 5.11-2.455 9.372-5 14-1.354-2.708-.914-4.565-.625-7.562l.273-3.004C148 477 148 477 149 476z" fill="#d0d1cd"/><path d="M603 416c-9.226 5.556-9.226 5.556-15 6v-3h5l1-3c3.434-.859 5.617-.976 9 0z" fill="#d4d4d1"/><path d="M923 376c2 1 2 1 2.852 2.961l.773 2.414.789 2.398C928 386 928 386 928 389c-1.937-.375-1.937-.375-4-1-1.262-2.525-1.099-4.312-1.062-7.125l.027-2.758L923 376z" fill="#f4f4f2"/><path d="M1224 694c1.5 1.25 1.5 1.25 3 3v4h2l-1 4c-3.36-1.12-4.691-2.372-7-5v-2h2l1-4z" fill="#f3f2f0"/><path d="M455.449 454.707l2.568.029 2.67.076 2.705.041L470 455v1c-14.597 2.296-14.597 2.296-22 2 2.369-2.872 3.758-3.367 7.449-3.293z" fill="#c8c9c4"/><path d="M932 369h1v6h2c-.551 3.949-1.389 7.349-3 11h-1l-.062-7.937-.025-2.287A182.68 182.68 0 0 1 931 370l1-1z" fill="#343332"/><path d="M373 287l4 1-1.375 4.938-.773 2.777C374 298 374 298 372 299v-4h-2v-3h2l1-5z" fill="#363633"/><path d="M990 208h5v3l3 1-2 2-3-1-2 3v-3l-3-1 2-4z" fill="#0a0c0b"/><path d="M89 605l4 1-1.875 4.375-1.055 2.461C89 615 89 615 87 617l-.125-4.312-.07-2.426C87 608 87 608 89 605z" fill="#e4e5e4"/><path d="M484 562l4.375-.062 2.461-.035C493 562 493 562 495 563l-1 3h-9l-1-4z" fill="#ededeb"/><path d="M964 541c3.394 3.126 5.606 5.565 7 10l-3.937-1.75-2.215-.984C963 547 963 547 962.121 544.984L962 543l2-2z" fill="#d9d9d9"/><path d="M154 464h4l-.812 4.313-.457 2.426c-.806 2.496-1.751 3.586-3.73 5.262l-.062-4.875-.035-2.742C153 466 153 466 154 464z" fill="#e1e1df"/><path d="M808 437h5c-2.675 3.567-5.357 6.411-9 9h-2l1-5 5-1v-3z" fill="#e0e0dd"/><path d="M607 414c-1.265 3.794-2.699 4.8-6 7-3.312.75-3.312.75-6 1l-1-2 5.375-3 3.023-1.687C605 414 605 414 607 414z" fill="#262625"/><path d="M648 228h4c1.354 2.709 1.065 5.009 1 8l-5-1v-7z" fill="#e4e4e5"/><path d="M291 180c-1.077 4.308-2.039 7.636-5 11-1.414-2.829-1.319-4.874-1-8 2.04-2.04 3.083-3 6-3z" fill="#e8e8e8"/><path d="M307 147l2 3-3 6h2v5h-2v-2l-4 2 1.375-4.75.773-2.672c.773-2.339 1.688-4.413 2.852-6.578z" fill="#2d2e2d"/><path d="M671 371h5c-3.676 4.01-7.19 6.453-12 9l1-6h5l1-3z" fill="#e2e3e0"/><path d="M220 323h5c-1.213 3.724-2.509 7.378-4 11-1.984-2.917-1.988-4.124-1.625-7.75L220 323z" fill="#d8d7d6"/><path d="M711 301l2 1-5.75 6.063-1.633 1.76c-1.602 1.65-1.602 1.65-4.617 4.178l-4-1 14-12z" fill="#c9c8c7"/><path d="M237 287h4c-.453 4.874-1.709 7.39-5 11l-.062-4.937-.035-2.777C236 288 236 288 237 287z" fill="#e5e5e4"/><path d="M864 251h8c-4.497 3.777-9.097 6-15 6l1-3h5l1-3z" fill="#eaebe9"/><path d="M937.848 223.902L944 224c-1 2-1 2-3.145 2.816l-2.668.746-2.645.754L929 230v-3l2.938-.937c2.384-.827 3.582-2.037 5.91-2.16z" fill="#e0e0de"/><path d="M967 549c2.438.625 2.438.625 5 2 .813 3.125.813 3.125 1 6h-5c-1.354-2.709-1.065-5.009-1-8z" fill="#f4f4f3"/><path d="M133 512h4c-1.258 4.508-2.904 7.491-6 11-.25-7.625-.25-7.625 2-11z" fill="#dbdbda"/><path d="M516 375c2.438.625 2.438.625 5 2 .813 3.125.813 3.125 1 6h-5l-1-8z" fill="#ebebe9"/><path d="M210 344h4l-1 7-5 1c.875-6.875.875-6.875 2-8z" fill="#e4e4e2"/><path d="M201 674l4 1c-2.891 9.595-2.891 9.595-6 13v-7l3-1-1-6z" fill="#434344"/><path d="M79.563 628.938L82 629c-.574 3.871-2.487 6.082-5 9-1.366-2.732-1.128-4.982-1-8 1-1 1-1 3.563-1.062z" fill="#e2e1e2"/><path d="M100 581h4c-1.156 3.912-2.355 6.875-5 10-1.25-6.625-1.25-6.625 1-10z" fill="#e8e9e8"/><path d="M1015 413c-4.974 1.757-9.742 3.326-15 4l1-4 5.875-.562 3.305-.316C1013 412 1013 412 1015 413z" fill="#c7c7c4"/><path d="M1068 371l.438 1.875c.494 2.158.494 2.158 1.563 4.125h-5l-.75 1.75c-1.417 2.55-3.126 4.268-5.25 6.25l-2-1 1.898-2.082 2.477-2.73 2.461-2.707c2.255-2.477 2.255-2.477 4.164-5.48z" fill="#31322e"/><path d="M230 310c-.72 4.609-2.313 8.672-4 13h-1v-12c3-1 3-1 5-1z" fill="#e4e3e3"/><path d="M629 306c2.645 3.125 3.844 6.088 5 10-2.379-.176-3.702-.697-5.379-2.402-1.242-1.504-2.435-3.049-3.621-4.598l1-2 3 2v-3z" fill="#3c3c3b"/><path d="M254 251l4 1-4 9c-2-2-2-2-2.25-5 .25-3 .25-3 2.25-5z" fill="#ebebea"/><path d="M271 215h3c.412 3.603.154 4.784-2 7.813L270 225c-1.381-2.763-1.191-4.947-1-8l2-2z" fill="#ebeaea"/><path d="M613 530v2c-2.273 1.495-4.568 2.784-7 4v-2h-4v-2c3.83-1.802 6.781-2.196 11-2z" fill="#f5f5f3"/><path d="M804 354l6 5-2 1v5l-1-2h-3v-9z" fill="#2b2b2a"/><path d="M952 218h9c-3.03 1.515-5.991 2.862-9.125 4.125l-2.633 1.07C947 224 947 224 945 224l1-3h5l1-3z" fill="#e0e1df"/><path d="M49 699c-.531 3.821-1.497 6.062-4 9l-2-2c.188-2.5.188-2.5 1-5 3-2 3-2 5-2z" fill="#d5d5d5"/><path d="M573 430c-15.714 6-15.714 6-19 6v-2l6-1v-2l5.375-1.062 3.023-.598C571 429 571 429 573 430z" fill="#bdbeba"/><path d="M1056 385l2 1-1 2h2v2h-2v2l-2 1-2 4-2-1 .938-1.687c1.169-2.301 1.169-2.301 1.563-4.937.5-2.375.5-2.375 2.5-4.375z" fill="#1c1d1c"/><path d="M903 236h5c-1 3-1 3-2.742 3.949l-2.133.738-2.117.762C899 242 899 242 896 242v-3h6l1-3z" fill="#f3f3f2"/><path d="M617 154l3 1c1.25 6.625 1.25 6.625-1 10-3.077-5.292-3.077-5.292-2.687-8.875L617 154z" fill="#1b1c1c"/><path d="M315 122h3c-.479 4.219-1.166 6.797-4 10-1.381-2.763-1.191-4.947-1-8l2-2z" fill="#eeeeed"/><path d="M590 101h3v5l2 1h-2l1 3-2 2c-3.077-5.292-3.077-5.292-2.687-8.875L590 101z" fill="#1c1b1c"/><path d="M1031 53l5.375-.062 3.023-.035C1042 53 1042 53 1044 54v2l2 1c-5.273-.445-10.018-1.084-15-3v-1z" fill="#ebecea"/><path d="M1039 658c2.438.813 2.438.813 5 2l1 3-1 2-5-1v-6z" fill="#ececec"/><path d="M819 428l4 1-9 8c-1-4-1-4 0-6h5v-3z" fill="#dddcd9"/><path d="M494 315l3 2v3h2v3h-5l-2-6h2v-2z" fill="#191919"/><path d="M665 255h8c-.25 2.375-.25 2.375-1 5-2.062 1.313-2.062 1.313-4 2-3-4.75-3-4.75-3-7z" fill="#222223"/><path d="M83 617h4c-1.213 3.724-2.509 7.378-4 11h-1l-.062-4.937-.035-2.777C82 618 82 618 83 617z" fill="#efefef"/><path d="M111 560h4l-5 10h-1v-8l2-2z" fill="#e0e1df"/><path d="M127 524l4 1-4 10h-1l-.062-4.937-.035-2.777C126 525 126 525 127 524z" fill="#d5d5d3"/><path d="M171 428h4c-.531 3.821-1.497 6.062-4 9-1.366-2.732-1.128-4.982-1-8l1-1z" fill="#efefee"/><path d="M742 314l4 1-4.437 4-2.496 2.25C737 323 737 323 736 323v-5c1-1 1-1 3.563-1.062L742 317v-3z" fill="#dcddd8"/><path d="M1095 280l2 1v3h2v5l-2 1-2 4v-14z" fill="#1d1d1d"/><path d="M1055 194c4.274 1.583 6.265 4.506 9 8l-9-3v-5z" fill="#e2e2e0"/><path d="M570 191c2.154 2.622 3.401 4.644 4 8l-7 1 .938-2.25c.872-2.257 1.539-4.395 2.063-6.75z" fill="#2b2b2b"/><path d="M1053 56l2 1v3l-3.812-.375-2.145-.211C1047 59 1047 59 1044 57c2.986-1.493 5.709-1.118 9-1z" fill="#dcdcdb"/><path d="M51 687h2c-.438 4.557-.85 7.577-4 11l-.125-4.375-.07-2.461C49 689 49 689 51 687z" fill="#edeeed"/><path d="M108 571l1 2c-.777 1.945-.777 1.945-1.937 4.125l-1.152 2.195L105 581h-1v-9l4-1z" fill="#dbdcdb"/><path d="M639 548h9c-3.125 2.645-6.088 3.844-10 5l1-5z" fill="#cdccc9"/><path d="M980.188 208.813l2.73.082L985 209c-2.737 2.737-5.26 3.162-9 4-2.437-.375-2.437-.375-4-1 2.51-3.177 4.226-3.342 8.188-3.187z" fill="#e9eae9"/><path d="M336 77h4c-1.156 3.912-2.355 6.875-5 10l-.062-4.437-.035-2.496C335 78 335 78 336 77z" fill="#eae9e8"/><path d="M138 500l4 1-4 9h-1l-.062-4.437-.035-2.496C137 501 137 501 138 500z" fill="#efeeee"/><path d="M1143 480l1 3-1 2h-4l-1 3h-5c2.761-2.966 5.482-5.003 9-7l1-1z" fill="#f4f5f5"/><path d="M649 386h5c-2.185 2.406-4.259 3.795-7.187 5.188l-2.168 1.043L643 393v-4h5l1-3z" fill="#e2e2df"/><path d="M1073 356h4c-.498 3.688-1.101 5.605-4 8l-1-7 1-1z" fill="#ededec"/><path d="M880 245h4c-.5 1.875-.5 1.875-2 4-2.652.985-5.205 1.459-8 2v-3h5l1-3z" fill="#e3e4e3"/><path d="M776 588c2.972 2.548 4.415 5.453 6 9v2c-1.875-.25-1.875-.25-4-1-2.355-3.18-2.175-6.151-2-10z" fill="#444341"/><path d="M1163 458c0 3 0 3-1.75 5.043l-2.25 2.145-2.25 2.168L1155 469l-3-1 11-10z" fill="#cecfce"/><path d="M315 427c1.858 3.135 2.201 5.375 2 9l-1.875.313c-2.49.563-2.49.563-4.125 3.688.72-4.609 2.313-8.672 4-13z" fill="#c8c8c6"/><path d="M505 351h2v3h2l1 6-5-2v-7z" fill="#f6f6f5"/><path d="M298 158h2c.125 5.75.125 5.75-1 8h-3v-6l2-2z" fill="#f3f4f4"/><path d="M1169 622c3.394 3.126 5.606 5.565 7 10l-7-2v-2h2l-2-6z" fill="#444340"/><path d="M517 90h3l1 4h-2v6c-1.958-2.937-2.561-4.574-3-8l1-2z" fill="#272726"/><path d="M687 714l2 4h3v4l-5-1v-7z" fill="#e9e9ea"/><path d="M1017 623c2.063 1.688 2.063 1.688 4 4-.25 2.75-.25 2.75-1 5l-3-1v-8z" fill="#f2f3f2"/><path d="M248 567h2c1.25 6.625 1.25 6.625-1 10v-4h-2c-.625-1.875-.625-1.875-1-4l2-2z" fill="#2f2f2d"/><path d="M590 230c2.645 3.125 3.844 6.088 5 10-2.437-.687-2.437-.687-5-2-1.181-3.289-1.116-4.653 0-8z" fill="#3c3b3a"/><path d="M415 195h2c-.783 3.916-2.392 7.364-4 11l-1-2h-2v-2h4l-.062-2.937C414 196 414 196 415 195z" fill="#40403f"/><path d="M783.563 457.938L786 458c-1.049 2.622-1.649 3.794-4.125 5.25L780 464v-5c1-1 1-1 3.563-1.062z" fill="#eaeae8"/><path d="M329 98c-.75 5.75-.75 5.75-3 8l-2-5c2.75-3 2.75-3 5-3z" fill="#e5e5e5"/><path d="M1123 488c-3.2 2.743-6.005 4.63-10 6 .25-1.875.25-1.875 1-4 2.955-2.111 5.439-2.198 9-2z" fill="#2b2a27"/><path d="M1023 404h5v3l-6 2 1-5z" fill="#d1d1cf"/><path d="M530 386h2v8h-2l-1 2c-1.467-3.815-.433-6.29 1-10z" fill="#1d1e1d"/><path d="M634 316c3.092 2.53 3.909 5.225 5 9h-6v-2h2l-1-7z" fill="#474645"/><path d="M831 269l2 1v2l-6 1v-3l-2-1c2.517-1.258 3.378-.819 6 0z" fill="#2d2e2d"/><path d="M672 258c2 3 2 3 1.625 5.188L673 265l-2-1-1 2-1-5 3-1v-2z" fill="#171818"/><path d="M1130 102h9v3h-9v-3z" fill="#181819"/><path d="M1195 656c3.875 1.75 3.875 1.75 5 4l-2 4-4-7 1-1z" fill="#e7e6e3"/><path d="M1006 609l5 1v4l-5-1v-4z" fill="#efefee"/><path d="M682 527l4 1-3 1v2l-7 2v-3h5l1-3z" fill="#d9d7d5"/><path d="M1140 98h4l2 7c-2.993-1.098-3.846-1.677-5.25-4.625L1140 98z" fill="#d6d5d5"/><path d="M1114 85l5 2-3 1v3h-5v-2l2-1 1-3z" fill="#1d1c1b"/><path d="M613 526l2 1c-2.445 2.965-4.446 3.556-8.187 4.188l-2.73.48L602 532l1-2 7-1v-2l3-1z" fill="#a2a1a0"/><path d="M535.625 439.938l2.477.027L540 440c-2.901 1.934-3.897 2.301-7.187 2.625L529 443v-2c2.405-1.203 3.95-1.101 6.625-1.062z" fill="#dadbd6"/><path d="M992 421l1 3c-1.75.75-1.75.75-4 1-2.25-1.937-2.25-1.937-4-4 3.1-1.033 4.056-1.178 7 0z" fill="#2f2f2e"/><path d="M889 250h3v3l6-1v2c-2.812.625-2.812.625-6 1l-3-2v-3z" fill="#191a1a"/><path d="M585 93h3l1 5h-2l-1 2-2-6 1-1z" fill="#1c1b1c"/><path d="M698 518l3 1-3.375 2.5-1.898 1.406C694 524 694 524 692 524v-3l6-1v-2z" fill="#e1dedd"/><path d="M573 425l2 1c-2.834 3.254-4.686 4.521-9 5v-3h6l1-3z" fill="#eff0ed"/><path d="M992 416c1.945-.293 1.945-.293 4.125-.187L1000 416c-3.006 3.006-5.824 2.596-10 3l2-3z" fill="#eeedea"/><path d="M697 355l2 1-6 7-3-2 7-6z" fill="#393b37"/><path d="M643 352l2 3c-5.75 4-5.75 4-8 4v-3h4l2-4z" fill="#2b2c2a"/><path d="M1095 239h2c-1.156 3.912-2.355 6.875-5 10 0-4.331.966-6.27 3-10z" fill="#141614"/><path d="M682 698h2v2l5 1-1 2-4 1-2-6z" fill="#191919"/><path d="M217 647l1 2c-.777 1.945-.777 1.945-1.937 4.125l-1.152 2.195L214 657c-1.062-1.875-1.062-1.875-2-4l1-2h3l1-4z" fill="#5d5c5a"/><path d="M1029 641c1.5 1.313 1.5 1.313 3 3v3h-4v-5l1-1z" fill="#f1f2f1"/><path d="M982 568c2.799 2.528 4.458 4.204 5 8-2.995-.998-4.158-1.514-6-4 .313-2.187.313-2.187 1-4z" fill="#cdcdcc"/><path d="M1120 549l4 4-1 2-2-1v2h-2l-1-4 2-1v-2z" fill="#3b3a37"/><path d="M691 526c4.75.75 4.75.75 7 3-2.606.931-3.642 1.149-6.25.063L690 528l1-2z" fill="#090a0b"/><path d="M535.625 405.938l2.477.59L540 407c-3 2-3 2-7 2v-2l-4-1c2.633-1.316 3.802-.748 6.625-.062z" fill="#c8c7c5"/><path d="M347 348l3 1c-.573 2.867-.861 3.861-3 6l-2-4 2-3z" fill="#282725"/><path d="M717 339l2 1-7 8-2-3 7-6z" fill="#383834"/><path d="M864 289h9l1 4-10-3v-1z" fill="#4e4f4f"/><path d="M457 245c3 3.75 3 3.75 3 6h-2l-1 3c-1.125-5.625-1.125-5.625 0-9z" fill="#d0d0d0"/><path d="M994 203h8c-3.285 2.19-6.207 2.998-10 4l2-4z" fill="#cececc"/><path d="M562 170h3l2 5h-4l-2-4 1-1z" fill="#eae9e8"/><path d="M315 130l1 2 5-1c-.812 1.938-.812 1.938-2 4l-3 1c-1.062-1.875-1.062-1.875-2-4l1-2z" fill="#2e2e2d"/><path d="M720 503h5c-2.49 2.667-4.634 4.557-8 6v-3h3v-3z" fill="#dfdddb"/><path d="M786 486c2.154 2.622 3.401 4.644 4 8h-4v-8z" fill="#cccbcb"/><path d="M474 452h7l-1 2-7 1 1-3z" fill="#e4e5e1"/><path d="M1185 433c-1.25 3.653-1.671 4.781-5 7l-1-3c3.75-4 3.75-4 6-4z" fill="#262623"/><path d="M567 185c3 3.75 3 3.75 3 6l-4 1-1-5h2v-2z" fill="#313132"/><path d="M190 708l2 2c-.187 2.063-.187 2.063-1 4l-3 1c.875-4.75.875-4.75 2-7z" fill="#d6d7d5"/><path d="M1224 694h1v8l-4-2v-2h2l1-4z" fill="#d5d5d2"/><path d="M201 674l4 1-2 6c-2-3-2-3-2-7z" fill="#363533"/><path d="M974 545c1.892 2.386 3.024 4.072 4 7h-3c-2-3-2-3-1.625-5.187L974 545z" fill="#1d1c1b"/><path d="M574 538l7 1c-2.918 1.945-4.625 2.453-8 3l1-4z" fill="#2a2a2a"/><path d="M806 525c2.154 2.622 3.401 4.644 4 8h-4v-8z" fill="#c6c6c5"/><path d="M947 344l1 2-3 6h-1c-.187-2.875-.187-2.875 0-6l3-2z" fill="#2d2d2a"/><path d="M748 339v3l-5 1-1-3 6-1z" fill="#151615"/><path d="M1151 290l-1 3h-2l-1 3-2-1c2.258-5 2.258-5 6-5z" fill="#141514"/><path d="M246 278l2 4-3 3h-2l3-7z" fill="#30312f"/><path d="M250 269l2 3-3 2 1-5zm5-1l1 3-4-1 3-2z" fill="#232523"/><path d="M858 254h8c-2.967 1.648-5.656 2.443-9 3l1-3z" fill="#d5d6d4"/><path d="M985 240l5 1-1 5-1-2-3-1v-3z" fill="#333332"/><path d="M973 217h6v2l-6 3v-5z" fill="#1b1d1a"/><path d="M322 123l3 1-1 5h-2c-1.125-3.75-1.125-3.75 0-6z" fill="#191a18"/><path d="M499 51c2 1 2 1 2.852 3.066l.773 2.496.789 2.504L504 61c-1.953-.742-1.953-.742-4-2-.839-2.678-.818-5.174-1-8z" fill="#3e3d3c"/></svg>