<svg xmlns="http://www.w3.org/2000/svg" fill="none" viewBox="0 0 151 32"><path fill="currentColor" d="M16 0C7.163 0 0 7.163 0 16c0 8.834 7.163 16 16 16s16-7.163 16-16c-.003-8.837-7.166-16-16-16Zm-4 22.665H9.337V9.332H12v13.332Zm10.665 0h-8v-2.666h8v2.666Zm0-5.334h-8v-2.665h8v2.665Zm0-5.333h-8V9.333h8v2.665ZM99.608 16.538l-2.2.508-1.534.338h-.014c0-.4.03-.822.13-1.21.126-.499.405-1.081.889-1.337a2.109 2.109 0 0 1 1.724-.096c.578.221.842.76.955 1.319.032.156.052.312.068.47l-.018.008Zm3.998.846c0-3.873-2.519-5.538-5.739-5.538-3.639 0-5.918 2.44-5.918 5.558 0 3.389 1.94 5.596 6.118 5.596 2.259 0 3.538-.387 5.059-1.123l-.579-2.537c-1.16.503-2.239.812-3.68.812-1.579 0-2.478-.58-2.82-1.664h7.458c.061-.291.101-.621.101-1.104ZM66.14 16.538l-2.2.508-1.533.338h-.014c0-.4.03-.822.13-1.21.126-.499.405-1.081.889-1.337a2.109 2.109 0 0 1 1.724-.096c.577.221.842.76.955 1.319.032.156.052.312.068.47l-.018.008Zm3.999.846c0-3.873-2.52-5.538-5.739-5.538-3.639 0-5.918 2.44-5.918 5.558 0 3.389 1.94 5.596 6.118 5.596 2.259 0 3.538-.387 5.059-1.123l-.579-2.537c-1.16.503-2.24.812-3.68.812-1.579 0-2.479-.58-2.82-1.664h7.458c.06-.291.101-.621.101-1.104ZM56.916 9h-3.694v13.61h3.694V9ZM104.385 12.193h3.879l.817 2.407c.51-1.188 1.66-2.716 3.699-2.716 2.8 0 4.319 1.376 4.319 4.919v5.81h-3.879c0-1.212.002-2.42.004-3.632 0-.555-.01-1.11-.002-1.664.006-.512.044-1.041-.238-1.5-.192-.311-.504-.54-.841-.696a2.359 2.359 0 0 0-2.098.031c-.165.085-.964.503-.964.696v6.764h-3.879v-7.608l-.817-2.81ZM120.032 14.925h-1.779v-2.731h1.779v-1.707l3.879-.885v2.592h3.899v2.73h-3.899v3.06c0 1.2.599 1.761 1.499 1.761.919 0 1.44-.117 2.218-.367l.46 2.827c-1.059.445-2.378.658-3.719.658-2.82 0-4.339-1.297-4.339-3.815v-4.123h.002ZM135.068 19.9c1.42 0 2.259-.989 2.259-2.575 0-1.586-.799-2.498-2.199-2.498-1.42 0-2.239.91-2.239 2.554 0 1.552.799 2.518 2.179 2.518Zm.04-8.113c3.639 0 6.298 2.207 6.298 5.634 0 3.445-2.659 5.518-6.338 5.518-3.659 0-6.259-2.13-6.259-5.518 0-3.427 2.58-5.634 6.299-5.634ZM88.471 12.162a4.39 4.39 0 0 0-2.205-.271 3.716 3.716 0 0 0-1.09.322c-.94.45-1.671 1.475-2.065 2.39a3.533 3.533 0 0 0-2.11-2.439 4.387 4.387 0 0 0-2.204-.271 3.713 3.713 0 0 0-1.09.322c-.938.447-1.668 1.469-2.063 2.381v-.066l-.791-2.332h-3.879l.817 2.81v7.607h3.853v-6.8c.014-.05.185-.144.216-.166.451-.31.982-.63 1.547-.67.577-.041 1.145.242 1.488.686.037.049.071.097.103.148.283.46.244.989.238 1.5-.006.555.002 1.11.002 1.665-.002 1.21-.004 2.42-.004 3.63h3.88V15.82c.007-.049.185-.147.217-.168.452-.31.983-.63 1.547-.67.577-.041 1.146.242 1.49.686.035.049.07.097.102.148.282.46.244.989.238 1.5-.006.555.002 1.11.002 1.665-.002 1.21-.004 2.42-.004 3.63h3.879v-5.808c0-1.704-.252-3.897-2.114-4.64ZM150.578 11.884c-2.039 0-3.187 1.53-3.699 2.716l-.817-2.407h-3.879l.817 2.811v7.606h3.879v-7.028c.552-.094 3.552.442 4.121.643v-4.327a7.347 7.347 0 0 0-.422-.014ZM47.66 16.538l-2.201.508-1.534.338h-.014c0-.4.03-.822.13-1.21.127-.499.405-1.081.889-1.337a2.109 2.109 0 0 1 1.725-.096c.577.221.84.76.954 1.319.032.156.052.312.068.47l-.018.008Zm3.997.846c0-3.873-2.52-5.538-5.739-5.538-3.639 0-5.918 2.44-5.918 5.558C40 20.793 41.94 23 46.118 23c2.26 0 3.538-.387 5.06-1.123l-.58-2.537c-1.16.503-2.239.812-3.68.812-1.578 0-2.478-.58-2.82-1.664h7.458c.06-.291.101-.621.101-1.104Z"></path></svg>