<?xml version="1.0" encoding="UTF-8"?>
<svg version="1.1" xmlns="http://www.w3.org/2000/svg" width="2000" height="450">
<path d="M0 0 C0.81662109 0.18191895 1.63324219 0.36383789 2.47460938 0.55126953 C31.58241592 7.30887026 57.90435705 21.5324478 81.125 40.0625 C81.81851562 40.61059326 82.51203125 41.15868652 83.2265625 41.72338867 C84.87909365 43.07728746 86.44873762 44.53116164 88 46 C88 46.99 88 47.98 88 49 C87.09378906 49.07476562 86.18757813 49.14953125 85.25390625 49.2265625 C75.07969056 50.32473181 68.74057257 52.84689901 61.6875 60.25 C54.64427158 69.29436852 53.97923993 78.95822982 55 90 C57.36245874 103.60634132 66.60711148 116.70163525 73.89038086 128.23095703 C90.09270542 154.06198976 91.38229834 181.9105139 85 211 C83.35900531 217.45170017 81.18535205 223.71680557 79 230 C77.69810519 233.82991276 76.41026031 237.66447656 75.125 241.5 C74.61888184 243.00566528 74.61888184 243.00566528 74.10253906 244.54174805 C70.47026607 255.43255333 67.24604772 266.43709504 64.03515625 277.45800781 C62.20894629 283.70674698 60.35248962 289.94651209 58.5 296.1875 C57.82278951 298.47261857 57.14569393 300.7577712 56.46875 303.04296875 C55.97916667 304.6953125 55.48958333 306.34765625 55 308 C54.01 308 53.02 308 52 308 C51.71503662 307.13987305 51.43007324 306.27974609 51.13647461 305.39355469 C44.69265035 285.96137725 38.16258461 266.56073159 31.53887939 247.18911743 C26.99146302 233.88622988 22.5029862 220.56550897 18.0776062 207.22155762 C14.71816892 197.09521581 11.29140746 186.99466804 7.8085022 176.91015625 C2.54533696 161.66990719 -2.51062265 146.36918911 -7.46069336 131.02441406 C-7.97116532 129.44204888 -8.48166294 127.85969197 -8.9921875 126.27734375 C-9.23781937 125.51579987 -9.48345123 124.75425598 -9.73652649 123.96963501 C-12.43341087 115.6272446 -15.21243557 107.31245013 -18 99 C-17.29391602 98.91959473 -16.58783203 98.83918945 -15.86035156 98.75634766 C-12.6559484 98.38701411 -9.45301972 98.00613736 -6.25 97.625 C-5.13882813 97.49867188 -4.02765625 97.37234375 -2.8828125 97.2421875 C-1.27792969 97.04882812 -1.27792969 97.04882812 0.359375 96.8515625 C1.34389648 96.73635254 2.32841797 96.62114258 3.34277344 96.50244141 C5.95148346 96.00917375 7.79053144 95.46556756 10 94 C11.05588692 90.26378474 11.0440553 87.68208817 10 84 C7.60408358 83.97231932 5.2085047 83.95284495 2.8125 83.9375 C2.15830078 83.92912109 1.50410156 83.92074219 0.83007812 83.91210938 C-3.47503402 83.891706 -7.70608421 84.12294915 -11.99536133 84.49780273 C-18.62257874 85.01951769 -25.19856255 85.14509487 -31.84375 85.1328125 C-33.60108459 85.13424759 -33.60108459 85.13424759 -35.3939209 85.13571167 C-37.85099339 85.13638689 -40.30806774 85.13457896 -42.76513672 85.13037109 C-46.4906013 85.12501352 -50.21594535 85.1303387 -53.94140625 85.13671875 C-56.34635443 85.13605785 -58.75130253 85.13477645 -61.15625 85.1328125 C-62.79901917 85.13584885 -62.79901917 85.13584885 -64.47497559 85.13894653 C-71.08334804 85.11926154 -77.61042571 84.7981525 -84.19503784 84.23391724 C-87.68092955 83.94321451 -91.12722319 83.7982452 -94.625 83.75 C-95.77226562 83.72421875 -96.91953125 83.6984375 -98.1015625 83.671875 C-100.97884595 83.76984206 -100.97884595 83.76984206 -102.90234375 85.29296875 C-104.32711524 87.16129416 -104.32711524 87.16129416 -103.9375 90.5625 C-103.4021554 94.01972016 -103.4021554 94.01972016 -101.203125 95.1796875 C-98.99089033 96.0033919 -97.15835199 96.36167114 -94.8125 96.5625 C-94.03132813 96.63726562 -93.25015625 96.71203125 -92.4453125 96.7890625 C-91.63835937 96.85867187 -90.83140625 96.92828125 -90 97 C-88.39517796 97.13843513 -86.79095448 97.28403406 -85.1875 97.4375 C-84.47980469 97.49808594 -83.77210938 97.55867188 -83.04296875 97.62109375 C-80.61628296 98.0711674 -79.04699344 98.59997002 -77 100 C-75.73901367 102.29638672 -75.73901367 102.29638672 -74.66796875 105.1796875 C-74.26570068 106.2433252 -73.86343262 107.30696289 -73.44897461 108.40283203 C-72.82454468 110.12155518 -72.82454468 110.12155518 -72.1875 111.875 C-71.74736572 113.05304199 -71.30723145 114.23108398 -70.85375977 115.44482422 C-68.01175334 123.09506373 -65.27572002 130.78229537 -62.62060547 138.49926758 C-59.62305886 147.19004057 -56.36461837 155.78058343 -53.11328125 164.37890625 C-52.76990723 165.31105957 -52.4265332 166.24321289 -52.07275391 167.20361328 C-51.34779398 169.09339275 -50.56672426 170.9624445 -49.73583984 172.80810547 C-49.14536865 174.18506592 -49.14536865 174.18506592 -48.54296875 175.58984375 C-48.17582764 176.39156006 -47.80868652 177.19327637 -47.43041992 178.01928711 C-46.75251582 182.71385955 -48.46939684 186.58610854 -50 191 C-50.49888849 192.56425352 -50.994426 194.1295804 -51.48632812 195.69604492 C-52.00001319 197.29126848 -52.51502655 198.88606482 -53.03125 200.48046875 C-53.30843872 201.33755936 -53.58562744 202.19464996 -53.87121582 203.07771301 C-54.45209907 204.87191481 -55.03360744 206.66591433 -55.61572266 208.4597168 C-56.50088542 211.19023129 -57.38132701 213.92224093 -58.26171875 216.65429688 C-58.8304389 218.40894827 -59.39943966 220.16350875 -59.96875 221.91796875 C-60.35794617 223.12914619 -60.35794617 223.12914619 -60.75500488 224.36479187 C-62.27735675 229.03487874 -64.01796499 233.50605789 -66 238 C-66.49111949 239.5105645 -66.95312603 241.03115228 -67.375 242.5625 C-68.91930466 247.90254297 -70.79980398 253.09690312 -72.71875 258.3125 C-73.68733967 261.10014831 -74.57383466 263.86811144 -75.41015625 266.6953125 C-77.11792731 272.46790607 -79.01976917 278.16929418 -80.9375 283.875 C-81.27201172 284.87402344 -81.60652344 285.87304688 -81.95117188 286.90234375 C-82.62298225 288.90871386 -83.29533901 290.91490112 -83.96826172 292.92089844 C-85.65178399 297.94517265 -87.32587116 302.97258943 -89 308 C-90.32 308 -91.64 308 -93 308 C-93.32162109 307.03513672 -93.64324219 306.07027344 -93.97460938 305.07617188 C-94.18936417 304.43191254 -94.40411896 303.7876532 -94.62538147 303.12387085 C-95.11175227 301.66474811 -95.59811055 300.2056212 -96.0844574 298.74649048 C-97.44737255 294.65755711 -98.81052052 290.56870159 -100.17407227 286.47998047 C-104.9249858 272.23268906 -104.9249858 272.23268906 -107.12109375 265.6015625 C-111.38420193 252.74007744 -115.760051 239.91894878 -120.15631104 227.10253906 C-124.0914268 215.62637468 -127.98365169 204.13706494 -131.8125 192.625 C-132.04105682 191.9378894 -132.26961365 191.25077881 -132.50509644 190.54284668 C-134.35361245 184.98340248 -136.19776909 179.4225188 -138.03955078 173.86083984 C-143.33906723 157.86032511 -148.77738968 141.90907062 -154.24935913 125.96687317 C-155.2710372 122.98677354 -156.28834231 120.00518737 -157.3059082 117.02368164 C-157.95717377 115.1248634 -158.61790563 113.22929943 -159.27929688 111.33398438 C-159.64603516 110.26986328 -160.01277344 109.20574219 -160.390625 108.109375 C-160.70547852 107.20670898 -161.02033203 106.30404297 -161.34472656 105.37402344 C-162 103 -162 103 -162 99 C-159.31207962 98.10402654 -157.26507518 97.76585766 -154.47265625 97.53515625 C-153.16071289 97.41817383 -153.16071289 97.41817383 -151.82226562 97.29882812 C-149.98662833 97.14163626 -148.15068532 96.98797357 -146.31445312 96.83789062 C-145.43853516 96.75861328 -144.56261719 96.67933594 -143.66015625 96.59765625 C-142.86230713 96.53070557 -142.06445801 96.46375488 -141.24243164 96.39477539 C-138.79346191 95.9636394 -137.08406381 95.35766332 -135 94 C-134.00815769 90.41410857 -133.81570868 88.55287397 -135 85 C-137.81588738 83.59205631 -140.16771104 83.86800381 -143.3125 83.875 C-144.44300781 83.87242188 -145.57351562 83.86984375 -146.73828125 83.8671875 C-150.06195409 83.92462565 -153.33850664 84.2026139 -156.6484375 84.50390625 C-166.19124012 85.2738752 -175.74633386 85.10647665 -185.3125 85.0625 C-187.22851445 85.05747279 -189.14453018 85.05291206 -191.06054688 85.04882812 C-195.70706353 85.03792424 -200.35351721 85.02072757 -205 85 C-200.68083885 65.40896617 -173.51129936 44.28870782 -158 33 C-157.43651855 32.58685547 -156.87303711 32.17371094 -156.29248047 31.74804688 C-133.73012022 15.41670266 -108.18037642 4.65925726 -81 -1 C-80.22092285 -1.16516113 -79.4418457 -1.33032227 -78.63916016 -1.50048828 C-53.20497744 -6.63618565 -25.22562789 -5.64745937 0 0 Z " fill="#000000" transform="translate(268,35)"/>
<path d="M0 0 C11.65766071 -0.04650074 23.31529906 -0.08195893 34.97303391 -0.10362434 C40.3871668 -0.11402673 45.80123586 -0.1281207 51.21533203 -0.15087891 C56.44786449 -0.17273431 61.68033585 -0.18459524 66.91291046 -0.18975449 C68.90142019 -0.19342757 70.88992688 -0.20059968 72.87841034 -0.21146011 C93.66412566 -0.32038921 112.95464276 1.45132202 128.8125 16.4375 C137.37370747 25.4545125 138.5823465 35.70417224 138.30859375 47.609375 C137.82859486 57.00221642 133.46713862 64.32812887 127 71 C118.88142384 78.19630591 109.5582241 82.58305713 99 85 C105.95053272 92.8147524 113.02285083 100.51312471 120.21240234 108.10839844 C121.37578424 109.33946685 122.53518828 110.57431068 123.68994141 111.81347656 C131.12240513 119.76530662 138.28596706 125.88536687 148 131 C149.13888672 131.67869141 149.13888672 131.67869141 150.30078125 132.37109375 C156.13961079 135.36829044 162.18703466 135.43809487 168.625 135.5625 C169.52025391 135.58957031 170.41550781 135.61664063 171.33789062 135.64453125 C177.69737918 135.60687329 182.17778569 134.2606922 187 130 C188.49641426 127.93413875 188.49641426 127.93413875 188.9375 125.6875 C189.13214844 124.99011719 189.32679688 124.29273438 189.52734375 123.57421875 C190.67060407 117.34770182 191.14935585 111.26334727 191.14526367 104.93847656 C191.14862228 104.17629822 191.1519809 103.41411987 191.15544128 102.62884521 C191.16486618 100.13275479 191.16689019 97.63673207 191.16796875 95.140625 C191.17118752 93.38718642 191.17455205 91.6337481 191.17805481 89.88031006 C191.18402518 86.21219257 191.1858969 82.54409856 191.18530273 78.87597656 C191.18520131 74.20498596 191.19884306 69.53414802 191.21607494 64.86319351 C191.22726373 61.24264858 191.22921983 57.62213973 191.22869301 54.00157928 C191.22986318 52.28101832 191.23423003 50.56045612 191.24202538 48.83991241 C191.69949857 31.72134265 191.69949857 31.72134265 186 16 C186 15.34 186 14.68 186 14 C178.2972024 11.86257449 170.98030063 10.52501978 163 10 C163 6.7 163 3.4 163 0 C175.27503915 -0.04653113 187.550057 -0.08197417 199.8251667 -0.10362434 C205.52621726 -0.11402019 211.22720706 -0.12810193 216.92822266 -0.15087891 C222.43956975 -0.17275798 227.95085874 -0.18460013 233.46224594 -0.18975449 C235.55516345 -0.19342338 237.64807813 -0.20058704 239.74097061 -0.21146011 C265.34369859 -0.33906989 290.74673529 2.81541176 311 20 C311.81210938 20.61359375 312.62421875 21.2271875 313.4609375 21.859375 C324.32881443 31.02183124 330.31994805 45.37973596 333 59 C333.3403125 60.670625 333.3403125 60.670625 333.6875 62.375 C335.37672218 81.96997733 332.25066111 101.09661883 320 117 C319.37609375 117.81210937 318.7521875 118.62421875 318.109375 119.4609375 C303.90147789 136.56303587 280.68506052 144.97466224 259 147 C254.37204557 147.18295252 249.74466467 147.21903683 245.11352539 147.25634766 C243.70676893 147.27081617 242.30001541 147.28557408 240.89326477 147.30059814 C228.1005553 147.43037616 215.30700926 147.49665992 202.51377201 147.54844093 C193.0673692 147.58738611 183.62215451 147.65586601 174.17627341 147.76298869 C167.52045546 147.83591323 160.8649623 147.87428543 154.20876116 147.88746679 C150.23856773 147.89631513 146.26984973 147.92042827 142.30009651 147.98213577 C138.56565118 148.03953674 134.83343633 148.05401481 131.09861565 148.03626251 C129.08417397 148.03755387 127.06991353 148.0834436 125.05603027 148.13088989 C116.3452708 148.03162734 116.3452708 148.03162734 112.45933342 145.0516777 C110.42591402 142.79332706 108.69765577 140.51662645 107 138 C106.05234526 136.80759175 105.09728465 135.62095285 104.12890625 134.4453125 C103.27073043 133.34063937 102.41526544 132.23385507 101.5625 131.125 C98.2581659 126.87330142 94.92588489 122.65518775 91.5 118.5 C88.10596412 114.37867072 84.79001156 110.20418792 81.5 106 C80.56906946 104.81896388 79.63808044 103.63797384 78.70703125 102.45703125 C76.94873627 100.22335235 75.22025906 97.97111928 73.51171875 95.69921875 C72.74472656 94.70535156 71.97773437 93.71148437 71.1875 92.6875 C70.52105469 91.80449219 69.85460937 90.92148438 69.16796875 90.01171875 C66.47629677 87.51404115 64.57224672 87.46673947 61 87 C59.85781796 110.08818476 59.85781796 110.08818476 67.359375 130.7265625 C72.61987123 135.25556961 77.05875205 135.3527807 83.77539062 135.56640625 C85.52112932 135.64536788 87.26223979 135.81553329 89 136 C90.62651522 139.25303044 90.11453156 142.39225602 90 146 C88.17761338 147.82238662 85.65243917 147.11997696 83.2275238 147.12442017 C82.39890335 147.12082489 81.5702829 147.11722961 80.71655273 147.11352539 C79.41423203 147.11374443 79.41423203 147.11374443 78.08560181 147.1139679 C75.20157414 147.11326846 72.3176102 147.10547463 69.43359375 147.09765625 C67.43962133 147.09579218 65.44564845 147.09436823 63.45167542 147.09336853 C58.19254298 147.08954248 52.93343797 147.07971145 47.67431641 147.06866455 C42.31217825 147.0584523 36.95003569 147.05387131 31.58789062 147.04882812 C21.05858167 147.03808926 10.52929311 147.0210118 0 147 C-0.02688151 145.35425434 -0.04634123 143.70838587 -0.0625 142.0625 C-0.07410156 141.14597656 -0.08570313 140.22945312 -0.09765625 139.28515625 C0 137 0 137 1 136 C4.46050175 135.75249391 7.92027118 135.61565966 11.38671875 135.4765625 C15.18780495 134.97523005 17.66426817 133.826594 21 132 C21.66 132 22.32 132 23 132 C23.483059 130.60550891 23.96125517 129.20933293 24.4375 127.8125 C24.70433594 127.03519531 24.97117187 126.25789063 25.24609375 125.45703125 C26.90338524 120.05580664 27.14841279 114.93822847 27.14526367 109.31347656 C27.14862228 108.44938171 27.1519809 107.58528687 27.15544128 106.69500732 C27.16492555 103.84353184 27.16689328 100.99211527 27.16796875 98.140625 C27.1711836 96.15150936 27.17454784 94.16239396 27.17805481 92.17327881 C27.18404013 88.00385999 27.18589537 83.83446188 27.18530273 79.66503906 C27.18520126 74.33788763 27.19884049 69.01086994 27.21607494 63.68375015 C27.22722751 59.57435504 27.22922092 55.46499189 27.22869301 51.35558319 C27.22986871 49.39250987 27.23426737 47.4294356 27.24202538 45.46637726 C27.25188903 42.71219189 27.24892197 39.95829212 27.24291992 37.20410156 C27.25134918 36.00207092 27.25134918 36.00207092 27.25994873 34.77575684 C27.22387762 28.21921577 26.83313378 21.07370974 22.9375 15.5625 C16.70147911 10.12256688 7.93768225 10.60286194 0 10 C0 6.7 0 3.4 0 0 Z M61 15 C61 33.48 61 51.96 61 71 C81.6180851 72.12930638 81.6180851 72.12930638 98.34375 63.03515625 C104.43439247 55.55113567 105.87375871 46.36863507 105 37 C102.99712421 28.77079295 99.88842067 22.20709789 92.5 17.6875 C82.31136165 12.77512079 72.99305226 15 61 15 Z M224 15 C223.95352234 27.70073262 223.91805264 40.40144477 223.89637566 53.10224533 C223.8859683 59.00064869 223.87186505 64.89899357 223.84912109 70.79736328 C223.82728368 76.49673278 223.81540848 82.19604627 223.81024551 87.89545441 C223.80656925 90.06259288 223.79939076 92.22972853 223.78853989 94.39684296 C222.48233912 112.24555953 222.48233912 112.24555953 227.85079956 128.22332764 C233.31871551 132.74347149 241.24670998 132.57758402 248 132 C262.3567037 130.00114999 275.57387097 126.99577265 285.19921875 115.3359375 C297.25251837 98.44795023 299.15432255 76.35002332 295.8125 56.3125 C293.34115052 42.98191784 288.3363719 31.48031701 277.25 23.1875 C267.77327255 16.9706514 257.99906509 14.85408127 246.75390625 14.90234375 C246.09792953 14.9037587 245.44195282 14.90517365 244.76609802 14.90663147 C242.69818298 14.91216969 240.63038158 14.92470998 238.5625 14.9375 C237.14909012 14.94252301 235.73567852 14.9470845 234.32226562 14.95117188 C230.88147432 14.96211874 227.44074828 14.97933962 224 15 Z " fill="#000000" transform="translate(909,161)"/>
<path d="M0 0 C11.65766071 -0.04650074 23.31529906 -0.08195893 34.97303391 -0.10362434 C40.3871668 -0.11402673 45.80123586 -0.1281207 51.21533203 -0.15087891 C56.44786449 -0.17273431 61.68033585 -0.18459524 66.91291046 -0.18975449 C68.90142019 -0.19342757 70.88992688 -0.20059968 72.87841034 -0.21146011 C99.22493046 -0.34953103 99.22493046 -0.34953103 111.1875 5.1875 C112.20529541 5.64987061 112.20529541 5.64987061 113.24365234 6.12158203 C123.96214508 11.1642214 130.8312287 17.89077321 135.8125 28.6875 C139.44680159 38.82528865 138.54868147 48.9454025 135 59 C129.01767497 71.19473948 118.11632109 77.87222519 106 83 C103.30357621 83.88568665 100.79726267 84.49649272 98 85 C98.49628906 85.4846875 98.99257812 85.969375 99.50390625 86.46875 C102.82276948 89.74352966 106.08528239 93.02523271 109.125 96.5625 C130.85874413 122.59070957 130.85874413 122.59070957 161.1484375 135.3359375 C170.8054305 135.52106612 170.8054305 135.52106612 179 131 C186.55220243 120.75373705 184.1515831 104.57058705 184.1328125 92.4375 C184.13348854 90.87296534 184.13446105 89.30843079 184.13571167 87.74389648 C184.13717453 84.48648058 184.13508001 81.22909234 184.13037109 77.97167969 C184.12467469 73.83344824 184.12796133 69.69528169 184.13394356 65.55705261 C184.13758761 62.33279955 184.13639309 59.10856142 184.13381577 55.88430786 C184.13315708 54.35995475 184.13393706 52.83560021 184.13629532 51.31124878 C185.134081 31.67269209 185.134081 31.67269209 177.6171875 14.359375 C172.3446674 9.92740158 162.48463598 10.492504 156 10 C156 6.7 156 3.4 156 0 C199.23 0 242.46 0 287 0 C288.06745927 3.20237782 288.30104062 5.88449774 288.53515625 9.25 C288.62216797 10.49910156 288.70917969 11.74820313 288.79882812 13.03515625 C288.88583984 14.34355469 288.97285156 15.65195313 289.0625 17 C289.19881836 18.91619141 289.19881836 18.91619141 289.33789062 20.87109375 C289.8408822 28.26090979 290.12992473 35.59332776 290 43 C287.03 43 284.06 43 281 43 C280.62488281 41.75863281 280.24976563 40.51726562 279.86328125 39.23828125 C279.3471667 37.59609858 278.83019416 35.95418539 278.3125 34.3125 C278.06822266 33.49587891 277.82394531 32.67925781 277.57226562 31.83789062 C275.48649275 25.31655012 272.91019482 21.53746141 266.6875 18.25 C259.9228433 15.95689604 252.98704318 15.83324466 245.90625 15.68359375 C245.16729492 15.66494263 244.42833984 15.6462915 243.66699219 15.6270752 C240.94476617 15.55952304 238.22237167 15.49890257 235.5 15.4375 C229.395 15.293125 223.29 15.14875 217 15 C217 30.18 217 45.36 217 61 C232.15282115 61.33541225 232.15282115 61.33541225 248 57 C250.02804163 52.58176644 250.55881079 47.91440377 251.125 43.125 C251.21136719 42.43664062 251.29773437 41.74828125 251.38671875 41.0390625 C251.59659566 39.36004725 251.79907087 37.68010952 252 36 C255.3 36 258.6 36 262 36 C262 58.11 262 80.22 262 103 C258.7 103 255.4 103 252 103 C251.89042969 101.98679687 251.78085938 100.97359375 251.66796875 99.9296875 C251.50840107 98.57805539 251.34821167 97.22649657 251.1875 95.875 C251.11724609 95.20984375 251.04699219 94.5446875 250.97460938 93.859375 C250.4189406 89.32511781 249.72898908 85.69941546 247 82 C240.90338351 78.65146711 233.73827099 78.32835528 226.9375 77.8125 C225.97650391 77.73064453 225.01550781 77.64878906 224.02539062 77.56445312 C221.68422227 77.36644386 219.34272368 77.17848408 217 77 C217.09489618 81.1954915 217.20125318 85.39050437 217.31738281 89.58544922 C217.35522034 91.00692184 217.39014384 92.42847561 217.421875 93.85009766 C217.16213862 110.7869107 217.16213862 110.7869107 223 126 C235.00530992 134.39285241 253.72804955 131.57577879 267.51953125 129.62890625 C273.58595776 128.53272817 279.23626874 127.24233997 283 122 C284.51615744 118.7295148 285.77145309 115.38735157 287 112 C287.58257134 110.45804523 288.16582382 108.91634749 288.75 107.375 C289.1625 106.26125 289.575 105.1475 290 104 C292.97 104 295.94 104 299 104 C297.515 125.285 297.515 125.285 296 147 C272.49460427 147.36169103 248.99147358 147.65619769 225.4839983 147.82899475 C214.56815023 147.91137324 203.65415825 148.02359982 192.73950195 148.20703125 C183.22203777 148.36690475 173.70591795 148.46982191 164.18714827 148.50541592 C159.14978782 148.52621385 154.11627178 148.57478972 149.0801487 148.69168091 C115.9663047 149.43081731 115.9663047 149.43081731 108.77767944 143.58862305 C105.80567457 140.39779904 103.79964131 137.02725783 102.02069664 133.06472778 C100.28288204 129.54936979 97.7493476 126.6833638 95.25 123.6875 C94.34399153 122.53672999 93.44113673 121.38346234 92.54296875 120.2265625 C89.55372089 116.41838879 86.48182909 112.68001778 83.40625 108.94140625 C80.4367155 105.31143957 77.49600769 101.6591072 74.5625 98 C74.04179932 97.35232666 73.52109863 96.70465332 72.98461914 96.03735352 C72.49598389 95.42690186 72.00734863 94.8164502 71.50390625 94.1875 C71.06892822 93.64480469 70.6339502 93.10210937 70.18579102 92.54296875 C69.05875649 91.07645481 68.02595096 89.53892644 67 88 C63.93443402 87.26656572 63.93443402 87.26656572 61 87 C61.04463204 91.49898651 61.11495032 95.99667738 61.20751953 100.49487305 C61.23547686 102.02015422 61.25681487 103.54557347 61.27099609 105.07104492 C61.36066705 114.17862475 61.5133018 122.77844978 66 131 C71.36897027 136.01103892 77.84237595 135.58364301 84.8671875 135.82421875 C88 136 88 136 89 137 C89 140.3 89 143.6 89 147 C59.63 147 30.26 147 0 147 C0 143.37 0 139.74 0 136 C1.50240234 135.96132813 1.50240234 135.96132813 3.03515625 135.921875 C13.29165263 135.76782781 13.29165263 135.76782781 22 131 C26.68974731 123.49350044 27.15062144 115.4344318 27.14526367 106.76074219 C27.14862228 105.96784286 27.1519809 105.17494354 27.15544128 104.35801697 C27.16488724 101.75428674 27.1668913 99.15062127 27.16796875 96.546875 C27.17118613 94.72235081 27.17455056 92.89782688 27.17805481 91.07330322 C27.18403048 87.2537781 27.18589636 83.43427556 27.18530273 79.61474609 C27.18520129 74.74521325 27.19884205 69.8758268 27.21607494 65.00632858 C27.22725099 61.23827463 27.22922021 57.47025541 27.22869301 53.70218658 C27.22986513 51.90823106 27.23424325 50.11427441 27.24202538 48.32033539 C27.88270924 30.89016696 27.88270924 30.89016696 22 15 C17.2696901 12.10607929 13.01943968 11.34414008 7.625 10.8125 C6.88894531 10.73064453 6.15289063 10.64878906 5.39453125 10.56445312 C3.59745375 10.36607444 1.79885107 10.18159423 0 10 C0 6.7 0 3.4 0 0 Z M61 15 C60.67 33.48 60.34 51.96 60 71 C79.82028096 71.99561578 79.82028096 71.99561578 97 64 C104.35177047 55.41952138 104.87617931 47.04819225 104.23828125 36.13330078 C103.44013853 28.98763365 99.49141509 23.77235278 94.13671875 19.25390625 C82.6623146 12.52029796 75.84853451 15 61 15 Z " fill="#000000" transform="translate(1419,161)"/>
<path d="M0 0 C32.67 0 65.34 0 99 0 C99 3.63 99 7.26 99 11 C97.69804688 11.09796875 96.39609375 11.1959375 95.0546875 11.296875 C93.32804659 11.44701769 91.60148804 11.59810956 89.875 11.75 C89.0190625 11.811875 88.163125 11.87375 87.28125 11.9375 C81.8653579 12.4374285 78.24046124 13.30712588 74 17 C70.01702442 23.46372162 72.80169531 31.93357109 74.4256897 38.79501343 C76.3010624 45.99525276 78.89574499 52.99122967 81.375 60 C81.94624242 61.63509208 82.51655845 63.27050811 83.0859375 64.90625 C83.92490989 67.31541756 84.76446384 69.7243619 85.60723877 72.13220215 C89.12453013 82.1855728 92.5842107 92.25308331 95.5 102.5 C97.77931237 110.41174648 100.33525174 118.20986361 103 126 C115.68397121 89.67898372 127.98687266 53.22407113 140.08618164 16.70458984 C140.41018448 15.72831635 140.73418732 14.75204285 141.06800842 13.7461853 C141.67377151 11.9206346 142.27828289 10.0946679 142.8813324 8.26821899 C143.14736771 7.46685516 143.41340302 6.66549133 143.6875 5.83984375 C143.91824219 5.14238037 144.14898438 4.44491699 144.38671875 3.72631836 C145 2 145 2 146 0 C149.63 0 153.26 0 157 0 C162.95306685 17.25942747 168.87886141 34.52813246 174.67297363 51.8416748 C175.17362147 53.33690357 175.67529171 54.83179049 176.17810059 56.32629395 C178.74779375 63.9694505 181.21642613 71.6234071 183.453125 79.37109375 C186.13389627 88.65240426 189.21083055 97.78987023 192.3125 106.9375 C193.39538015 110.13296188 194.47423573 113.32974307 195.55078125 116.52734375 C195.79758133 117.25114731 196.04438141 117.97495087 196.29866028 118.72068787 C198 123.77455407 198 123.77455407 198 126 C198.66 126 199.32 126 200 126 C200.2467749 124.76620605 200.4935498 123.53241211 200.74780273 122.26123047 C202.07700198 116.29795305 204.04601252 110.59065962 206.03515625 104.8203125 C206.43270615 103.6541037 206.83025604 102.4878949 207.23985291 101.28634644 C208.50959206 97.56435043 209.78577591 93.84460512 211.0625 90.125 C211.89303888 87.69677213 212.72312069 85.26838787 213.55273438 82.83984375 C214.16754166 81.0407254 214.16754166 81.0407254 214.79476929 79.20526123 C215.6224634 76.77970714 216.44865315 74.35363918 217.27334595 71.92706299 C219.35148244 65.81300574 221.45037461 59.70790348 223.59326172 53.61621094 C224.41532403 51.24163509 225.23711204 48.86696426 226.05859375 46.4921875 C226.44104752 45.42598175 226.82350128 44.359776 227.21754456 43.26126099 C230.0428947 35.0154938 232.55854125 25.83968074 229.8125 17.3125 C227.49670049 14.35785924 225.48530884 13.2774644 221.80175781 12.58935547 C221.02670898 12.51604004 220.25166016 12.44272461 219.453125 12.3671875 C218.60878906 12.28339844 217.76445313 12.19960937 216.89453125 12.11328125 C216.02183594 12.03464844 215.14914062 11.95601562 214.25 11.875 C213.36183594 11.78863281 212.47367188 11.70226562 211.55859375 11.61328125 C209.37306898 11.40177885 207.18661256 11.19994317 205 11 C205 7.37 205 3.74 205 0 C232.72 0 260.44 0 289 0 C289 3.63 289 7.26 289 11 C287.74445313 11.08636719 286.48890625 11.17273438 285.1953125 11.26171875 C270.43104169 12.18962599 270.43104169 12.18962599 258.21484375 19.82421875 C252.99376409 26.35377538 249.7737804 34.09285618 247.1015625 41.94921875 C246.84766754 42.68218674 246.59377258 43.41515472 246.33218384 44.17033386 C245.54744242 46.44445549 244.7719534 48.72150833 244 51 C243.76373901 51.69659729 243.52747803 52.39319458 243.28405762 53.11090088 C241.62884006 58.00520044 240.00018873 62.90816459 238.375 67.8125 C237.85563498 69.37570628 237.33609951 70.93885594 236.81640625 72.50195312 C235.74251237 75.7323686 234.66933369 78.96302029 233.59667969 82.19384766 C231.31835603 89.05424865 229.03101049 95.91163985 226.74395752 102.76913452 C225.49556541 106.51262092 224.24781667 110.25632176 223 114 C222.50000305 115.50000102 222.00000305 117.00000102 221.5 118.5 C221.2525 119.2425 221.005 119.985 220.75 120.75 C218.5 127.50000001 218.5 127.50000001 217.75015259 129.74951172 C217.24961955 131.25113119 216.74911097 132.75275881 216.24862671 134.25439453 C215.00698143 137.97968353 213.76492638 141.70483485 212.52197266 145.4296875 C210.17174147 152.47427806 207.82597034 159.52027614 205.49359131 166.57080078 C204.38868717 169.91000988 203.28158924 173.24848978 202.17431641 176.58691406 C201.64587243 178.18225317 201.11850981 179.77795091 200.59228516 181.37402344 C199.86371719 183.58359179 199.13147051 185.79190965 198.3984375 188 C198.18440277 188.65242676 197.97036804 189.30485352 197.74984741 189.97705078 C196.70394558 193.11553902 195.58260492 196.09113398 194 199 C191.69 199 189.38 199 187 199 C183.1219793 190.08792506 180.26061119 180.82798006 177.28781128 171.58734131 C175.72864992 166.74091463 174.15883913 161.89793762 172.58984375 157.0546875 C172.12328117 155.61314804 172.12328117 155.61314804 171.64729309 154.14248657 C169.12822164 146.36917774 166.54551661 138.61894569 163.9375 130.875 C159.20637827 116.80404289 154.73593414 102.65258636 150.28881836 88.48974609 C150.01871445 87.63174911 149.74861053 86.77375214 149.47032166 85.88975525 C148.96296491 84.277632 148.45721769 82.66500097 147.9533844 81.05177307 C147.00748011 78.04782947 146.05477007 75.13013615 144.83203125 72.22485352 C144 70 144 70 144 66 C143.34 66 142.68 66 142 66 C141.79890625 67.26972656 141.5978125 68.53945312 141.390625 69.84765625 C139.87394444 77.39538801 137.20571848 84.56464793 134.66720581 91.81576538 C133.07143536 96.37710439 131.49843217 100.94627267 129.92578125 105.515625 C129.59957291 106.46261765 129.27336456 107.40961029 128.93727112 108.38529968 C125.48298779 118.44698051 122.2047296 128.5638735 118.9375 138.6875 C114.29851697 153.03859036 109.5617679 167.35200534 104.6875 181.625 C104.40437958 182.45712006 104.12125916 183.28924011 103.82955933 184.14657593 C103.03953573 186.46609449 102.24527336 188.78410787 101.44921875 191.1015625 C101.21450867 191.7909642 100.97979858 192.48036591 100.73797607 193.19065857 C99.11552813 197.88447187 99.11552813 197.88447187 98 199 C95.125 199.375 95.125 199.375 92 199 C89.53387318 195.60936345 88.22826744 192.11240801 86.9765625 188.13671875 C86.60208984 186.96036865 86.22761719 185.78401855 85.84179688 184.57202148 C85.64448975 183.94206268 85.44718262 183.31210388 85.24389648 182.66305542 C84.6091345 180.63685634 83.96673653 178.6132186 83.32226562 176.59008789 C82.62482832 174.40042966 81.92786956 172.21063057 81.23309326 170.02012634 C78.36487151 160.97871297 75.43282434 151.95812089 72.5 142.9375 C72.22263 142.08327454 71.94526001 141.22904907 71.65948486 140.34893799 C67.77553943 128.38859691 63.82376124 116.45363583 59.81298828 104.53515625 C56.79482349 95.51350769 53.92585597 86.44999557 51.08007812 77.37280273 C45.16034632 58.31108063 45.16034632 58.31108063 38.5 39.5 C38.21044434 38.73163818 37.92088867 37.96327637 37.62255859 37.17163086 C35.81958068 32.58465832 33.62115771 28.33288074 31.16601562 24.06054688 C30 22 30 22 28.95898438 19.80273438 C27.68132046 17.40093439 26.49354348 17.03897645 24 16 C23.15566406 15.50757813 22.31132812 15.01515625 21.44140625 14.5078125 C17.15609624 12.63025329 13.31201799 12.28980891 8.6875 11.9375 C5.76415183 11.70628765 2.90903178 11.4011433 0 11 C-1.49297212 8.01405576 -1.11755228 5.29146376 -1 2 C-0.67 1.34 -0.34 0.68 0 0 Z " fill="#000000" transform="translate(468,117)"/>
<path d="M0 0 C494.01 0 988.02 0 1497 0 C1497 3.96 1497 7.92 1497 12 C1002.99 12 508.98 12 0 12 C0 8.04 0 4.08 0 0 Z " fill="#000000" transform="translate(503,340)"/>
<path d="M0 0 C3.53424665 0.01609135 7.06735014 0.00005823 10.6015625 -0.01904297 C27.1742598 -0.03476377 43.08180967 1.20199028 59.1015625 5.70361328 C59.87129395 5.91381104 60.64102539 6.12400879 61.43408203 6.34057617 C74.60593157 10.00836364 87.27183624 14.30141624 99.5390625 20.39111328 C100.83815203 21.01692275 102.13765161 21.64188155 103.4375 22.26611328 C123.82038609 32.1413249 142.72894921 44.90193043 158.91601562 60.80322266 C160.66355143 62.5129057 162.43669598 64.19355902 164.2109375 65.87548828 C177.68269912 78.80900049 188.64895359 93.58793714 198.5390625 109.39111328 C198.90950684 109.97554199 199.27995117 110.5599707 199.66162109 111.16210938 C211.72289663 130.45270828 219.33560626 152.35102577 224.5390625 174.39111328 C224.85359375 175.65826172 225.168125 176.92541016 225.4921875 178.23095703 C229.09645221 193.65508984 229.92469341 209.29856652 229.8515625 225.07861328 C229.84882828 226.31561478 229.84882828 226.31561478 229.84603882 227.5776062 C229.74503508 254.85355015 225.05789089 280.80226285 215.5390625 306.39111328 C215.12430664 307.51501465 215.12430664 307.51501465 214.70117188 308.66162109 C209.50241392 322.47999016 202.33912198 334.89125137 194.5390625 347.39111328 C194.16281738 348.00567383 193.78657227 348.62023437 193.39892578 349.25341797 C178.91888396 372.85105706 158.14065847 393.60110941 135.5390625 409.39111328 C134.90162109 409.84131836 134.26417969 410.29152344 133.60742188 410.75537109 C109.64345233 427.5745732 83.22526654 439.22725298 54.7890625 446.14111328 C53.56703125 446.43937012 53.56703125 446.43937012 52.3203125 446.74365234 C49.73453313 447.3437755 47.14392436 447.88015513 44.5390625 448.39111328 C43.60634521 448.57947754 42.67362793 448.7678418 41.71264648 448.96191406 C30.44155925 450.90961642 19.08124543 450.76328264 7.67504883 450.76171875 C4.14028762 450.76606566 0.60680495 450.80240832 -2.92773438 450.84033203 C-22.18983515 450.93651799 -40.55531852 448.56709768 -59.0859375 443.20361328 C-60.62785767 442.76359985 -60.62785767 442.76359985 -62.20092773 442.31469727 C-72.68230084 439.20943409 -82.58102208 435.03634879 -92.4609375 430.39111328 C-93.52465576 429.90239746 -93.52465576 429.90239746 -94.60986328 429.40380859 C-117.58802591 418.80188321 -137.24288375 403.79834962 -155.4609375 386.39111328 C-156.17805908 385.70686279 -156.17805908 385.70686279 -156.90966797 385.00878906 C-163.32309962 378.85387666 -169.13861439 372.50631772 -174.4609375 365.39111328 C-174.93257324 364.76881836 -175.40420898 364.14652344 -175.89013672 363.50537109 C-195.77081909 337.17539289 -209.49052577 308.54203167 -217.2734375 276.45361328 C-217.4684082 275.65060791 -217.66337891 274.84760254 -217.86425781 274.02026367 C-218.4475789 271.48508027 -218.9658811 268.94499041 -219.4609375 266.39111328 C-219.74239624 265.00291382 -219.74239624 265.00291382 -220.02954102 263.58666992 C-222.00211617 252.2366814 -221.79772691 240.79346607 -221.77661133 229.30737305 C-221.77345973 225.72885408 -221.79694606 222.15117074 -221.82226562 218.57275391 C-221.85937513 205.20609608 -221.1319169 192.49547717 -218.4609375 179.39111328 C-218.26749756 178.40715576 -218.07405762 177.42319824 -217.87475586 176.40942383 C-217.39339102 174.11485022 -216.85795227 171.84886142 -216.2734375 169.57861328 C-215.96369995 168.36467896 -215.96369995 168.36467896 -215.64770508 167.1262207 C-207.55817295 136.67921141 -193.11465435 108.93825896 -173.4609375 84.39111328 C-173.01427734 83.82875977 -172.56761719 83.26640625 -172.10742188 82.68701172 C-161.64921652 69.61812844 -149.78859215 57.53331201 -136.4609375 47.39111328 C-135.92597656 46.97442383 -135.39101562 46.55773438 -134.83984375 46.12841797 C-124.62127358 38.18643401 -113.81527507 31.58278337 -102.4609375 25.39111328 C-101.83864258 25.05096191 -101.21634766 24.71081055 -100.57519531 24.36035156 C-86.22977438 16.62126802 -71.09971685 10.87970011 -55.3984375 6.57861328 C-53.89458496 6.16192383 -53.89458496 6.16192383 -52.36035156 5.73681641 C-34.90713293 1.15764446 -18.00898968 -0.0973324 0 0 Z M-54.4609375 19.39111328 C-55.3286377 19.64908691 -56.19633789 19.90706055 -57.09033203 20.17285156 C-89.997919 30.16532436 -119.20456092 46.93999649 -143.93896484 70.91601562 C-145.46365985 72.39375179 -147.00304043 73.85506084 -148.54296875 75.31689453 C-155.95240727 82.44235585 -162.36102972 90.12596207 -168.4609375 98.39111328 C-169.22019531 99.41720703 -169.97945312 100.44330078 -170.76171875 101.50048828 C-181.41880859 116.41662823 -190.01850291 132.23414537 -196.4609375 149.39111328 C-196.77015137 150.20773438 -197.07936523 151.02435547 -197.39794922 151.86572266 C-216.89264896 204.24562681 -213.9980468 263.22740943 -191.50195312 314.21899414 C-173.02839948 353.88426739 -142.61809694 386.68396029 -105.4609375 409.39111328 C-104.53796875 409.98150391 -103.615 410.57189453 -102.6640625 411.18017578 C-57.83467917 438.91360784 0.42817242 445.60368905 51.2890625 434.14111328 C81.27794093 426.93743294 110.44682085 413.8287994 134.5390625 394.39111328 C135.53808594 393.59576172 136.53710938 392.80041016 137.56640625 391.98095703 C151.82928634 380.40431941 164.74730788 367.25916156 175.5390625 352.39111328 C176.68568359 350.84423828 176.68568359 350.84423828 177.85546875 349.26611328 C184.21571559 340.41707421 189.49456891 331.03763763 194.5390625 321.39111328 C194.89887207 320.7056543 195.25868164 320.02019531 195.62939453 319.31396484 C217.57310506 276.87088768 222.93419022 225.85186308 212.5390625 179.39111328 C212.29397949 178.29138184 212.29397949 178.29138184 212.04394531 177.16943359 C206.48079139 152.93218075 196.785098 128.86025637 182.5390625 108.39111328 C181.80300781 107.30958984 181.06695312 106.22806641 180.30859375 105.11376953 C148.56469082 59.08285986 100.14376506 25.87167608 45.0390625 15.01611328 C12.43125915 9.06679624 -22.60688982 9.89078327 -54.4609375 19.39111328 Z " fill="#000000" transform="translate(221.4609375,-0.39111328125)"/>
<path d="M0 0 C13.04007225 -0.04653381 26.08012443 -0.08197552 39.1202631 -0.10362434 C45.17664099 -0.11401961 51.23296167 -0.12810028 57.28930664 -0.15087891 C63.14430229 -0.17276006 68.99924324 -0.18460057 74.85427666 -0.18975449 C77.07754819 -0.19342301 79.30081705 -0.20058592 81.52406502 -0.21146011 C106.26446481 -0.32755225 129.94777658 1.19657778 149 19 C159.45681692 30.43651869 163.90108717 43.55158048 163.34765625 59 C162.41869069 72.87787971 155.6396046 84.24963924 145.76953125 93.67578125 C123.67018023 112.22178105 95.04606602 110.47202926 68 110 C68.12011218 114.58589084 68.24443262 119.17164346 68.37231445 123.75732422 C68.41508058 125.31067975 68.45678338 126.86406501 68.49731445 128.41748047 C68.52620337 151.43795082 68.52620337 151.43795082 75.625 173 C82.52775903 178.81284971 90.44375875 179.49465184 99.19140625 179.82421875 C102 180 102 180 103 181 C103 184.3 103 187.6 103 191 C69.01 191 35.02 191 0 191 C0 181 0 181 1 180 C2.95647582 179.8653801 4.91555865 179.76818288 6.875 179.6875 C13.93623419 179.16760693 21.01249005 178.22139114 26.6875 173.63671875 C37.59578309 160.55327206 34.16217706 135.04459494 34.16796875 119.16015625 C34.17119063 117.06375609 34.17455537 114.96735614 34.17805481 112.87095642 C34.18400778 108.4980314 34.18589857 104.12512604 34.18530273 99.75219727 C34.18520107 94.1871248 34.19887495 88.62217978 34.21607494 83.05713749 C34.22726453 78.73391658 34.22921985 74.41072589 34.22869301 70.08749199 C34.22986182 68.0372721 34.23422072 65.98705114 34.24202538 63.93684578 C35.09691825 39.49543222 35.09691825 39.49543222 26.72265625 17.28515625 C19.94389839 10.80684195 8.70852561 11.51147446 0 11 C0 7.37 0 3.74 0 0 Z M68 18 C68 42.42 68 66.84 68 92 C95.87793682 93.72767279 95.87793682 93.72767279 118.0078125 81.37109375 C120.72956356 78.13167631 122.5852951 74.97501321 124 71 C124.35320312 70.13117188 124.70640625 69.26234375 125.0703125 68.3671875 C128.02555925 57.6637308 127.42003114 43.74254819 122 34 C116.79592396 24.99963749 109.86776171 20.81936049 100 18 C89.44 18 78.88 18 68 18 Z " fill="#000000" transform="translate(1248,117)"/>
<path d="M0 0 C1.65201416 0.00845947 1.65201416 0.00845947 3.33740234 0.01708984 C25.06124819 0.33951577 47.73779812 8.06338704 63.8125 23.3125 C63.8125 23.9725 63.8125 24.6325 63.8125 25.3125 C64.37453125 25.52648437 64.9365625 25.74046875 65.515625 25.9609375 C76.63603025 32.50457732 84.51028675 50.58237751 87.8125 62.5625 C91.60306562 82.55587552 88.26744786 101.92314794 77.8125 119.3125 C64.65681845 138.40166241 44.52177285 152.28364005 21.8125 157.3125 C-4.44598076 162.06151491 -30.79865726 158.38744119 -53.1875 143.3125 C-56.67191486 140.80083907 -59.96008239 138.14581051 -63.1875 135.3125 C-63.94804688 134.64734375 -64.70859375 133.9821875 -65.4921875 133.296875 C-78.69364787 120.96333071 -87.62157392 103.36815612 -88.55859375 85.21875 C-89.07315053 62.55116989 -82.60783702 43.49958384 -66.74707031 26.86474609 C-54.41169625 14.58730272 -39.07565886 6.40291737 -22.1875 2.3125 C-21.46876709 2.13662354 -20.75003418 1.96074707 -20.00952148 1.77954102 C-13.31175331 0.27426665 -6.85088516 -0.03680445 0 0 Z M-35.09375 29.125 C-50.83422261 46.24621583 -53.19560065 67.0148199 -52.37841797 89.33984375 C-51.3344661 105.59452137 -44.22337626 121.29316734 -32.1875 132.3125 C-22.59944411 140.22264611 -12.08471567 143.046613 0.1875 142.875 C1.28441162 142.86549316 2.38132324 142.85598633 3.51147461 142.84619141 C15.49545843 142.53843082 24.75776556 139.38127447 33.8125 131.3125 C34.39257812 130.84714844 34.97265625 130.38179688 35.5703125 129.90234375 C48.67460554 118.41405097 52.81677795 99.08027226 54.015625 82.50390625 C54.36245926 63.05228472 48.98494264 43.0002795 35.5 28.5 C16.27383495 10.64407388 -16.08035872 11.04669353 -35.09375 29.125 Z " fill="#000000" transform="translate(815.1875,154.6875)"/>
<path d="M0 0 C0.99 0.33 1.98 0.66 3 1 C4.25031066 3.66410019 5.30919262 6.24330969 6.3125 9 C6.61881348 9.81525146 6.92512695 10.63050293 7.24072266 11.47045898 C9.70133376 18.06160913 12.0502745 24.69312852 14.3671875 31.3359375 C21.68964912 52.31014014 29.44847436 73.13060996 37.14306641 93.97021484 C40.22319942 102.31243613 43.29955554 110.65604928 46.375 119 C46.66897675 119.79738586 46.96295349 120.59477173 47.26583862 121.4163208 C51.10293458 131.82533505 54.92531182 142.2393864 58.69287109 152.67382812 C58.97469238 153.45306641 59.25651367 154.23230469 59.546875 155.03515625 C59.92489258 156.08147217 59.92489258 156.08147217 60.31054688 157.14892578 C60.90243277 158.7380472 61.54773417 160.3070929 62.203125 161.87109375 C63 164 63 164 63 167 C25.77694767 181.82613101 -17.74685272 182.10743219 -56 171 C-56.33 170.67 -56.66 170.34 -57 170 C-56.56812377 164.01353108 -55.13675918 158.91579183 -53.0625 153.3125 C-52.4195302 151.52641669 -51.77766857 149.73993419 -51.13671875 147.953125 C-50.79044434 146.99341797 -50.44416992 146.03371094 -50.08740234 145.04492188 C-48.13171195 139.56863751 -46.26012159 134.06338374 -44.375 128.5625 C-41.55397251 120.35368729 -38.70966097 112.15378906 -35.8203125 103.96875 C-35.54893967 103.19989471 -35.27756683 102.43103943 -34.99797058 101.6388855 C-34.44412544 100.06994159 -33.89026693 98.50100241 -33.33639526 96.93206787 C-28.62680039 83.58944726 -24.03806572 70.21801597 -19.60644531 56.78051758 C-16.38414729 47.04983517 -12.96595292 37.39721913 -9.48999023 27.75463867 C-6.17686691 18.55063182 -3.0267683 9.30177575 0 0 Z " fill="#000000" transform="translate(227,241)"/>
<path d="M0 0 C0.99 0 1.98 0 3 0 C4.04539223 2.64440934 5.08626624 5.29047468 6.125 7.9375 C6.40859375 8.65357422 6.6921875 9.36964844 6.984375 10.10742188 C8.97257455 15.18597508 10.82458752 20.30546139 12.625 25.453125 C16.45623318 36.3930251 20.49385343 47.25656558 24.51321411 58.12841797 C26.8519553 64.45548779 29.18622933 70.78420379 31.51953125 77.11328125 C31.87069283 78.06572157 31.87069283 78.06572157 32.22894859 79.03740311 C36.70513601 91.18011324 41.14554772 103.33562666 45.5625 115.5 C45.88685028 116.39308868 46.21120056 117.28617737 46.54537964 118.20632935 C48.984905 124.92469442 51.42128597 131.64419775 53.85681152 138.36401367 C55.71583404 143.49311425 57.57578913 148.62187456 59.4375 153.75 C59.68156586 154.42248779 59.92563171 155.09497559 60.17709351 155.7878418 C63.71665317 165.53535672 67.3304095 175.25324142 70.98999023 184.95629883 C73.5512985 191.76159094 76.00744662 198.59701038 78.40625 205.4609375 C80.40486819 211.17313401 82.45260962 216.86764008 84.5 222.5625 C84.88333496 223.63185791 85.26666992 224.70121582 85.66162109 225.80297852 C87.37685807 230.57098562 89.10947501 235.3277414 90.9453125 240.05078125 C91.23212891 240.79191162 91.51894531 241.53304199 91.81445312 242.29663086 C92.56834493 244.22972754 93.33446365 246.15804357 94.1015625 248.0859375 C95 251 95 251 94 254 C80.16753018 247.39973522 67.88202562 239.64724873 55.8125 230.19921875 C54.11347744 228.8706775 52.3899915 227.57158943 50.625 226.33203125 C49.820625 225.67267578 49.820625 225.67267578 49 225 C49 224.34 49 223.68 49 223 C48.46503906 222.78859375 47.93007812 222.5771875 47.37890625 222.359375 C44.08701056 220.47829175 41.5844018 217.92396303 38.9375 215.25 C38.36604248 214.67362793 37.79458496 214.09725586 37.20581055 213.50341797 C27.04814176 203.07106531 18.79784983 191.25426022 11 179 C10.38511719 178.05125 9.77023438 177.1025 9.13671875 176.125 C-17.23157227 133.45080029 -22.15886799 79.16228185 -10.8671875 31.03125 C-8.1787732 20.35646496 -4.17129057 10.16977471 0 0 Z " fill="#000000" transform="translate(47,146)"/>
<path d="M0 0 C1.32 -3.3 2.64 -6.6 4 -10 C7.63 -10 11.26 -10 15 -10 C15.02464032 -2.47029868 15.04283141 5.05937939 15.05493164 12.58911133 C15.0599737 15.15291757 15.06680714 17.71672091 15.07543945 20.28051758 C15.08751064 23.95655021 15.09322942 27.63254498 15.09765625 31.30859375 C15.10281754 32.46274277 15.10797882 33.61689178 15.11329651 34.80601501 C15.11337204 35.86703934 15.11344757 36.92806366 15.11352539 38.02124023 C15.115746 38.96055893 15.11796661 39.89987762 15.12025452 40.86766052 C15 43 15 43 14 44 C12.31391034 44.07205511 10.62499341 44.08386068 8.9375 44.0625 C8.01839844 44.05347656 7.09929687 44.04445312 6.15234375 44.03515625 C5.44207031 44.02355469 4.73179688 44.01195312 4 44 C2.44010599 40.30551419 1.31390985 36.61367262 0.25 32.75 C-2.50438103 23.75506563 -6.98838286 16.22350719 -15 11 C-24.37372596 6.51538439 -34.00600863 5.3858782 -43.9375 8.6875 C-49.01675089 10.72354779 -51.54937964 13.09875928 -54 18 C-54.53145414 22.84407382 -54.56862903 26.81725163 -52.4375 31.25 C-46.47225339 37.98002182 -39.94346164 41.86698403 -31.875 45.75 C-30.82546143 46.2665918 -29.77592285 46.78318359 -28.69458008 47.31542969 C-23.53834099 49.84292942 -18.35725184 52.31000946 -13.14453125 54.71875 C2.46270425 61.93890043 18.78300709 70.30528948 25.90234375 87.1328125 C29.88805801 98.55730222 28.73594756 109.98682017 24 121 C17.40158019 133.06861241 6.89955019 141.36159604 -6 146 C-22.7747486 150.83733218 -39.31217319 149.99517344 -55 142 C-57.46069212 140.42486669 -59.82998179 138.80079589 -62.16015625 137.0390625 C-62.76730469 136.69617188 -63.37445312 136.35328125 -64 136 C-67.24391139 136.69139735 -67.24391139 136.69139735 -68.38671875 139.72265625 C-68.81597656 140.82480469 -69.24523438 141.92695313 -69.6875 143.0625 C-70.12449219 144.16722656 -70.56148437 145.27195312 -71.01171875 146.41015625 C-71.33785156 147.26480469 -71.66398437 148.11945313 -72 149 C-75.3 149 -78.6 149 -82 149 C-82 128.21 -82 107.42 -82 86 C-78.7 86 -75.4 86 -72 86 C-70.7359941 88.88915635 -69.85557381 91.60865323 -69.125 94.6875 C-66.15750744 106.73869117 -60.28268673 116.75992252 -50 124 C-47.41239865 125.56212484 -44.77943455 126.81782085 -42 128 C-41.36964844 128.30035156 -40.73929688 128.60070312 -40.08984375 128.91015625 C-31.53922886 132.45231849 -19.3548635 132.86417185 -10.75 129.3125 C-6.43461775 126.9419612 -3.23504847 124.05841412 -0.6875 119.8125 C0.59683752 114.55839195 1.14697218 109.63128912 -1.0625 104.5625 C-6.42515789 95.93561556 -14.71365204 91.33314381 -23.5625 86.8125 C-24.46000977 86.34618164 -25.35751953 85.87986328 -26.28222656 85.39941406 C-31.20082 82.86631299 -36.15685538 80.43458013 -41.16796875 78.08984375 C-42.18366943 77.61377686 -43.19937012 77.13770996 -44.24584961 76.6472168 C-46.19060633 75.74271922 -48.14038818 74.84891667 -50.09594727 73.96801758 C-63.47945811 67.77196989 -75.08186949 57.89597551 -80.8125 44.0625 C-83.77846723 34.17022778 -83.46187219 22.48985394 -78.55078125 13.359375 C-76.03223379 9.52763025 -73.26058246 6.21805312 -70 3 C-69.48953125 2.45601562 -68.9790625 1.91203125 -68.453125 1.3515625 C-50.09001749 -16.55701265 -20.03630199 -11.3842625 0 0 Z " fill="#000000" transform="translate(1825,165)"/>
<path d="M0 0 C0.20496094 -0.71027344 0.40992188 -1.42054688 0.62109375 -2.15234375 C0.89050781 -3.07144531 1.15992188 -3.99054688 1.4375 -4.9375 C1.70433594 -5.85402344 1.97117187 -6.77054688 2.24609375 -7.71484375 C3 -10 3 -10 4 -11 C5.68608966 -11.07205511 7.37500659 -11.08386068 9.0625 -11.0625 C9.98160156 -11.05347656 10.90070313 -11.04445312 11.84765625 -11.03515625 C12.55792969 -11.02355469 13.26820312 -11.01195312 14 -11 C14.02526648 -3.47030348 14.04283141 4.0593822 14.05493164 11.58911133 C14.0599737 14.15291757 14.06680714 16.71672091 14.07543945 19.28051758 C14.08751064 22.95655021 14.09322942 26.63254498 14.09765625 30.30859375 C14.10281754 31.46274277 14.10797882 32.61689178 14.11329651 33.80601501 C14.11337204 34.86703934 14.11344757 35.92806366 14.11352539 37.02124023 C14.115746 37.96055893 14.11796661 38.89987762 14.12025452 39.86766052 C14 42 14 42 13 43 C11.48071962 43.07179964 9.95832518 43.08392007 8.4375 43.0625 C7.61121094 43.05347656 6.78492188 43.04445312 5.93359375 43.03515625 C5.29550781 43.02355469 4.65742187 43.01195312 4 43 C3.608125 41.7625 3.21625 40.525 2.8125 39.25 C-1.20178121 27.37519605 -5.35805766 15.35983835 -16.91015625 8.9296875 C-25.2181734 5.23378454 -35.05871329 4.67911606 -43.8125 7.0625 C-48.51687182 8.87837063 -51.58222453 11.56741163 -54 16 C-55.55885189 20.66817473 -55.49262233 24.65214529 -53.5625 29.1875 C-48.00762353 38.60663836 -36.41568718 42.43674921 -27 47 C-22.55576095 49.15962533 -18.11738577 51.33030873 -13.68658447 53.5173645 C-12.37280408 54.16314374 -11.05705366 54.80493331 -9.73919678 55.44235229 C0.60941398 60.44815434 11.48348106 65.7552059 18.5 75.1875 C19.1084375 75.98542969 19.716875 76.78335938 20.34375 77.60546875 C27.67469883 88.2042226 28.65810085 99.90143392 26.3828125 112.38671875 C22.59430121 125.21066184 14.2010792 134.06732707 3 141 C-5.00611434 145.29161306 -12.99538246 147.15910186 -22 148 C-22.75667969 148.0721875 -23.51335937 148.144375 -24.29296875 148.21875 C-36.83751869 148.78360778 -47.74581981 144.66849895 -58.5390625 138.83984375 C-62.18596488 136.82131827 -62.18596488 136.82131827 -67 135 C-68.65 139.29 -70.3 143.58 -72 148 C-79.71484375 148.09765625 -79.71484375 148.09765625 -82 148 C-83.76723811 146.23276189 -83.12762833 143.6968116 -83.12939453 141.30273438 C-83.13254669 140.08477173 -83.13569885 138.86680908 -83.13894653 137.61193848 C-83.13715675 136.27254195 -83.1351058 134.93314576 -83.1328125 133.59375 C-83.1334856 132.2299396 -83.13445567 130.86612932 -83.13571167 129.50231934 C-83.13718838 126.64069479 -83.13503497 123.7791014 -83.13037109 120.91748047 C-83.12467381 117.24181386 -83.12795296 113.56622026 -83.13394356 109.89055634 C-83.13754991 107.07337896 -83.13641025 104.25621902 -83.13381577 101.43904114 C-83.1331467 100.08339937 -83.13397421 98.72775604 -83.13629532 97.37211609 C-83.13882301 95.48049956 -83.13429014 93.58887751 -83.12939453 91.69726562 C-83.12859894 90.61884399 -83.12780334 89.54042236 -83.12698364 88.42932129 C-83 86 -83 86 -82 85 C-80.31391034 84.92794489 -78.62499341 84.91613932 -76.9375 84.9375 C-75.55884766 84.95103516 -75.55884766 84.95103516 -74.15234375 84.96484375 C-73.08693359 84.98224609 -73.08693359 84.98224609 -72 85 C-71.76925781 85.96679688 -71.53851562 86.93359375 -71.30078125 87.9296875 C-67.77680782 102.20012631 -62.68059141 115.07239142 -49.87890625 123.390625 C-38.9498905 129.5001969 -28.31485663 131.52562644 -16 130 C-10.05269454 128.19890008 -5.20801893 125.48036568 -2 120 C0.43622111 114.89553673 0.3074603 110.39571302 -1 105 C-7.50571788 91.71749265 -23.01071016 85.67184628 -35.73828125 79.95703125 C-71.66168103 63.8117 -71.66168103 63.8117 -80.21875 45.1484375 C-83.71067324 35.5456486 -84.23428652 24.80012449 -80.3125 15.25 C-74.53965194 3.88854371 -65.54267024 -3.95646697 -53.45703125 -8.2578125 C-34.85047873 -13.87823377 -16.16650816 -10.77767211 0 0 Z " fill="#000000" transform="translate(1960,166)"/>
<path d="M0 0 C0.66 0 1.32 0 2 0 C26.89223016 50.39293705 32.64729809 104.60520591 14.96728516 158.40527344 C8.00261993 178.74456126 -2.33297044 197.39986364 -16 214 C-16.62648438 214.80953125 -17.25296875 215.6190625 -17.8984375 216.453125 C-30.43510832 232.39194068 -45.39481315 245.29828846 -62.125 256.625 C-63.06666016 257.26465698 -63.06666016 257.26465698 -64.02734375 257.91723633 C-66.94222873 259.84263216 -69.50067445 261.49512218 -73 262 C-72.34748392 257.16101614 -71.01463809 252.71291169 -69.41015625 248.12109375 C-69.15013824 247.3647464 -68.89012024 246.60839905 -68.6222229 245.82913208 C-67.77345639 243.36368541 -66.9180382 240.90060409 -66.0625 238.4375 C-65.47002986 236.72076978 -64.87799298 235.00388998 -64.28637695 233.28686523 C-63.09289446 229.82544283 -61.89678818 226.36494578 -60.69824219 222.90527344 C-59.19165994 218.55595552 -57.69167683 214.20440495 -56.1953125 209.8515625 C-53.80405769 202.89855038 -51.40387186 195.94865884 -49 189 C-48.66194336 188.0217627 -48.32388672 187.04352539 -47.97558594 186.03564453 C-44.78856334 176.81796498 -41.57864094 167.60908548 -38.3046875 158.421875 C-37.95376289 157.436996 -37.95376289 157.436996 -37.5957489 156.43222046 C-37.35975479 155.76993439 -37.12376068 155.10764832 -36.88061523 154.42529297 C-36.39955255 153.07520396 -35.91851421 151.72510628 -35.4375 150.375 C-35.19895294 149.70551331 -34.96040588 149.03602661 -34.71463013 148.34625244 C-31.60881629 139.62221046 -28.59125141 130.87587615 -25.70507812 122.07641602 C-23.30264721 114.80025926 -20.74379437 107.58194802 -18.16946411 100.36535645 C-16.74177915 96.3612909 -15.32033245 92.35500602 -13.89888 88.34872437 C-12.93045862 85.61934507 -11.96081079 82.89044749 -10.98535156 80.16357422 C-5.1234057 63.71450071 -0.74696572 46.72272309 -0.9375 29.16015625 C-0.94128662 28.35259384 -0.94507324 27.54503143 -0.94897461 26.71299744 C-0.96108271 24.16277436 -0.97973566 21.61267046 -1 19.0625 C-1.02650493 15.67838894 -1.04649907 12.29433132 -1.0625 8.91015625 C-1.07494751 7.74154808 -1.07494751 7.74154808 -1.08764648 6.54933167 C-1.09619477 4.69934349 -1.05338061 2.84923763 -1 1 C-0.67 0.67 -0.34 0.34 0 0 Z " fill="#000000" transform="translate(394,131)"/>
</svg>
