<svg xmlns="http://www.w3.org/2000/svg" version="1.1" xmlns:xlink="http://www.w3.org/1999/xlink" width="1000" height="1000"><style>
    #light-icon {
      display: inline;
    }
    #dark-icon {
      display: none;
    }

    @media (prefers-color-scheme: dark) {
      #light-icon {
        display: none;
      }
      #dark-icon {
        display: inline;
      }
    }
  </style><g id="light-icon"><svg xmlns="http://www.w3.org/2000/svg" version="1.1" xmlns:xlink="http://www.w3.org/1999/xlink" width="1000" height="1000"><g clip-path="url(#SvgjsClipPath1054)"><rect width="1000" height="1000" fill="#ffffff"></rect><g transform="matrix(17.5,0,0,17.5,150,150)"><svg xmlns="http://www.w3.org/2000/svg" version="1.1" xmlns:xlink="http://www.w3.org/1999/xlink" width="40" height="40"><svg xmlns="http://www.w3.org/2000/svg" xmlns:xlink="http://www.w3.org/1999/xlink" width="40" zoomAndPan="magnify" viewBox="0 0 30 30.000001" height="40" preserveAspectRatio="xMidYMid meet" version="1.0"><defs><g></g><clipPath id="SvgjsClipPath1054"><rect width="1000" height="1000" x="0" y="0" rx="500" ry="500"></rect></clipPath></defs><g fill="#3b3937" fill-opacity="1"><g transform="translate(2.057096, 27.94355)"><g><path d="M 0 0 L 0 -0.375 L 1.078125 -0.375 C 1.878906 -0.375 2.507812 -0.582031 2.96875 -1 C 3.425781 -1.425781 3.84375 -2.1875 4.21875 -3.28125 L 12.34375 -26.625 L 14.234375 -26.625 L 23.59375 -2.34375 C 23.875 -1.601562 24.175781 -1.085938 24.5 -0.796875 C 24.820312 -0.515625 25.253906 -0.375 25.796875 -0.375 L 26.28125 -0.375 L 26.28125 0 L 16.03125 0 L 16.03125 -0.375 L 16.890625 -0.375 C 17.835938 -0.375 18.519531 -0.484375 18.9375 -0.703125 C 19.363281 -0.929688 19.578125 -1.332031 19.578125 -1.90625 C 19.578125 -2.101562 19.550781 -2.34375 19.5 -2.625 C 19.445312 -2.914062 19.359375 -3.222656 19.234375 -3.546875 L 16.96875 -9.65625 L 6.859375 -9.65625 L 4.8125 -3.796875 C 4.582031 -3.148438 4.46875 -2.617188 4.46875 -2.203125 C 4.46875 -1.523438 4.765625 -1.050781 5.359375 -0.78125 C 5.960938 -0.507812 6.921875 -0.375 8.234375 -0.375 L 9.09375 -0.375 L 9.09375 0 Z M 6.96875 -10.03125 L 16.8125 -10.03125 L 14.09375 -17.296875 C 13.125 -19.804688 12.351562 -22.046875 11.78125 -24.015625 C 11.53125 -23.265625 11.3125 -22.601562 11.125 -22.03125 C 10.9375 -21.457031 10.738281 -20.851562 10.53125 -20.21875 C 10.320312 -19.59375 10.054688 -18.832031 9.734375 -17.9375 Z M 6.96875 -10.03125 "></path></g></g></g></svg></svg></g></g></svg></g><g id="dark-icon"><svg xmlns="http://www.w3.org/2000/svg" version="1.1" xmlns:xlink="http://www.w3.org/1999/xlink" width="1000" height="1000"><g clip-path="url(#SvgjsClipPath1055)"><rect width="1000" height="1000" fill="#ffffff"></rect><g transform="matrix(17.5,0,0,17.5,150,150)"><svg xmlns="http://www.w3.org/2000/svg" version="1.1" xmlns:xlink="http://www.w3.org/1999/xlink" width="40" height="40"><svg xmlns="http://www.w3.org/2000/svg" xmlns:xlink="http://www.w3.org/1999/xlink" width="40" zoomAndPan="magnify" viewBox="0 0 30 30.000001" height="40" preserveAspectRatio="xMidYMid meet" version="1.0"><defs><g></g><clipPath id="SvgjsClipPath1055"><rect width="1000" height="1000" x="0" y="0" rx="500" ry="500"></rect></clipPath></defs><g fill="#3b3937" fill-opacity="1"><g transform="translate(2.057096, 27.94355)"><g><path d="M 0 0 L 0 -0.375 L 1.078125 -0.375 C 1.878906 -0.375 2.507812 -0.582031 2.96875 -1 C 3.425781 -1.425781 3.84375 -2.1875 4.21875 -3.28125 L 12.34375 -26.625 L 14.234375 -26.625 L 23.59375 -2.34375 C 23.875 -1.601562 24.175781 -1.085938 24.5 -0.796875 C 24.820312 -0.515625 25.253906 -0.375 25.796875 -0.375 L 26.28125 -0.375 L 26.28125 0 L 16.03125 0 L 16.03125 -0.375 L 16.890625 -0.375 C 17.835938 -0.375 18.519531 -0.484375 18.9375 -0.703125 C 19.363281 -0.929688 19.578125 -1.332031 19.578125 -1.90625 C 19.578125 -2.101562 19.550781 -2.34375 19.5 -2.625 C 19.445312 -2.914062 19.359375 -3.222656 19.234375 -3.546875 L 16.96875 -9.65625 L 6.859375 -9.65625 L 4.8125 -3.796875 C 4.582031 -3.148438 4.46875 -2.617188 4.46875 -2.203125 C 4.46875 -1.523438 4.765625 -1.050781 5.359375 -0.78125 C 5.960938 -0.507812 6.921875 -0.375 8.234375 -0.375 L 9.09375 -0.375 L 9.09375 0 Z M 6.96875 -10.03125 L 16.8125 -10.03125 L 14.09375 -17.296875 C 13.125 -19.804688 12.351562 -22.046875 11.78125 -24.015625 C 11.53125 -23.265625 11.3125 -22.601562 11.125 -22.03125 C 10.9375 -21.457031 10.738281 -20.851562 10.53125 -20.21875 C 10.320312 -19.59375 10.054688 -18.832031 9.734375 -17.9375 Z M 6.96875 -10.03125 "></path></g></g></g></svg></svg></g></g></svg></g></svg>